<?xml version="1.0" encoding="UTF-8" standalone="no"?>
<!DOCTYPE svg PUBLIC "-//W3C//DTD SVG 1.1//EN"
 "http://www.w3.org/Graphics/SVG/1.1/DTD/svg11.dtd">
<!-- Generated by graphviz version 12.2.1 (20241206.2353)
 -->
<!-- Title: dependency&#45;cruiser output Pages: 1 -->
<svg width="597pt" height="372pt"
 viewBox="0.00 0.00 596.50 372.00" xmlns="http://www.w3.org/2000/svg" xmlns:xlink="http://www.w3.org/1999/xlink">
<g id="graph0" class="graph" transform="scale(1 1) rotate(0) translate(4 368)">
<title>dependency&#45;cruiser output</title>
<polygon fill="white" stroke="none" points="-4,4 -4,-368 592.5,-368 592.5,4 -4,4"/>
<g id="clust1" class="cluster">
<title>cluster_src</title>
<path fill="#ffffff" stroke="black" stroke-width="2" d="M20,-8C20,-8 568.5,-8 568.5,-8 574.5,-8 580.5,-14 580.5,-20 580.5,-20 580.5,-344 580.5,-344 580.5,-350 574.5,-356 568.5,-356 568.5,-356 20,-356 20,-356 14,-356 8,-350 8,-344 8,-344 8,-20 8,-20 8,-14 14,-8 20,-8"/>
<text text-anchor="middle" x="294.25" y="-343.45" font-family="Helvetica,sans-Serif" font-weight="bold" font-size="9.00">src</text>
</g>
<g id="clust2" class="cluster">
<title>cluster_src/components</title>
<path fill="#ffffff" stroke="black" stroke-width="2" d="M28,-16C28,-16 240,-16 240,-16 246,-16 252,-22 252,-28 252,-28 252,-215 252,-215 252,-221 246,-227 240,-227 240,-227 28,-227 28,-227 22,-227 16,-221 16,-215 16,-215 16,-28 16,-28 16,-22 22,-16 28,-16"/>
<text text-anchor="middle" x="134" y="-214.45" font-family="Helvetica,sans-Serif" font-weight="bold" font-size="9.00">components</text>
</g>
<g id="clust3" class="cluster">
<title>cluster_src/components/Battle</title>
<path fill="#ffffff" stroke="black" stroke-width="2" d="M36,-24C36,-24 232,-24 232,-24 238,-24 244,-30 244,-36 244,-36 244,-127 244,-127 244,-133 238,-139 232,-139 232,-139 36,-139 36,-139 30,-139 24,-133 24,-127 24,-127 24,-36 24,-36 24,-30 30,-24 36,-24"/>
<text text-anchor="middle" x="134" y="-126.45" font-family="Helvetica,sans-Serif" font-weight="bold" font-size="9.00">Battle</text>
</g>
<g id="clust4" class="cluster">
<title>cluster_src/components/RewardSystem</title>
<path fill="#ffffff" stroke="black" stroke-width="2" d="M38.25,-147C38.25,-147 101.75,-147 101.75,-147 107.75,-147 113.75,-153 113.75,-159 113.75,-159 113.75,-188 113.75,-188 113.75,-194 107.75,-200 101.75,-200 101.75,-200 38.25,-200 38.25,-200 32.25,-200 26.25,-194 26.25,-188 26.25,-188 26.25,-159 26.25,-159 26.25,-153 32.25,-147 38.25,-147"/>
<text text-anchor="middle" x="70" y="-187.45" font-family="Helvetica,sans-Serif" font-weight="bold" font-size="9.00">RewardSystem</text>
</g>
<g id="clust5" class="cluster">
<title>cluster_src/contexts</title>
<path fill="#ffffff" stroke="black" stroke-width="2" d="M276.12,-95C276.12,-95 338.12,-95 338.12,-95 344.12,-95 350.12,-101 350.12,-107 350.12,-107 350.12,-171 350.12,-171 350.12,-177 344.12,-183 338.12,-183 338.12,-183 276.12,-183 276.12,-183 270.12,-183 264.12,-177 264.12,-171 264.12,-171 264.12,-107 264.12,-107 264.12,-101 270.12,-95 276.12,-95"/>
<text text-anchor="middle" x="307.12" y="-170.45" font-family="Helvetica,sans-Serif" font-weight="bold" font-size="9.00">contexts</text>
</g>
<g id="clust6" class="cluster">
<title>cluster_src/contexts/game</title>
<path fill="#ffffff" stroke="black" stroke-width="2" d="M284.12,-103C284.12,-103 330.12,-103 330.12,-103 336.12,-103 342.12,-109 342.12,-115 342.12,-115 342.12,-144 342.12,-144 342.12,-150 336.12,-156 330.12,-156 330.12,-156 284.12,-156 284.12,-156 278.12,-156 272.12,-150 272.12,-144 272.12,-144 272.12,-115 272.12,-115 272.12,-109 278.12,-103 284.12,-103"/>
<text text-anchor="middle" x="307.12" y="-143.45" font-family="Helvetica,sans-Serif" font-weight="bold" font-size="9.00">game</text>
</g>
<g id="clust7" class="cluster">
<title>cluster_src/hooks</title>
<path fill="#ffffff" stroke="black" stroke-width="2" d="M136.62,-235C136.62,-235 221.12,-235 221.12,-235 227.12,-235 233.12,-241 233.12,-247 233.12,-247 233.12,-307 233.12,-307 233.12,-313 227.12,-319 221.12,-319 221.12,-319 136.62,-319 136.62,-319 130.62,-319 124.62,-313 124.62,-307 124.62,-307 124.62,-247 124.62,-247 124.62,-241 130.62,-235 136.62,-235"/>
<text text-anchor="middle" x="178.88" y="-306.45" font-family="Helvetica,sans-Serif" font-weight="bold" font-size="9.00">hooks</text>
</g>
<g id="clust8" class="cluster">
<title>cluster_src/lib</title>
<path fill="#ffffff" stroke="black" stroke-width="2" d="M479,-237C479,-237 560.5,-237 560.5,-237 566.5,-237 572.5,-243 572.5,-249 572.5,-249 572.5,-309 572.5,-309 572.5,-315 566.5,-321 560.5,-321 560.5,-321 479,-321 479,-321 473,-321 467,-315 467,-309 467,-309 467,-249 467,-249 467,-243 473,-237 479,-237"/>
<text text-anchor="middle" x="519.75" y="-308.45" font-family="Helvetica,sans-Serif" font-weight="bold" font-size="9.00">lib</text>
</g>
<g id="clust9" class="cluster">
<title>cluster_src/services</title>
<path fill="#ffffff" stroke="black" stroke-width="2" d="M272,-252C272,-252 447,-252 447,-252 453,-252 459,-258 459,-264 459,-264 459,-293 459,-293 459,-299 453,-305 447,-305 447,-305 272,-305 272,-305 266,-305 260,-299 260,-293 260,-293 260,-264 260,-264 260,-258 266,-252 272,-252"/>
<text text-anchor="middle" x="359.5" y="-292.45" font-family="Helvetica,sans-Serif" font-weight="bold" font-size="9.00">services</text>
</g>
<g id="clust10" class="cluster">
<title>cluster_src/types</title>
<path fill="#ffffff" stroke="black" stroke-width="2" d="M382.12,-103C382.12,-103 428.12,-103 428.12,-103 434.12,-103 440.12,-109 440.12,-115 440.12,-115 440.12,-175 440.12,-175 440.12,-181 434.12,-187 428.12,-187 428.12,-187 382.12,-187 382.12,-187 376.12,-187 370.12,-181 370.12,-175 370.12,-175 370.12,-115 370.12,-115 370.12,-109 376.12,-103 382.12,-103"/>
<text text-anchor="middle" x="405.12" y="-174.45" font-family="Helvetica,sans-Serif" font-weight="bold" font-size="9.00">types</text>
</g>
<g id="clust11" class="cluster">
<title>cluster_src/utils</title>
<path fill="#ffffff" stroke="black" stroke-width="2" d="M278.38,-191C278.38,-191 335.88,-191 335.88,-191 341.88,-191 347.88,-197 347.88,-203 347.88,-203 347.88,-232 347.88,-232 347.88,-238 341.88,-244 335.88,-244 335.88,-244 278.38,-244 278.38,-244 272.38,-244 266.38,-238 266.38,-232 266.38,-232 266.38,-203 266.38,-203 266.38,-197 272.38,-191 278.38,-191"/>
<text text-anchor="middle" x="307.12" y="-231.45" font-family="Helvetica,sans-Serif" font-weight="bold" font-size="9.00">utils</text>
</g>
<!-- src/components/Battle/BattleMode.tsx -->
<g id="node1" class="node">
<title>src/components/Battle/BattleMode.tsx</title>
<g id="a_node1"><a xlink:href="src/components/Battle/BattleMode.tsx" xlink:title="BattleMode.tsx">
<path fill="#bbfeff" stroke="black" d="M101.83,-112.25C101.83,-112.25 38.17,-112.25 38.17,-112.25 35.08,-112.25 32,-109.17 32,-106.08 32,-106.08 32,-99.92 32,-99.92 32,-96.83 35.08,-93.75 38.17,-93.75 38.17,-93.75 101.83,-93.75 101.83,-93.75 104.92,-93.75 108,-96.83 108,-99.92 108,-99.92 108,-106.08 108,-106.08 108,-109.17 104.92,-112.25 101.83,-112.25"/>
<text text-anchor="start" x="40" y="-99.7" font-family="Helvetica,sans-Serif" font-size="9.00">BattleMode.tsx</text>
</a>
</g>
</g>
<!-- src/hooks/useBattle.ts -->
<g id="node2" class="node">
<title>src/hooks/useBattle.ts</title>
<g id="a_node2"><a xlink:href="src/hooks/useBattle.ts" xlink:title="useBattle.ts">
<path fill="#ddfeff" stroke="black" d="M204.33,-261.25C204.33,-261.25 153.42,-261.25 153.42,-261.25 150.33,-261.25 147.25,-258.17 147.25,-255.08 147.25,-255.08 147.25,-248.92 147.25,-248.92 147.25,-245.83 150.33,-242.75 153.42,-242.75 153.42,-242.75 204.33,-242.75 204.33,-242.75 207.42,-242.75 210.5,-245.83 210.5,-248.92 210.5,-248.92 210.5,-255.08 210.5,-255.08 210.5,-258.17 207.42,-261.25 204.33,-261.25"/>
<text text-anchor="start" x="155.25" y="-248.7" font-family="Helvetica,sans-Serif" font-size="9.00">useBattle.ts</text>
</a>
</g>
</g>
<!-- src/components/Battle/BattleMode.tsx&#45;&gt;src/hooks/useBattle.ts -->
<g id="edge1" class="edge">
<title>src/components/Battle/BattleMode.tsx&#45;&gt;src/hooks/useBattle.ts</title>
<path fill="none" stroke="#000000" stroke-width="2" stroke-opacity="0.200000" d="M85.33,-112.74C95.01,-120.13 107.18,-131.19 113.75,-144 125.23,-166.37 110.08,-177.73 121.75,-200 129.56,-214.91 143.39,-227.8 155.36,-237.01"/>
<polygon fill="#000000" fill-opacity="0.200000" stroke="#000000" stroke-width="2" stroke-opacity="0.200000" points="153.99,-238.61 160.07,-240.47 156.48,-235.23 153.99,-238.61"/>
</g>
<!-- src/lib/levelSystem.ts -->
<g id="node3" class="node">
<title>src/lib/levelSystem.ts</title>
<g id="a_node3"><a xlink:href="src/lib/levelSystem.ts" xlink:title="levelSystem.ts">
<path fill="#ddfeff" stroke="black" d="M550.83,-294.25C550.83,-294.25 488.67,-294.25 488.67,-294.25 485.58,-294.25 482.5,-291.17 482.5,-288.08 482.5,-288.08 482.5,-281.92 482.5,-281.92 482.5,-278.83 485.58,-275.75 488.67,-275.75 488.67,-275.75 550.83,-275.75 550.83,-275.75 553.92,-275.75 557,-278.83 557,-281.92 557,-281.92 557,-288.08 557,-288.08 557,-291.17 553.92,-294.25 550.83,-294.25"/>
<text text-anchor="start" x="490.5" y="-281.7" font-family="Helvetica,sans-Serif" font-size="9.00">levelSystem.ts</text>
</a>
</g>
</g>
<!-- src/components/Battle/BattleMode.tsx&#45;&gt;src/lib/levelSystem.ts -->
<g id="edge2" class="edge">
<title>src/components/Battle/BattleMode.tsx&#45;&gt;src/lib/levelSystem.ts</title>
<path fill="none" stroke="#000000" stroke-width="2" stroke-opacity="0.200000" d="M85.72,-112.55C95.58,-119.85 107.81,-130.89 113.75,-144 121.92,-162.03 107.44,-308.32 121.75,-322 137.25,-336.82 395.2,-335.11 459,-318 473,-314.25 487.26,-306.55 498.34,-299.53"/>
<polygon fill="#000000" fill-opacity="0.200000" stroke="#000000" stroke-width="2" stroke-opacity="0.200000" points="499.42,-301.33 503.27,-296.27 497.1,-297.83 499.42,-301.33"/>
</g>
<!-- src/services/battleService.ts -->
<g id="node4" class="node">
<title>src/services/battleService.ts</title>
<g id="a_node4"><a xlink:href="src/services/battleService.ts" xlink:title="battleService.ts">
<path fill="#ddfeff" stroke="black" d="M340.08,-278.25C340.08,-278.25 274.17,-278.25 274.17,-278.25 271.08,-278.25 268,-275.17 268,-272.08 268,-272.08 268,-265.92 268,-265.92 268,-262.83 271.08,-259.75 274.17,-259.75 274.17,-259.75 340.08,-259.75 340.08,-259.75 343.17,-259.75 346.25,-262.83 346.25,-265.92 346.25,-265.92 346.25,-272.08 346.25,-272.08 346.25,-275.17 343.17,-278.25 340.08,-278.25"/>
<text text-anchor="start" x="276" y="-265.7" font-family="Helvetica,sans-Serif" font-size="9.00">battleService.ts</text>
</a>
</g>
</g>
<!-- src/components/Battle/BattleMode.tsx&#45;&gt;src/services/battleService.ts -->
<g id="edge3" class="edge">
<title>src/components/Battle/BattleMode.tsx&#45;&gt;src/services/battleService.ts</title>
<path fill="none" stroke="#000000" stroke-width="2" stroke-opacity="0.200000" d="M83.04,-112.45C92.32,-120.19 104.99,-131.81 113.75,-144 118.62,-150.78 116.02,-154.92 121.75,-161 166.97,-208.98 205.59,-185.17 252,-232 257.32,-237.37 254.54,-241.78 260,-247 263.2,-250.06 266.92,-252.77 270.81,-255.14"/>
<polygon fill="#000000" fill-opacity="0.200000" stroke="#000000" stroke-width="2" stroke-opacity="0.200000" points="269.52,-256.83 275.79,-257.85 271.52,-253.14 269.52,-256.83"/>
</g>
<!-- src/types/battle.ts -->
<g id="node5" class="node">
<title>src/types/battle.ts</title>
<g id="a_node5"><a xlink:href="src/types/battle.ts" xlink:title="battle.ts">
<path fill="#ddfeff" stroke="black" d="M425.96,-129.25C425.96,-129.25 384.29,-129.25 384.29,-129.25 381.21,-129.25 378.12,-126.17 378.12,-123.08 378.12,-123.08 378.12,-116.92 378.12,-116.92 378.12,-113.83 381.21,-110.75 384.29,-110.75 384.29,-110.75 425.96,-110.75 425.96,-110.75 429.04,-110.75 432.12,-113.83 432.12,-116.92 432.12,-116.92 432.12,-123.08 432.12,-123.08 432.12,-126.17 429.04,-129.25 425.96,-129.25"/>
<text text-anchor="start" x="389.38" y="-116.7" font-family="Helvetica,sans-Serif" font-size="9.00">battle.ts</text>
</a>
</g>
</g>
<!-- src/components/Battle/BattleMode.tsx&#45;&gt;src/types/battle.ts -->
<g id="edge4" class="edge">
<title>src/components/Battle/BattleMode.tsx&#45;&gt;src/types/battle.ts</title>
<path fill="none" stroke="#000000" stroke-width="2" stroke-opacity="0.200000" d="M98.6,-112.72C106.02,-114.9 114.11,-116.89 121.75,-118 150.4,-122.14 227.73,-133.77 252,-118 259.34,-113.23 252.66,-104.77 260,-100 293.59,-78.17 310.7,-92.93 350.12,-100 358.44,-101.49 367.14,-104.17 375.07,-107.1"/>
<polygon fill="#000000" fill-opacity="0.200000" stroke="#000000" stroke-width="2" stroke-opacity="0.200000" points="374.15,-109 380.51,-109.23 375.68,-105.08 374.15,-109"/>
</g>
<!-- src/utils/battleUtils.ts -->
<g id="node6" class="node">
<title>src/utils/battleUtils.ts</title>
<g id="a_node6"><a xlink:href="src/utils/battleUtils.ts" xlink:title="battleUtils.ts">
<path fill="#ddfeff" stroke="black" d="M333.71,-217.25C333.71,-217.25 280.54,-217.25 280.54,-217.25 277.46,-217.25 274.38,-214.17 274.38,-211.08 274.38,-211.08 274.38,-204.92 274.38,-204.92 274.38,-201.83 277.46,-198.75 280.54,-198.75 280.54,-198.75 333.71,-198.75 333.71,-198.75 336.79,-198.75 339.88,-201.83 339.88,-204.92 339.88,-204.92 339.88,-211.08 339.88,-211.08 339.88,-214.17 336.79,-217.25 333.71,-217.25"/>
<text text-anchor="start" x="282.38" y="-204.7" font-family="Helvetica,sans-Serif" font-size="9.00">battleUtils.ts</text>
</a>
</g>
</g>
<!-- src/components/Battle/BattleMode.tsx&#45;&gt;src/utils/battleUtils.ts -->
<g id="edge5" class="edge">
<title>src/components/Battle/BattleMode.tsx&#45;&gt;src/utils/battleUtils.ts</title>
<path fill="none" stroke="#000000" stroke-width="2" stroke-opacity="0.200000" d="M89.17,-112.69C98.78,-117.72 110.82,-123.87 121.75,-129 174.5,-153.78 237.07,-179.92 274.08,-195.05"/>
<polygon fill="#000000" fill-opacity="0.200000" stroke="#000000" stroke-width="2" stroke-opacity="0.200000" points="272.87,-196.83 279.22,-197.15 274.46,-192.94 272.87,-196.83"/>
</g>
<!-- src/components/Battle/BattleStateTransition.tsx -->
<g id="node7" class="node">
<title>src/components/Battle/BattleStateTransition.tsx</title>
<g id="a_node7"><a xlink:href="src/components/Battle/BattleStateTransition.tsx" xlink:title="BattleStateTransition.tsx">
<path fill="#bbfeff" stroke="black" d="M229.83,-81.25C229.83,-81.25 127.92,-81.25 127.92,-81.25 124.83,-81.25 121.75,-78.17 121.75,-75.08 121.75,-75.08 121.75,-68.92 121.75,-68.92 121.75,-65.83 124.83,-62.75 127.92,-62.75 127.92,-62.75 229.83,-62.75 229.83,-62.75 232.92,-62.75 236,-65.83 236,-68.92 236,-68.92 236,-75.08 236,-75.08 236,-78.17 232.92,-81.25 229.83,-81.25"/>
<text text-anchor="start" x="129.75" y="-68.7" font-family="Helvetica,sans-Serif" font-size="9.00">BattleStateTransition.tsx</text>
</a>
</g>
</g>
<!-- src/components/Battle/BattleMode.tsx&#45;&gt;src/components/Battle/BattleStateTransition.tsx -->
<g id="edge6" class="edge">
<title>src/components/Battle/BattleMode.tsx&#45;&gt;src/components/Battle/BattleStateTransition.tsx</title>
<path fill="none" stroke="#000000" stroke-width="2" stroke-opacity="0.200000" d="M103.75,-93.27C109.73,-91.51 115.93,-89.69 121.75,-88 126.08,-86.74 130.6,-85.44 135.11,-84.14"/>
<polygon fill="#000000" fill-opacity="0.200000" stroke="#000000" stroke-width="2" stroke-opacity="0.200000" points="135.63,-86.18 140.82,-82.51 134.47,-82.14 135.63,-86.18"/>
</g>
<!-- src/components/Battle/QuestionDisplay.tsx -->
<g id="node8" class="node">
<title>src/components/Battle/QuestionDisplay.tsx</title>
<g id="a_node8"><a xlink:href="src/components/Battle/QuestionDisplay.tsx" xlink:title="QuestionDisplay.tsx">
<path fill="#bbfeff" stroke="black" d="M220.83,-112.25C220.83,-112.25 136.92,-112.25 136.92,-112.25 133.83,-112.25 130.75,-109.17 130.75,-106.08 130.75,-106.08 130.75,-99.92 130.75,-99.92 130.75,-96.83 133.83,-93.75 136.92,-93.75 136.92,-93.75 220.83,-93.75 220.83,-93.75 223.92,-93.75 227,-96.83 227,-99.92 227,-99.92 227,-106.08 227,-106.08 227,-109.17 223.92,-112.25 220.83,-112.25"/>
<text text-anchor="start" x="138.75" y="-99.7" font-family="Helvetica,sans-Serif" font-size="9.00">QuestionDisplay.tsx</text>
</a>
</g>
</g>
<!-- src/components/Battle/BattleMode.tsx&#45;&gt;src/components/Battle/QuestionDisplay.tsx -->
<g id="edge7" class="edge">
<title>src/components/Battle/BattleMode.tsx&#45;&gt;src/components/Battle/QuestionDisplay.tsx</title>
<path fill="none" stroke="#000000" stroke-width="2" stroke-opacity="0.200000" d="M108.38,-103C112.6,-103 116.96,-103 121.35,-103"/>
<polygon fill="#000000" fill-opacity="0.200000" stroke="#000000" stroke-width="2" stroke-opacity="0.200000" points="121.34,-105.1 127.34,-103 121.34,-100.9 121.34,-105.1"/>
</g>
<!-- src/components/Battle/ScoreDisplay.tsx -->
<g id="node9" class="node">
<title>src/components/Battle/ScoreDisplay.tsx</title>
<g id="a_node9"><a xlink:href="src/components/Battle/ScoreDisplay.tsx" xlink:title="ScoreDisplay.tsx">
<path fill="#bbfeff" stroke="black" d="M214.46,-50.25C214.46,-50.25 143.29,-50.25 143.29,-50.25 140.21,-50.25 137.12,-47.17 137.12,-44.08 137.12,-44.08 137.12,-37.92 137.12,-37.92 137.12,-34.83 140.21,-31.75 143.29,-31.75 143.29,-31.75 214.46,-31.75 214.46,-31.75 217.54,-31.75 220.62,-34.83 220.62,-37.92 220.62,-37.92 220.62,-44.08 220.62,-44.08 220.62,-47.17 217.54,-50.25 214.46,-50.25"/>
<text text-anchor="start" x="145.12" y="-37.7" font-family="Helvetica,sans-Serif" font-size="9.00">ScoreDisplay.tsx</text>
</a>
</g>
</g>
<!-- src/components/Battle/BattleMode.tsx&#45;&gt;src/components/Battle/ScoreDisplay.tsx -->
<g id="edge8" class="edge">
<title>src/components/Battle/BattleMode.tsx&#45;&gt;src/components/Battle/ScoreDisplay.tsx</title>
<path fill="none" stroke="#000000" stroke-width="2" stroke-opacity="0.200000" d="M79.01,-93.5C88.28,-83.08 104.49,-66.59 121.75,-57 123.95,-55.78 126.25,-54.64 128.62,-53.59"/>
<polygon fill="#000000" fill-opacity="0.200000" stroke="#000000" stroke-width="2" stroke-opacity="0.200000" points="129.22,-55.61 134.02,-51.43 127.66,-51.71 129.22,-55.61"/>
</g>
<!-- src/hooks/useBattle.ts&#45;&gt;src/services/battleService.ts -->
<g id="edge11" class="edge">
<title>src/hooks/useBattle.ts&#45;&gt;src/services/battleService.ts</title>
<path fill="none" stroke="#000000" stroke-width="2" stroke-opacity="0.200000" d="M210.76,-256.16C225.3,-258.12 242.95,-260.49 259.1,-262.67"/>
<polygon fill="#000000" fill-opacity="0.200000" stroke="#000000" stroke-width="2" stroke-opacity="0.200000" points="258.66,-264.73 264.88,-263.45 259.22,-260.56 258.66,-264.73"/>
</g>
<!-- src/hooks/useBattle.ts&#45;&gt;src/utils/battleUtils.ts -->
<g id="edge12" class="edge">
<title>src/hooks/useBattle.ts&#45;&gt;src/utils/battleUtils.ts</title>
<path fill="none" stroke="#000000" stroke-width="2" stroke-opacity="0.200000" d="M207.58,-242.34C225.92,-235.95 250.15,-227.51 269.99,-220.59"/>
<polygon fill="#000000" fill-opacity="0.200000" stroke="#000000" stroke-width="2" stroke-opacity="0.200000" points="270.65,-222.59 275.63,-218.63 269.27,-218.62 270.65,-222.59"/>
</g>
<!-- src/services/battleService.ts&#45;&gt;src/types/battle.ts -->
<g id="edge16" class="edge">
<title>src/services/battleService.ts&#45;&gt;src/types/battle.ts</title>
<path fill="none" stroke="#000000" stroke-width="2" stroke-opacity="0.200000" d="M336.09,-259.4C341.56,-256.27 346.67,-252.22 350.12,-247 363.8,-226.37 344.17,-155.63 359.25,-136 362.01,-132.4 365.65,-129.61 369.67,-127.45"/>
<polygon fill="#000000" fill-opacity="0.200000" stroke="#000000" stroke-width="2" stroke-opacity="0.200000" points="370.23,-129.49 374.93,-125.2 368.58,-125.63 370.23,-129.49"/>
</g>
<!-- src/lib/supabaseClient.ts -->
<g id="node13" class="node">
<title>src/lib/supabaseClient.ts</title>
<g id="a_node13"><a xlink:href="src/lib/supabaseClient.ts" xlink:title="supabaseClient.ts">
<path fill="#ddfeff" stroke="black" d="M558.33,-263.25C558.33,-263.25 481.17,-263.25 481.17,-263.25 478.08,-263.25 475,-260.17 475,-257.08 475,-257.08 475,-250.92 475,-250.92 475,-247.83 478.08,-244.75 481.17,-244.75 481.17,-244.75 558.33,-244.75 558.33,-244.75 561.42,-244.75 564.5,-247.83 564.5,-250.92 564.5,-250.92 564.5,-257.08 564.5,-257.08 564.5,-260.17 561.42,-263.25 558.33,-263.25"/>
<text text-anchor="start" x="483" y="-250.7" font-family="Helvetica,sans-Serif" font-size="9.00">supabaseClient.ts</text>
</a>
</g>
</g>
<!-- src/services/battleService.ts&#45;&gt;src/lib/supabaseClient.ts -->
<g id="edge14" class="edge">
<title>src/services/battleService.ts&#45;&gt;src/lib/supabaseClient.ts</title>
<path fill="none" stroke="#000000" stroke-width="2" stroke-opacity="0.200000" d="M335.93,-259.28C343.41,-257.1 351.56,-255.1 359.25,-254 394.43,-248.95 434.42,-248.96 465.56,-250.23"/>
<polygon fill="#000000" fill-opacity="0.200000" stroke="#000000" stroke-width="2" stroke-opacity="0.200000" points="465.39,-252.32 471.48,-250.5 465.58,-248.13 465.39,-252.32"/>
</g>
<!-- src/services/progressService.ts -->
<g id="node14" class="node">
<title>src/services/progressService.ts</title>
<g id="a_node14"><a xlink:href="src/services/progressService.ts" xlink:title="progressService.ts">
<path fill="#ddfeff" stroke="black" d="M444.83,-278.25C444.83,-278.25 365.42,-278.25 365.42,-278.25 362.33,-278.25 359.25,-275.17 359.25,-272.08 359.25,-272.08 359.25,-265.92 359.25,-265.92 359.25,-262.83 362.33,-259.75 365.42,-259.75 365.42,-259.75 444.83,-259.75 444.83,-259.75 447.92,-259.75 451,-262.83 451,-265.92 451,-265.92 451,-272.08 451,-272.08 451,-275.17 447.92,-278.25 444.83,-278.25"/>
<text text-anchor="start" x="367.25" y="-265.7" font-family="Helvetica,sans-Serif" font-size="9.00">progressService.ts</text>
</a>
</g>
</g>
<!-- src/services/battleService.ts&#45;&gt;src/services/progressService.ts -->
<g id="edge15" class="edge">
<title>src/services/battleService.ts&#45;&gt;src/services/progressService.ts</title>
<path fill="none" stroke="#000000" stroke-width="2" stroke-opacity="0.200000" d="M346.62,-269C347.76,-269 348.91,-269 350.07,-269"/>
<polygon fill="#000000" fill-opacity="0.200000" stroke="#000000" stroke-width="2" stroke-opacity="0.200000" points="349.96,-271.1 355.96,-269 349.96,-266.9 349.96,-271.1"/>
</g>
<!-- src/components/RewardSystem/XPSystem.tsx -->
<g id="node10" class="node">
<title>src/components/RewardSystem/XPSystem.tsx</title>
<g id="a_node10"><a xlink:href="src/components/RewardSystem/XPSystem.tsx" xlink:title="XPSystem.tsx">
<path fill="#bbfeff" stroke="black" d="M99.58,-173.25C99.58,-173.25 40.42,-173.25 40.42,-173.25 37.33,-173.25 34.25,-170.17 34.25,-167.08 34.25,-167.08 34.25,-160.92 34.25,-160.92 34.25,-157.83 37.33,-154.75 40.42,-154.75 40.42,-154.75 99.58,-154.75 99.58,-154.75 102.67,-154.75 105.75,-157.83 105.75,-160.92 105.75,-160.92 105.75,-167.08 105.75,-167.08 105.75,-170.17 102.67,-173.25 99.58,-173.25"/>
<text text-anchor="start" x="42.25" y="-160.7" font-family="Helvetica,sans-Serif" font-size="9.00">XPSystem.tsx</text>
</a>
</g>
</g>
<!-- src/components/RewardSystem/XPSystem.tsx&#45;&gt;src/lib/levelSystem.ts -->
<g id="edge9" class="edge">
<title>src/components/RewardSystem/XPSystem.tsx&#45;&gt;src/lib/levelSystem.ts</title>
<path fill="none" stroke="#000000" stroke-width="2" stroke-opacity="0.200000" d="M105.96,-170.76C146.56,-176.42 212.92,-178.53 252,-142 265.88,-129.02 245.36,-112.11 260,-100 328.14,-43.61 395,-38.96 459,-100 472.6,-112.97 455.49,-254.14 467,-269 469.05,-271.65 471.53,-273.87 474.28,-275.73"/>
<polygon fill="#000000" fill-opacity="0.200000" stroke="#000000" stroke-width="2" stroke-opacity="0.200000" points="473.13,-277.49 479.41,-278.44 475.09,-273.78 473.13,-277.49"/>
</g>
<!-- src/contexts/game/battle.ts -->
<g id="node11" class="node">
<title>src/contexts/game/battle.ts</title>
<g id="a_node11"><a xlink:href="src/contexts/game/battle.ts" xlink:title="battle.ts">
<path fill="#ddfeff" stroke="black" d="M327.96,-129.25C327.96,-129.25 286.29,-129.25 286.29,-129.25 283.21,-129.25 280.12,-126.17 280.12,-123.08 280.12,-123.08 280.12,-116.92 280.12,-116.92 280.12,-113.83 283.21,-110.75 286.29,-110.75 286.29,-110.75 327.96,-110.75 327.96,-110.75 331.04,-110.75 334.12,-113.83 334.12,-116.92 334.12,-116.92 334.12,-123.08 334.12,-123.08 334.12,-126.17 331.04,-129.25 327.96,-129.25"/>
<text text-anchor="start" x="291.38" y="-116.7" font-family="Helvetica,sans-Serif" font-size="9.00">battle.ts</text>
</a>
</g>
</g>
<!-- src/contexts/game/battle.ts&#45;&gt;src/types/battle.ts -->
<g id="edge10" class="edge">
<title>src/contexts/game/battle.ts&#45;&gt;src/types/battle.ts</title>
<path fill="none" stroke="#000000" stroke-width="2" stroke-opacity="0.200000" d="M334.61,-120C345.21,-120 357.57,-120 368.91,-120"/>
<polygon fill="#000000" fill-opacity="0.200000" stroke="#000000" stroke-width="2" stroke-opacity="0.200000" points="368.7,-122.1 374.7,-120 368.7,-117.9 368.7,-122.1"/>
</g>
<!-- src/hooks/useLevelSystem.ts -->
<g id="node12" class="node">
<title>src/hooks/useLevelSystem.ts</title>
<g id="a_node12"><a xlink:href="src/hooks/useLevelSystem.ts" xlink:title="useLevelSystem.ts">
<path fill="#ddfeff" stroke="black" d="M218.96,-292.25C218.96,-292.25 138.79,-292.25 138.79,-292.25 135.71,-292.25 132.62,-289.17 132.62,-286.08 132.62,-286.08 132.62,-279.92 132.62,-279.92 132.62,-276.83 135.71,-273.75 138.79,-273.75 138.79,-273.75 218.96,-273.75 218.96,-273.75 222.04,-273.75 225.12,-276.83 225.12,-279.92 225.12,-279.92 225.12,-286.08 225.12,-286.08 225.12,-289.17 222.04,-292.25 218.96,-292.25"/>
<text text-anchor="start" x="140.62" y="-279.7" font-family="Helvetica,sans-Serif" font-size="9.00">useLevelSystem.ts</text>
</a>
</g>
</g>
<!-- src/hooks/useLevelSystem.ts&#45;&gt;src/lib/levelSystem.ts -->
<g id="edge13" class="edge">
<title>src/hooks/useLevelSystem.ts&#45;&gt;src/lib/levelSystem.ts</title>
<path fill="none" stroke="#000000" stroke-width="2" stroke-opacity="0.200000" d="M204.32,-292.75C219.96,-298.45 240.84,-305.08 260,-308 347.44,-321.32 372.04,-324.16 459,-308 469.73,-306.01 481.03,-302.16 490.87,-298.17"/>
<polygon fill="#000000" fill-opacity="0.200000" stroke="#000000" stroke-width="2" stroke-opacity="0.200000" points="491.61,-300.13 496.31,-295.85 489.97,-296.27 491.61,-300.13"/>
</g>
<!-- src/services/progressService.ts&#45;&gt;src/lib/levelSystem.ts -->
<g id="edge17" class="edge">
<title>src/services/progressService.ts&#45;&gt;src/lib/levelSystem.ts</title>
<path fill="none" stroke="#000000" stroke-width="2" stroke-opacity="0.200000" d="M451.28,-275.42C458.67,-276.47 466.33,-277.55 473.72,-278.6"/>
<polygon fill="#000000" fill-opacity="0.200000" stroke="#000000" stroke-width="2" stroke-opacity="0.200000" points="473,-280.62 479.24,-279.39 473.59,-276.46 473,-280.62"/>
</g>
<!-- src/services/progressService.ts&#45;&gt;src/lib/supabaseClient.ts -->
<g id="edge18" class="edge">
<title>src/services/progressService.ts&#45;&gt;src/lib/supabaseClient.ts</title>
<path fill="none" stroke="#000000" stroke-width="2" stroke-opacity="0.200000" d="M451.28,-262.99C456.1,-262.34 461.04,-261.69 465.93,-261.03"/>
<polygon fill="#000000" fill-opacity="0.200000" stroke="#000000" stroke-width="2" stroke-opacity="0.200000" points="466.01,-263.14 471.68,-260.27 465.45,-258.98 466.01,-263.14"/>
</g>
<!-- src/types/user.ts -->
<g id="node15" class="node">
<title>src/types/user.ts</title>
<g id="a_node15"><a xlink:href="src/types/user.ts" xlink:title="user.ts">
<path fill="#ccffcc" stroke="black" d="M425.96,-160.25C425.96,-160.25 384.29,-160.25 384.29,-160.25 381.21,-160.25 378.12,-157.17 378.12,-154.08 378.12,-154.08 378.12,-147.92 378.12,-147.92 378.12,-144.83 381.21,-141.75 384.29,-141.75 384.29,-141.75 425.96,-141.75 425.96,-141.75 429.04,-141.75 432.12,-144.83 432.12,-147.92 432.12,-147.92 432.12,-154.08 432.12,-154.08 432.12,-157.17 429.04,-160.25 425.96,-160.25"/>
<text text-anchor="start" x="392" y="-147.7" font-family="Helvetica,sans-Serif" font-size="9.00">user.ts</text>
</a>
</g>
</g>
</g>
</svg>
