<?xml version="1.0" encoding="UTF-8" standalone="no"?>
<!DOCTYPE svg PUBLIC "-//W3C//DTD SVG 1.1//EN"
 "http://www.w3.org/Graphics/SVG/1.1/DTD/svg11.dtd">
<!-- Generated by graphviz version 12.2.1 (20241206.2353)
 -->
<!-- Title: dependency&#45;cruiser output Pages: 1 -->
<svg width="869pt" height="821pt"
 viewBox="0.00 0.00 868.88 821.00" xmlns="http://www.w3.org/2000/svg" xmlns:xlink="http://www.w3.org/1999/xlink">
<g id="graph0" class="graph" transform="scale(1 1) rotate(0) translate(4 817)">
<title>dependency&#45;cruiser output</title>
<polygon fill="white" stroke="none" points="-4,4 -4,-817 864.88,-817 864.88,4 -4,4"/>
<g id="clust1" class="cluster">
<title>cluster_src</title>
<path fill="#ffffff" stroke="black" stroke-width="2" d="M20,-8C20,-8 840.88,-8 840.88,-8 846.88,-8 852.88,-14 852.88,-20 852.88,-20 852.88,-793 852.88,-793 852.88,-799 846.88,-805 840.88,-805 840.88,-805 20,-805 20,-805 14,-805 8,-799 8,-793 8,-793 8,-20 8,-20 8,-14 14,-8 20,-8"/>
<text text-anchor="middle" x="430.44" y="-792.45" font-family="Helvetica,sans-Serif" font-weight="bold" font-size="9.00">src</text>
</g>
<g id="clust2" class="cluster">
<title>cluster_src/components</title>
<path fill="#ffffff" stroke="black" stroke-width="2" d="M28,-18C28,-18 384.5,-18 384.5,-18 390.5,-18 396.5,-24 396.5,-30 396.5,-30 396.5,-520 396.5,-520 396.5,-526 390.5,-532 384.5,-532 384.5,-532 28,-532 28,-532 22,-532 16,-526 16,-520 16,-520 16,-30 16,-30 16,-24 22,-18 28,-18"/>
<text text-anchor="middle" x="206.25" y="-519.45" font-family="Helvetica,sans-Serif" font-weight="bold" font-size="9.00">components</text>
</g>
<g id="clust3" class="cluster">
<title>cluster_src/components/Battle</title>
<path fill="#ffffff" stroke="black" stroke-width="2" d="M53.38,-210C53.38,-210 376.5,-210 376.5,-210 382.5,-210 388.5,-216 388.5,-222 388.5,-222 388.5,-375 388.5,-375 388.5,-381 382.5,-387 376.5,-387 376.5,-387 53.38,-387 53.38,-387 47.38,-387 41.38,-381 41.38,-375 41.38,-375 41.38,-222 41.38,-222 41.38,-216 47.38,-210 53.38,-210"/>
<text text-anchor="middle" x="214.94" y="-374.45" font-family="Helvetica,sans-Serif" font-weight="bold" font-size="9.00">Battle</text>
</g>
<g id="clust4" class="cluster">
<title>cluster_src/components/LevelSystem</title>
<path fill="#ffffff" stroke="black" stroke-width="2" d="M36,-452C36,-452 116.75,-452 116.75,-452 122.75,-452 128.75,-458 128.75,-464 128.75,-464 128.75,-493 128.75,-493 128.75,-499 122.75,-505 116.75,-505 116.75,-505 36,-505 36,-505 30,-505 24,-499 24,-493 24,-493 24,-464 24,-464 24,-458 30,-452 36,-452"/>
<text text-anchor="middle" x="76.38" y="-492.45" font-family="Helvetica,sans-Serif" font-weight="bold" font-size="9.00">LevelSystem</text>
</g>
<g id="clust5" class="cluster">
<title>cluster_src/components/RewardSystem</title>
<path fill="#ffffff" stroke="black" stroke-width="2" d="M53.38,-87C53.38,-87 241.38,-87 241.38,-87 247.38,-87 253.38,-93 253.38,-99 253.38,-99 253.38,-190 253.38,-190 253.38,-196 247.38,-202 241.38,-202 241.38,-202 53.38,-202 53.38,-202 47.38,-202 41.38,-196 41.38,-190 41.38,-190 41.38,-99 41.38,-99 41.38,-93 47.38,-87 53.38,-87"/>
<text text-anchor="middle" x="147.38" y="-189.45" font-family="Helvetica,sans-Serif" font-weight="bold" font-size="9.00">RewardSystem</text>
</g>
<g id="clust6" class="cluster">
<title>cluster_src/components/profile</title>
<path fill="#ffffff" stroke="black" stroke-width="2" d="M42.38,-26C42.38,-26 110.38,-26 110.38,-26 116.38,-26 122.38,-32 122.38,-38 122.38,-38 122.38,-67 122.38,-67 122.38,-73 116.38,-79 110.38,-79 110.38,-79 42.38,-79 42.38,-79 36.38,-79 30.38,-73 30.38,-67 30.38,-67 30.38,-38 30.38,-38 30.38,-32 36.38,-26 42.38,-26"/>
<text text-anchor="middle" x="76.38" y="-66.45" font-family="Helvetica,sans-Serif" font-weight="bold" font-size="9.00">profile</text>
</g>
<g id="clust7" class="cluster">
<title>cluster_src/config</title>
<path fill="#ffffff" stroke="black" stroke-width="2" d="M766.38,-441C766.38,-441 832.88,-441 832.88,-441 838.88,-441 844.88,-447 844.88,-453 844.88,-453 844.88,-482 844.88,-482 844.88,-488 838.88,-494 832.88,-494 832.88,-494 766.38,-494 766.38,-494 760.38,-494 754.38,-488 754.38,-482 754.38,-482 754.38,-453 754.38,-453 754.38,-447 760.38,-441 766.38,-441"/>
<text text-anchor="middle" x="799.62" y="-481.45" font-family="Helvetica,sans-Serif" font-weight="bold" font-size="9.00">config</text>
</g>
<g id="clust8" class="cluster">
<title>cluster_src/contexts</title>
<path fill="#ffffff" stroke="black" stroke-width="2" d="M416.5,-274C416.5,-274 610,-274 610,-274 616,-274 622,-280 622,-286 622,-286 622,-469 622,-469 622,-475 616,-481 610,-481 610,-481 416.5,-481 416.5,-481 410.5,-481 404.5,-475 404.5,-469 404.5,-469 404.5,-286 404.5,-286 404.5,-280 410.5,-274 416.5,-274"/>
<text text-anchor="middle" x="513.25" y="-468.45" font-family="Helvetica,sans-Serif" font-weight="bold" font-size="9.00">contexts</text>
</g>
<g id="clust9" class="cluster">
<title>cluster_src/contexts/__tests__</title>
<path fill="#ffffff" stroke="black" stroke-width="2" d="M428.12,-282C428.12,-282 503.62,-282 503.62,-282 509.62,-282 515.62,-288 515.62,-294 515.62,-294 515.62,-323 515.62,-323 515.62,-329 509.62,-335 503.62,-335 503.62,-335 428.12,-335 428.12,-335 422.12,-335 416.12,-329 416.12,-323 416.12,-323 416.12,-294 416.12,-294 416.12,-288 422.12,-282 428.12,-282"/>
<text text-anchor="middle" x="465.88" y="-322.45" font-family="Helvetica,sans-Serif" font-weight="bold" font-size="9.00">__tests__</text>
</g>
<g id="clust10" class="cluster">
<title>cluster_src/contexts/game</title>
<path fill="#ffffff" stroke="black" stroke-width="2" d="M556,-354C556,-354 602,-354 602,-354 608,-354 614,-360 614,-366 614,-366 614,-426 614,-426 614,-432 608,-438 602,-438 602,-438 556,-438 556,-438 550,-438 544,-432 544,-426 544,-426 544,-366 544,-366 544,-360 550,-354 556,-354"/>
<text text-anchor="middle" x="579" y="-425.45" font-family="Helvetica,sans-Serif" font-weight="bold" font-size="9.00">game</text>
</g>
<g id="clust11" class="cluster">
<title>cluster_src/hooks</title>
<path fill="#ffffff" stroke="black" stroke-width="2" d="M280,-540C280,-540 510.75,-540 510.75,-540 516.75,-540 522.75,-546 522.75,-552 522.75,-552 522.75,-643 522.75,-643 522.75,-649 516.75,-655 510.75,-655 510.75,-655 280,-655 280,-655 274,-655 268,-649 268,-643 268,-643 268,-552 268,-552 268,-546 274,-540 280,-540"/>
<text text-anchor="middle" x="395.38" y="-642.45" font-family="Helvetica,sans-Serif" font-weight="bold" font-size="9.00">hooks</text>
</g>
<g id="clust12" class="cluster">
<title>cluster_src/lib</title>
<path fill="#ffffff" stroke="black" stroke-width="2" d="M652.88,-168C652.88,-168 734.38,-168 734.38,-168 740.38,-168 746.38,-174 746.38,-180 746.38,-180 746.38,-240 746.38,-240 746.38,-246 740.38,-252 734.38,-252 734.38,-252 652.88,-252 652.88,-252 646.88,-252 640.88,-246 640.88,-240 640.88,-240 640.88,-180 640.88,-180 640.88,-174 646.88,-168 652.88,-168"/>
<text text-anchor="middle" x="693.62" y="-239.45" font-family="Helvetica,sans-Serif" font-weight="bold" font-size="9.00">lib</text>
</g>
<g id="clust13" class="cluster">
<title>cluster_src/scripts</title>
<path fill="#ffffff" stroke="black" stroke-width="2" d="M283,-694C283,-694 361.5,-694 361.5,-694 367.5,-694 373.5,-700 373.5,-706 373.5,-706 373.5,-735 373.5,-735 373.5,-741 367.5,-747 361.5,-747 361.5,-747 283,-747 283,-747 277,-747 271,-741 271,-735 271,-735 271,-706 271,-706 271,-700 277,-694 283,-694"/>
<text text-anchor="middle" x="322.25" y="-734.45" font-family="Helvetica,sans-Serif" font-weight="bold" font-size="9.00">scripts</text>
</g>
<g id="clust14" class="cluster">
<title>cluster_src/services</title>
<path fill="#ffffff" stroke="black" stroke-width="2" d="M427.75,-663C427.75,-663 620.88,-663 620.88,-663 626.88,-663 632.88,-669 632.88,-675 632.88,-675 632.88,-766 632.88,-766 632.88,-772 626.88,-778 620.88,-778 620.88,-778 427.75,-778 427.75,-778 421.75,-778 415.75,-772 415.75,-766 415.75,-766 415.75,-675 415.75,-675 415.75,-669 421.75,-663 427.75,-663"/>
<text text-anchor="middle" x="524.31" y="-765.45" font-family="Helvetica,sans-Serif" font-weight="bold" font-size="9.00">services</text>
</g>
<g id="clust15" class="cluster">
<title>cluster_src/types</title>
<path fill="#ffffff" stroke="black" stroke-width="2" d="M670.62,-663C670.62,-663 716.62,-663 716.62,-663 722.62,-663 728.62,-669 728.62,-675 728.62,-675 728.62,-735 728.62,-735 728.62,-741 722.62,-747 716.62,-747 716.62,-747 670.62,-747 670.62,-747 664.62,-747 658.62,-741 658.62,-735 658.62,-735 658.62,-675 658.62,-675 658.62,-669 664.62,-663 670.62,-663"/>
<text text-anchor="middle" x="693.62" y="-734.45" font-family="Helvetica,sans-Serif" font-weight="bold" font-size="9.00">types</text>
</g>
<g id="clust16" class="cluster">
<title>cluster_src/utils</title>
<path fill="#ffffff" stroke="black" stroke-width="2" d="M542.75,-499C542.75,-499 615.25,-499 615.25,-499 621.25,-499 627.25,-505 627.25,-511 627.25,-511 627.25,-633 627.25,-633 627.25,-639 621.25,-645 615.25,-645 615.25,-645 542.75,-645 542.75,-645 536.75,-645 530.75,-639 530.75,-633 530.75,-633 530.75,-511 530.75,-511 530.75,-505 536.75,-499 542.75,-499"/>
<text text-anchor="middle" x="579" y="-632.45" font-family="Helvetica,sans-Serif" font-weight="bold" font-size="9.00">utils</text>
</g>
<!-- src/components/AppContent.tsx -->
<g id="node1" class="node">
<title>src/components/AppContent.tsx</title>
<g id="a_node1"><a xlink:href="src/components/AppContent.tsx" xlink:title="AppContent.tsx">
<path fill="#bbfeff" stroke="black" d="M109.33,-444.25C109.33,-444.25 43.42,-444.25 43.42,-444.25 40.33,-444.25 37.25,-441.17 37.25,-438.08 37.25,-438.08 37.25,-431.92 37.25,-431.92 37.25,-428.83 40.33,-425.75 43.42,-425.75 43.42,-425.75 109.33,-425.75 109.33,-425.75 112.42,-425.75 115.5,-428.83 115.5,-431.92 115.5,-431.92 115.5,-438.08 115.5,-438.08 115.5,-441.17 112.42,-444.25 109.33,-444.25"/>
<text text-anchor="start" x="45.25" y="-431.7" font-family="Helvetica,sans-Serif" font-size="9.00">AppContent.tsx</text>
</a>
</g>
</g>
<!-- src/contexts/GameContext.tsx -->
<g id="node2" class="node">
<title>src/contexts/GameContext.tsx</title>
<g id="a_node2"><a xlink:href="src/contexts/GameContext.tsx" xlink:title="GameContext.tsx">
<path fill="#bbfeff" stroke="black" d="M502.58,-392.25C502.58,-392.25 429.17,-392.25 429.17,-392.25 426.08,-392.25 423,-389.17 423,-386.08 423,-386.08 423,-379.92 423,-379.92 423,-376.83 426.08,-373.75 429.17,-373.75 429.17,-373.75 502.58,-373.75 502.58,-373.75 505.67,-373.75 508.75,-376.83 508.75,-379.92 508.75,-379.92 508.75,-386.08 508.75,-386.08 508.75,-389.17 505.67,-392.25 502.58,-392.25"/>
<text text-anchor="start" x="431" y="-379.7" font-family="Helvetica,sans-Serif" font-size="9.00">GameContext.tsx</text>
</a>
</g>
</g>
<!-- src/components/AppContent.tsx&#45;&gt;src/contexts/GameContext.tsx -->
<g id="edge1" class="edge">
<title>src/components/AppContent.tsx&#45;&gt;src/contexts/GameContext.tsx</title>
<path fill="none" stroke="#000000" stroke-width="2" stroke-opacity="0.200000" d="M115.92,-440.76C191.26,-451.11 354.36,-468.8 396.5,-435 409.29,-424.74 393.15,-410.82 404.5,-399 407.44,-395.94 410.9,-393.43 414.64,-391.4"/>
<polygon fill="#000000" fill-opacity="0.200000" stroke="#000000" stroke-width="2" stroke-opacity="0.200000" points="415.27,-393.42 419.9,-389.06 413.56,-389.58 415.27,-393.42"/>
</g>
<!-- src/components/Battle/BattleMode.tsx -->
<g id="node3" class="node">
<title>src/components/Battle/BattleMode.tsx</title>
<g id="a_node3"><a xlink:href="src/components/Battle/BattleMode.tsx" xlink:title="BattleMode.tsx">
<path fill="#bbfeff" stroke="black" d="M225.71,-360.25C225.71,-360.25 162.04,-360.25 162.04,-360.25 158.96,-360.25 155.88,-357.17 155.88,-354.08 155.88,-354.08 155.88,-347.92 155.88,-347.92 155.88,-344.83 158.96,-341.75 162.04,-341.75 162.04,-341.75 225.71,-341.75 225.71,-341.75 228.79,-341.75 231.88,-344.83 231.88,-347.92 231.88,-347.92 231.88,-354.08 231.88,-354.08 231.88,-357.17 228.79,-360.25 225.71,-360.25"/>
<text text-anchor="start" x="163.88" y="-347.7" font-family="Helvetica,sans-Serif" font-size="9.00">BattleMode.tsx</text>
</a>
</g>
</g>
<!-- src/components/AppContent.tsx&#45;&gt;src/components/Battle/BattleMode.tsx -->
<g id="edge2" class="edge">
<title>src/components/AppContent.tsx&#45;&gt;src/components/Battle/BattleMode.tsx</title>
<path fill="none" stroke="#000000" stroke-width="2" stroke-opacity="0.200000" d="M115.98,-428.37C120.83,-426.09 125.29,-423.05 128.75,-419 144.79,-400.21 120.02,-382.18 136.75,-364 139.69,-360.81 143.24,-358.33 147.11,-356.4"/>
<polygon fill="#000000" fill-opacity="0.200000" stroke="#000000" stroke-width="2" stroke-opacity="0.200000" points="147.75,-358.41 152.59,-354.29 146.24,-354.49 147.75,-358.41"/>
</g>
<!-- src/components/Battle/BattleResults.tsx -->
<g id="node4" class="node">
<title>src/components/Battle/BattleResults.tsx</title>
<g id="a_node4"><a xlink:href="src/components/Battle/BattleResults.tsx" xlink:title="BattleResults.tsx">
<path fill="#bbfeff" stroke="black" d="M229.46,-267.25C229.46,-267.25 158.29,-267.25 158.29,-267.25 155.21,-267.25 152.12,-264.17 152.12,-261.08 152.12,-261.08 152.12,-254.92 152.12,-254.92 152.12,-251.83 155.21,-248.75 158.29,-248.75 158.29,-248.75 229.46,-248.75 229.46,-248.75 232.54,-248.75 235.62,-251.83 235.62,-254.92 235.62,-254.92 235.62,-261.08 235.62,-261.08 235.62,-264.17 232.54,-267.25 229.46,-267.25"/>
<text text-anchor="start" x="160.12" y="-254.7" font-family="Helvetica,sans-Serif" font-size="9.00">BattleResults.tsx</text>
</a>
</g>
</g>
<!-- src/components/Battle/BattleResults.tsx&#45;&gt;src/contexts/GameContext.tsx -->
<g id="edge3" class="edge">
<title>src/components/Battle/BattleResults.tsx&#45;&gt;src/contexts/GameContext.tsx</title>
<path fill="none" stroke="#000000" stroke-width="2" stroke-opacity="0.200000" d="M235.84,-253.38C242.5,-250.92 248.72,-247.3 253.38,-242 276.17,-216.04 237.96,-187.7 264,-165 286.2,-145.65 375.27,-144.6 396.5,-165 412.69,-180.57 390.45,-349.47 404.5,-367 407.35,-370.56 410.9,-373.38 414.83,-375.61"/>
<polygon fill="#000000" fill-opacity="0.200000" stroke="#000000" stroke-width="2" stroke-opacity="0.200000" points="413.69,-377.4 420.03,-377.96 415.42,-373.57 413.69,-377.4"/>
</g>
<!-- src/lib/levelSystem.ts -->
<g id="node5" class="node">
<title>src/lib/levelSystem.ts</title>
<g id="a_node5"><a xlink:href="src/lib/levelSystem.ts" xlink:title="levelSystem.ts">
<path fill="#ddfeff" stroke="black" d="M724.71,-194.25C724.71,-194.25 662.54,-194.25 662.54,-194.25 659.46,-194.25 656.38,-191.17 656.38,-188.08 656.38,-188.08 656.38,-181.92 656.38,-181.92 656.38,-178.83 659.46,-175.75 662.54,-175.75 662.54,-175.75 724.71,-175.75 724.71,-175.75 727.79,-175.75 730.88,-178.83 730.88,-181.92 730.88,-181.92 730.88,-188.08 730.88,-188.08 730.88,-191.17 727.79,-194.25 724.71,-194.25"/>
<text text-anchor="start" x="664.38" y="-181.7" font-family="Helvetica,sans-Serif" font-size="9.00">levelSystem.ts</text>
</a>
</g>
</g>
<!-- src/components/Battle/BattleResults.tsx&#45;&gt;src/lib/levelSystem.ts -->
<g id="edge4" class="edge">
<title>src/components/Battle/BattleResults.tsx&#45;&gt;src/lib/levelSystem.ts</title>
<path fill="none" stroke="#000000" stroke-width="2" stroke-opacity="0.200000" d="M235.95,-253.48C242.6,-251.01 248.79,-247.36 253.38,-242 267.18,-225.86 248.17,-161.16 264,-147 319.61,-97.27 549.33,-148.26 647.65,-173.09"/>
<polygon fill="#000000" fill-opacity="0.200000" stroke="#000000" stroke-width="2" stroke-opacity="0.200000" points="646.92,-175.07 653.25,-174.51 647.96,-171 646.92,-175.07"/>
</g>
<!-- src/config/battleConfig.ts -->
<g id="node23" class="node">
<title>src/config/battleConfig.ts</title>
<g id="a_node23"><a xlink:href="src/config/battleConfig.ts" xlink:title="battleConfig.ts">
<path fill="#ddfeff" stroke="black" d="M830.71,-467.25C830.71,-467.25 768.54,-467.25 768.54,-467.25 765.46,-467.25 762.38,-464.17 762.38,-461.08 762.38,-461.08 762.38,-454.92 762.38,-454.92 762.38,-451.83 765.46,-448.75 768.54,-448.75 768.54,-448.75 830.71,-448.75 830.71,-448.75 833.79,-448.75 836.88,-451.83 836.88,-454.92 836.88,-454.92 836.88,-461.08 836.88,-461.08 836.88,-464.17 833.79,-467.25 830.71,-467.25"/>
<text text-anchor="start" x="770.38" y="-454.7" font-family="Helvetica,sans-Serif" font-size="9.00">battleConfig.ts</text>
</a>
</g>
</g>
<!-- src/lib/levelSystem.ts&#45;&gt;src/config/battleConfig.ts -->
<g id="edge58" class="edge">
<title>src/lib/levelSystem.ts&#45;&gt;src/config/battleConfig.ts</title>
<path fill="none" stroke="#000000" stroke-width="2" stroke-opacity="0.200000" d="M731.21,-190.86C736.92,-193.21 742.27,-196.47 746.38,-201 778.46,-236.44 793.06,-386.63 797.28,-439.5"/>
<polygon fill="#000000" fill-opacity="0.200000" stroke="#000000" stroke-width="2" stroke-opacity="0.200000" points="795.18,-439.61 797.73,-445.43 799.37,-439.29 795.18,-439.61"/>
</g>
<!-- src/components/Battle/BattleStateTransition.css -->
<g id="node6" class="node">
<title>src/components/Battle/BattleStateTransition.css</title>
<g id="a_node6"><a xlink:href="src/components/Battle/BattleStateTransition.css" xlink:title="BattleStateTransition.css">
<path fill="#ffffcc" stroke="black" d="M374.33,-298.25C374.33,-298.25 270.17,-298.25 270.17,-298.25 267.08,-298.25 264,-295.17 264,-292.08 264,-292.08 264,-285.92 264,-285.92 264,-282.83 267.08,-279.75 270.17,-279.75 270.17,-279.75 374.33,-279.75 374.33,-279.75 377.42,-279.75 380.5,-282.83 380.5,-285.92 380.5,-285.92 380.5,-292.08 380.5,-292.08 380.5,-295.17 377.42,-298.25 374.33,-298.25"/>
<text text-anchor="start" x="272" y="-285.7" font-family="Helvetica,sans-Serif" font-size="9.00">BattleStateTransition.css</text>
</a>
</g>
</g>
<!-- src/components/Battle/BattleStateTransition.tsx -->
<g id="node7" class="node">
<title>src/components/Battle/BattleStateTransition.tsx</title>
<g id="a_node7"><a xlink:href="src/components/Battle/BattleStateTransition.tsx" xlink:title="BattleStateTransition.tsx">
<path fill="#bbfeff" stroke="black" d="M244.83,-298.25C244.83,-298.25 142.92,-298.25 142.92,-298.25 139.83,-298.25 136.75,-295.17 136.75,-292.08 136.75,-292.08 136.75,-285.92 136.75,-285.92 136.75,-282.83 139.83,-279.75 142.92,-279.75 142.92,-279.75 244.83,-279.75 244.83,-279.75 247.92,-279.75 251,-282.83 251,-285.92 251,-285.92 251,-292.08 251,-292.08 251,-295.17 247.92,-298.25 244.83,-298.25"/>
<text text-anchor="start" x="144.75" y="-285.7" font-family="Helvetica,sans-Serif" font-size="9.00">BattleStateTransition.tsx</text>
</a>
</g>
</g>
<!-- src/components/Battle/BattleStateTransition.tsx&#45;&gt;src/contexts/GameContext.tsx -->
<g id="edge5" class="edge">
<title>src/components/Battle/BattleStateTransition.tsx&#45;&gt;src/contexts/GameContext.tsx</title>
<path fill="none" stroke="#000000" stroke-width="2" stroke-opacity="0.200000" d="M246.1,-279.4C248.79,-277.6 251.26,-275.48 253.38,-273 267.45,-256.51 247.85,-190.47 264,-176 274.96,-166.17 385.87,-165.81 396.5,-176 411.83,-190.7 391.2,-350.44 404.5,-367 407.36,-370.55 410.9,-373.37 414.83,-375.6"/>
<polygon fill="#000000" fill-opacity="0.200000" stroke="#000000" stroke-width="2" stroke-opacity="0.200000" points="413.7,-377.39 420.04,-377.95 415.43,-373.57 413.7,-377.39"/>
</g>
<!-- src/components/Battle/BattleStateTransition.tsx&#45;&gt;src/components/Battle/BattleStateTransition.css -->
<g id="edge7" class="edge">
<title>src/components/Battle/BattleStateTransition.tsx&#45;&gt;src/components/Battle/BattleStateTransition.css</title>
<path fill="none" stroke="#000000" stroke-width="2" stroke-opacity="0.200000" d="M251.41,-289C252.56,-289 253.7,-289 254.85,-289"/>
<polygon fill="#000000" fill-opacity="0.200000" stroke="#000000" stroke-width="2" stroke-opacity="0.200000" points="254.65,-291.1 260.65,-289 254.65,-286.9 254.65,-291.1"/>
</g>
<!-- src/hooks/useBattleStreak.ts -->
<g id="node8" class="node">
<title>src/hooks/useBattleStreak.ts</title>
<g id="a_node8"><a xlink:href="src/hooks/useBattleStreak.ts" xlink:title="useBattleStreak.ts">
<path fill="#ddfeff" stroke="black" d="M360.83,-597.25C360.83,-597.25 283.67,-597.25 283.67,-597.25 280.58,-597.25 277.5,-594.17 277.5,-591.08 277.5,-591.08 277.5,-584.92 277.5,-584.92 277.5,-581.83 280.58,-578.75 283.67,-578.75 283.67,-578.75 360.83,-578.75 360.83,-578.75 363.92,-578.75 367,-581.83 367,-584.92 367,-584.92 367,-591.08 367,-591.08 367,-594.17 363.92,-597.25 360.83,-597.25"/>
<text text-anchor="start" x="285.5" y="-584.7" font-family="Helvetica,sans-Serif" font-size="9.00">useBattleStreak.ts</text>
</a>
</g>
</g>
<!-- src/components/Battle/BattleStateTransition.tsx&#45;&gt;src/hooks/useBattleStreak.ts -->
<g id="edge6" class="edge">
<title>src/components/Battle/BattleStateTransition.tsx&#45;&gt;src/hooks/useBattleStreak.ts</title>
<path fill="none" stroke="#000000" stroke-width="2" stroke-opacity="0.200000" d="M246.56,-298.61C249.1,-300.41 251.41,-302.53 253.38,-305 271.85,-328.24 245.59,-548.71 264,-572 265.62,-574.05 267.48,-575.85 269.52,-577.43"/>
<polygon fill="#000000" fill-opacity="0.200000" stroke="#000000" stroke-width="2" stroke-opacity="0.200000" points="268.22,-579.1 274.44,-580.43 270.4,-575.51 268.22,-579.1"/>
</g>
<!-- src/hooks/useBattleStreak.ts&#45;&gt;src/contexts/GameContext.tsx -->
<g id="edge52" class="edge">
<title>src/hooks/useBattleStreak.ts&#45;&gt;src/contexts/GameContext.tsx</title>
<path fill="none" stroke="#000000" stroke-width="2" stroke-opacity="0.200000" d="M367.32,-587.6C378.4,-585.27 389.2,-580.65 396.5,-572 408.91,-557.29 392.42,-413.98 404.5,-399 407.25,-395.59 410.63,-392.86 414.38,-390.68"/>
<polygon fill="#000000" fill-opacity="0.200000" stroke="#000000" stroke-width="2" stroke-opacity="0.200000" points="415.19,-392.62 419.76,-388.2 413.43,-388.81 415.19,-392.62"/>
</g>
<!-- src/contexts/AuthContext.tsx -->
<g id="node24" class="node">
<title>src/contexts/AuthContext.tsx</title>
<g id="a_node24"><a xlink:href="src/contexts/AuthContext.tsx" xlink:title="AuthContext.tsx">
<path fill="#bbfeff" stroke="black" d="M499.58,-454.25C499.58,-454.25 432.17,-454.25 432.17,-454.25 429.08,-454.25 426,-451.17 426,-448.08 426,-448.08 426,-441.92 426,-441.92 426,-438.83 429.08,-435.75 432.17,-435.75 432.17,-435.75 499.58,-435.75 499.58,-435.75 502.67,-435.75 505.75,-438.83 505.75,-441.92 505.75,-441.92 505.75,-448.08 505.75,-448.08 505.75,-451.17 502.67,-454.25 499.58,-454.25"/>
<text text-anchor="start" x="434" y="-441.7" font-family="Helvetica,sans-Serif" font-size="9.00">AuthContext.tsx</text>
</a>
</g>
</g>
<!-- src/hooks/useBattleStreak.ts&#45;&gt;src/contexts/AuthContext.tsx -->
<g id="edge51" class="edge">
<title>src/hooks/useBattleStreak.ts&#45;&gt;src/contexts/AuthContext.tsx</title>
<path fill="none" stroke="#000000" stroke-width="2" stroke-opacity="0.200000" d="M367.49,-586.46C378.17,-584.06 388.73,-579.69 396.5,-572 407.84,-560.77 398.25,-551.68 404.5,-537 416.69,-508.4 437.78,-478.98 451.53,-461.34"/>
<polygon fill="#000000" fill-opacity="0.200000" stroke="#000000" stroke-width="2" stroke-opacity="0.200000" points="452.96,-462.92 455.04,-456.91 449.67,-460.31 452.96,-462.92"/>
</g>
<!-- src/services/rewardService.ts -->
<g id="node33" class="node">
<title>src/services/rewardService.ts</title>
<g id="a_node33"><a xlink:href="src/services/rewardService.ts" xlink:title="rewardService.ts">
<path fill="#ddfeff" stroke="black" d="M501.83,-689.25C501.83,-689.25 429.92,-689.25 429.92,-689.25 426.83,-689.25 423.75,-686.17 423.75,-683.08 423.75,-683.08 423.75,-676.92 423.75,-676.92 423.75,-673.83 426.83,-670.75 429.92,-670.75 429.92,-670.75 501.83,-670.75 501.83,-670.75 504.92,-670.75 508,-673.83 508,-676.92 508,-676.92 508,-683.08 508,-683.08 508,-686.17 504.92,-689.25 501.83,-689.25"/>
<text text-anchor="start" x="431.75" y="-676.7" font-family="Helvetica,sans-Serif" font-size="9.00">rewardService.ts</text>
</a>
</g>
</g>
<!-- src/hooks/useBattleStreak.ts&#45;&gt;src/services/rewardService.ts -->
<g id="edge53" class="edge">
<title>src/hooks/useBattleStreak.ts&#45;&gt;src/services/rewardService.ts</title>
<path fill="none" stroke="#000000" stroke-width="2" stroke-opacity="0.200000" d="M367.14,-588.97C378.08,-591.33 388.86,-595.82 396.5,-604 413.06,-621.73 389.16,-639.2 404.5,-658 407.58,-661.78 411.38,-664.91 415.55,-667.51"/>
<polygon fill="#000000" fill-opacity="0.200000" stroke="#000000" stroke-width="2" stroke-opacity="0.200000" points="414.42,-669.29 420.71,-670.21 416.37,-665.57 414.42,-669.29"/>
</g>
<!-- src/components/Battle/QuestionDisplay.tsx -->
<g id="node9" class="node">
<title>src/components/Battle/QuestionDisplay.tsx</title>
<g id="a_node9"><a xlink:href="src/components/Battle/QuestionDisplay.tsx" xlink:title="QuestionDisplay.tsx">
<path fill="#bbfeff" stroke="black" d="M235.83,-329.25C235.83,-329.25 151.92,-329.25 151.92,-329.25 148.83,-329.25 145.75,-326.17 145.75,-323.08 145.75,-323.08 145.75,-316.92 145.75,-316.92 145.75,-313.83 148.83,-310.75 151.92,-310.75 151.92,-310.75 235.83,-310.75 235.83,-310.75 238.92,-310.75 242,-313.83 242,-316.92 242,-316.92 242,-323.08 242,-323.08 242,-326.17 238.92,-329.25 235.83,-329.25"/>
<text text-anchor="start" x="153.75" y="-316.7" font-family="Helvetica,sans-Serif" font-size="9.00">QuestionDisplay.tsx</text>
</a>
</g>
</g>
<!-- src/components/Battle/QuestionDisplay.tsx&#45;&gt;src/contexts/GameContext.tsx -->
<g id="edge8" class="edge">
<title>src/components/Battle/QuestionDisplay.tsx&#45;&gt;src/contexts/GameContext.tsx</title>
<path fill="none" stroke="#000000" stroke-width="2" stroke-opacity="0.200000" d="M242.22,-327.43C246.42,-329.63 250.25,-332.44 253.38,-336 276.43,-362.31 237.64,-390.99 264,-414 286.18,-433.36 371.25,-429.15 396.5,-414 402.98,-410.11 398.58,-403.69 404.5,-399 407.6,-396.55 411.03,-394.47 414.65,-392.71"/>
<polygon fill="#000000" fill-opacity="0.200000" stroke="#000000" stroke-width="2" stroke-opacity="0.200000" points="415.26,-394.73 420,-390.49 413.66,-390.85 415.26,-394.73"/>
</g>
<!-- src/components/Battle/ScoreDisplay.tsx -->
<g id="node10" class="node">
<title>src/components/Battle/ScoreDisplay.tsx</title>
<g id="a_node10"><a xlink:href="src/components/Battle/ScoreDisplay.tsx" xlink:title="ScoreDisplay.tsx">
<path fill="#bbfeff" stroke="black" d="M229.46,-236.25C229.46,-236.25 158.29,-236.25 158.29,-236.25 155.21,-236.25 152.12,-233.17 152.12,-230.08 152.12,-230.08 152.12,-223.92 152.12,-223.92 152.12,-220.83 155.21,-217.75 158.29,-217.75 158.29,-217.75 229.46,-217.75 229.46,-217.75 232.54,-217.75 235.62,-220.83 235.62,-223.92 235.62,-223.92 235.62,-230.08 235.62,-230.08 235.62,-233.17 232.54,-236.25 229.46,-236.25"/>
<text text-anchor="start" x="160.12" y="-223.7" font-family="Helvetica,sans-Serif" font-size="9.00">ScoreDisplay.tsx</text>
</a>
</g>
</g>
<!-- src/components/Battle/index.ts -->
<g id="node11" class="node">
<title>src/components/Battle/index.ts</title>
<g id="a_node11"><a xlink:href="src/components/Battle/index.ts" xlink:title="index.ts">
<path fill="#ddfeff" stroke="black" d="M97.21,-298.25C97.21,-298.25 55.54,-298.25 55.54,-298.25 52.46,-298.25 49.38,-295.17 49.38,-292.08 49.38,-292.08 49.38,-285.92 49.38,-285.92 49.38,-282.83 52.46,-279.75 55.54,-279.75 55.54,-279.75 97.21,-279.75 97.21,-279.75 100.29,-279.75 103.38,-282.83 103.38,-285.92 103.38,-285.92 103.38,-292.08 103.38,-292.08 103.38,-295.17 100.29,-298.25 97.21,-298.25"/>
<text text-anchor="start" x="60.62" y="-285.7" font-family="Helvetica,sans-Serif" font-size="9.00">index.ts</text>
</a>
</g>
</g>
<!-- src/components/Battle/index.ts&#45;&gt;src/components/Battle/BattleMode.tsx -->
<g id="edge9" class="edge">
<title>src/components/Battle/index.ts&#45;&gt;src/components/Battle/BattleMode.tsx</title>
<path fill="none" stroke="#000000" stroke-width="2" stroke-opacity="0.200000" d="M103.61,-290.21C112.65,-291.91 122.15,-295.33 128.75,-302 139.37,-312.72 126.29,-324.12 136.75,-335 140.23,-338.62 144.45,-341.43 149.02,-343.62"/>
<polygon fill="#000000" fill-opacity="0.200000" stroke="#000000" stroke-width="2" stroke-opacity="0.200000" points="153.68,-347.8 148.93,-343.59 155.28,-343.92 153.68,-347.8"/>
</g>
<!-- src/components/Battle/index.ts&#45;&gt;src/components/Battle/BattleResults.tsx -->
<g id="edge10" class="edge">
<title>src/components/Battle/index.ts&#45;&gt;src/components/Battle/BattleResults.tsx</title>
<path fill="none" stroke="#000000" stroke-width="2" stroke-opacity="0.200000" d="M103.87,-281.89C117.63,-278.2 134.76,-273.6 150.32,-269.42"/>
<polygon fill="#000000" fill-opacity="0.200000" stroke="#000000" stroke-width="2" stroke-opacity="0.200000" points="156.45,-269.95 150.11,-269.48 155.36,-265.89 156.45,-269.95"/>
</g>
<!-- src/components/Battle/index.ts&#45;&gt;src/components/Battle/BattleStateTransition.tsx -->
<g id="edge11" class="edge">
<title>src/components/Battle/index.ts&#45;&gt;src/components/Battle/BattleStateTransition.tsx</title>
<path fill="none" stroke="#000000" stroke-width="2" stroke-opacity="0.200000" d="M103.87,-289C111.62,-289 120.44,-289 129.45,-289"/>
<polygon fill="#000000" fill-opacity="0.200000" stroke="#000000" stroke-width="2" stroke-opacity="0.200000" points="135.36,-291.1 129.36,-289 135.36,-286.9 135.36,-291.1"/>
</g>
<!-- src/components/Battle/index.ts&#45;&gt;src/components/Battle/QuestionDisplay.tsx -->
<g id="edge12" class="edge">
<title>src/components/Battle/index.ts&#45;&gt;src/components/Battle/QuestionDisplay.tsx</title>
<path fill="none" stroke="#000000" stroke-width="2" stroke-opacity="0.200000" d="M103.81,-295.55C111.83,-297.57 120.66,-299.84 128.75,-302 136.43,-304.05 144.61,-306.3 152.47,-308.49"/>
<polygon fill="#000000" fill-opacity="0.200000" stroke="#000000" stroke-width="2" stroke-opacity="0.200000" points="157.45,-312.06 152.23,-308.42 158.58,-308.02 157.45,-312.06"/>
</g>
<!-- src/components/Battle/index.ts&#45;&gt;src/components/Battle/ScoreDisplay.tsx -->
<g id="edge13" class="edge">
<title>src/components/Battle/index.ts&#45;&gt;src/components/Battle/ScoreDisplay.tsx</title>
<path fill="none" stroke="#000000" stroke-width="2" stroke-opacity="0.200000" d="M87.07,-279.56C98.2,-269.21 117.44,-252.77 136.75,-243 139.59,-241.56 142.59,-240.23 145.65,-239.01"/>
<polygon fill="#000000" fill-opacity="0.200000" stroke="#000000" stroke-width="2" stroke-opacity="0.200000" points="151.8,-238.97 145.45,-239.09 150.34,-235.03 151.8,-238.97"/>
</g>
<!-- src/components/LevelSystem/LevelProgress.tsx -->
<g id="node12" class="node">
<title>src/components/LevelSystem/LevelProgress.tsx</title>
<g id="a_node12"><a xlink:href="src/components/LevelSystem/LevelProgress.tsx" xlink:title="LevelProgress.tsx">
<path fill="#bbfeff" stroke="black" d="M114.58,-478.25C114.58,-478.25 38.17,-478.25 38.17,-478.25 35.08,-478.25 32,-475.17 32,-472.08 32,-472.08 32,-465.92 32,-465.92 32,-462.83 35.08,-459.75 38.17,-459.75 38.17,-459.75 114.58,-459.75 114.58,-459.75 117.67,-459.75 120.75,-462.83 120.75,-465.92 120.75,-465.92 120.75,-472.08 120.75,-472.08 120.75,-475.17 117.67,-478.25 114.58,-478.25"/>
<text text-anchor="start" x="40" y="-465.7" font-family="Helvetica,sans-Serif" font-size="9.00">LevelProgress.tsx</text>
</a>
</g>
</g>
<!-- src/components/LevelSystem/LevelProgress.tsx&#45;&gt;src/contexts/GameContext.tsx -->
<g id="edge14" class="edge">
<title>src/components/LevelSystem/LevelProgress.tsx&#45;&gt;src/contexts/GameContext.tsx</title>
<path fill="none" stroke="#000000" stroke-width="2" stroke-opacity="0.200000" d="M121.04,-474.73C198.89,-483.88 357.18,-497.42 396.5,-462 417.47,-443.11 385.91,-420.24 404.5,-399 407.34,-395.75 410.76,-393.13 414.5,-391.01"/>
<polygon fill="#000000" fill-opacity="0.200000" stroke="#000000" stroke-width="2" stroke-opacity="0.200000" points="415.22,-393 419.81,-388.6 413.48,-389.17 415.22,-393"/>
</g>
<!-- src/hooks/useLevelSystem.ts -->
<g id="node13" class="node">
<title>src/hooks/useLevelSystem.ts</title>
<g id="a_node13"><a xlink:href="src/hooks/useLevelSystem.ts" xlink:title="useLevelSystem.ts">
<path fill="#ddfeff" stroke="black" d="M362.33,-566.25C362.33,-566.25 282.17,-566.25 282.17,-566.25 279.08,-566.25 276,-563.17 276,-560.08 276,-560.08 276,-553.92 276,-553.92 276,-550.83 279.08,-547.75 282.17,-547.75 282.17,-547.75 362.33,-547.75 362.33,-547.75 365.42,-547.75 368.5,-550.83 368.5,-553.92 368.5,-553.92 368.5,-560.08 368.5,-560.08 368.5,-563.17 365.42,-566.25 362.33,-566.25"/>
<text text-anchor="start" x="284" y="-553.7" font-family="Helvetica,sans-Serif" font-size="9.00">useLevelSystem.ts</text>
</a>
</g>
</g>
<!-- src/components/LevelSystem/LevelProgress.tsx&#45;&gt;src/hooks/useLevelSystem.ts -->
<g id="edge15" class="edge">
<title>src/components/LevelSystem/LevelProgress.tsx&#45;&gt;src/hooks/useLevelSystem.ts</title>
<path fill="none" stroke="#000000" stroke-width="2" stroke-opacity="0.200000" d="M103.94,-478.59C148.08,-494.51 236.54,-526.43 285.9,-544.24"/>
<polygon fill="#000000" fill-opacity="0.200000" stroke="#000000" stroke-width="2" stroke-opacity="0.200000" points="285.14,-546.2 291.5,-546.27 286.57,-542.25 285.14,-546.2"/>
</g>
<!-- src/hooks/useLevelSystem.ts&#45;&gt;src/contexts/GameContext.tsx -->
<g id="edge54" class="edge">
<title>src/hooks/useLevelSystem.ts&#45;&gt;src/contexts/GameContext.tsx</title>
<path fill="none" stroke="#000000" stroke-width="2" stroke-opacity="0.200000" d="M335.08,-547.33C351.97,-532.76 382.49,-503.4 396.5,-471 402.89,-456.22 393.99,-411.2 404.5,-399 407.36,-395.68 410.82,-393.01 414.61,-390.87"/>
<polygon fill="#000000" fill-opacity="0.200000" stroke="#000000" stroke-width="2" stroke-opacity="0.200000" points="415.44,-392.8 420.04,-388.42 413.71,-388.98 415.44,-392.8"/>
</g>
<!-- src/hooks/useLevelSystem.ts&#45;&gt;src/lib/levelSystem.ts -->
<g id="edge57" class="edge">
<title>src/hooks/useLevelSystem.ts&#45;&gt;src/lib/levelSystem.ts</title>
<path fill="none" stroke="#000000" stroke-width="2" stroke-opacity="0.200000" d="M355.12,-547.29C430.76,-523.93 616.02,-464.81 632.88,-441 648.29,-419.22 624.68,-222.21 640.88,-201 642.91,-198.34 645.37,-196.11 648.12,-194.24"/>
<polygon fill="#000000" fill-opacity="0.200000" stroke="#000000" stroke-width="2" stroke-opacity="0.200000" points="648.92,-196.19 653.23,-191.52 646.95,-192.48 648.92,-196.19"/>
</g>
<!-- src/contexts/LanguageContext.tsx -->
<g id="node15" class="node">
<title>src/contexts/LanguageContext.tsx</title>
<g id="a_node15"><a xlink:href="src/contexts/LanguageContext.tsx" xlink:title="LanguageContext.tsx">
<path fill="#bbfeff" stroke="black" d="M511.21,-361.25C511.21,-361.25 420.54,-361.25 420.54,-361.25 417.46,-361.25 414.38,-358.17 414.38,-355.08 414.38,-355.08 414.38,-348.92 414.38,-348.92 414.38,-345.83 417.46,-342.75 420.54,-342.75 420.54,-342.75 511.21,-342.75 511.21,-342.75 514.29,-342.75 517.38,-345.83 517.38,-348.92 517.38,-348.92 517.38,-355.08 517.38,-355.08 517.38,-358.17 514.29,-361.25 511.21,-361.25"/>
<text text-anchor="start" x="422.38" y="-348.7" font-family="Helvetica,sans-Serif" font-size="9.00">LanguageContext.tsx</text>
</a>
</g>
</g>
<!-- src/hooks/useLevelSystem.ts&#45;&gt;src/contexts/LanguageContext.tsx -->
<g id="edge55" class="edge">
<title>src/hooks/useLevelSystem.ts&#45;&gt;src/contexts/LanguageContext.tsx</title>
<path fill="none" stroke="#000000" stroke-width="2" stroke-opacity="0.200000" d="M328.55,-547.36C341.65,-523.19 375.99,-457.83 396.5,-400 401.4,-386.18 394.21,-378.44 404.5,-368 405.2,-367.29 405.94,-366.6 406.69,-365.95"/>
<polygon fill="#000000" fill-opacity="0.200000" stroke="#000000" stroke-width="2" stroke-opacity="0.200000" points="407.87,-367.68 411.61,-362.54 405.49,-364.23 407.87,-367.68"/>
</g>
<!-- src/contexts/NotificationContext.tsx -->
<g id="node25" class="node">
<title>src/contexts/NotificationContext.tsx</title>
<g id="a_node25"><a xlink:href="src/contexts/NotificationContext.tsx" xlink:title="NotificationContext.tsx">
<path fill="#bbfeff" stroke="black" d="M513.08,-423.25C513.08,-423.25 418.67,-423.25 418.67,-423.25 415.58,-423.25 412.5,-420.17 412.5,-417.08 412.5,-417.08 412.5,-410.92 412.5,-410.92 412.5,-407.83 415.58,-404.75 418.67,-404.75 418.67,-404.75 513.08,-404.75 513.08,-404.75 516.17,-404.75 519.25,-407.83 519.25,-410.92 519.25,-410.92 519.25,-417.08 519.25,-417.08 519.25,-420.17 516.17,-423.25 513.08,-423.25"/>
<text text-anchor="start" x="420.5" y="-410.7" font-family="Helvetica,sans-Serif" font-size="9.00">NotificationContext.tsx</text>
</a>
</g>
</g>
<!-- src/hooks/useLevelSystem.ts&#45;&gt;src/contexts/NotificationContext.tsx -->
<g id="edge56" class="edge">
<title>src/hooks/useLevelSystem.ts&#45;&gt;src/contexts/NotificationContext.tsx</title>
<path fill="none" stroke="#000000" stroke-width="2" stroke-opacity="0.200000" d="M334.46,-547.41C350.85,-532.73 381.09,-502.98 396.5,-471 404.56,-454.28 391.81,-443.56 404.5,-430 404.79,-429.69 405.08,-429.39 405.38,-429.1"/>
<polygon fill="#000000" fill-opacity="0.200000" stroke="#000000" stroke-width="2" stroke-opacity="0.200000" points="406.48,-430.9 409.89,-425.54 403.88,-427.61 406.48,-430.9"/>
</g>
<!-- src/components/LootBox.tsx -->
<g id="node14" class="node">
<title>src/components/LootBox.tsx</title>
<g id="a_node14"><a xlink:href="src/components/LootBox.tsx" xlink:title="LootBox.tsx">
<path fill="#bbfeff" stroke="black" d="M347.71,-202.25C347.71,-202.25 296.79,-202.25 296.79,-202.25 293.71,-202.25 290.62,-199.17 290.62,-196.08 290.62,-196.08 290.62,-189.92 290.62,-189.92 290.62,-186.83 293.71,-183.75 296.79,-183.75 296.79,-183.75 347.71,-183.75 347.71,-183.75 350.79,-183.75 353.88,-186.83 353.88,-189.92 353.88,-189.92 353.88,-196.08 353.88,-196.08 353.88,-199.17 350.79,-202.25 347.71,-202.25"/>
<text text-anchor="start" x="298.62" y="-189.7" font-family="Helvetica,sans-Serif" font-size="9.00">LootBox.tsx</text>
</a>
</g>
</g>
<!-- src/components/LootBox.tsx&#45;&gt;src/contexts/GameContext.tsx -->
<g id="edge16" class="edge">
<title>src/components/LootBox.tsx&#45;&gt;src/contexts/GameContext.tsx</title>
<path fill="none" stroke="#000000" stroke-width="2" stroke-opacity="0.200000" d="M354.3,-190.71C369.29,-191.41 386.22,-195.18 396.5,-207 419.87,-233.86 382.09,-339.34 404.5,-367 407.26,-370.4 410.64,-373.13 414.4,-375.31"/>
<polygon fill="#000000" fill-opacity="0.200000" stroke="#000000" stroke-width="2" stroke-opacity="0.200000" points="413.45,-377.18 419.78,-377.79 415.21,-373.37 413.45,-377.18"/>
</g>
<!-- src/components/LootBox.tsx&#45;&gt;src/contexts/LanguageContext.tsx -->
<g id="edge17" class="edge">
<title>src/components/LootBox.tsx&#45;&gt;src/contexts/LanguageContext.tsx</title>
<path fill="none" stroke="#000000" stroke-width="2" stroke-opacity="0.200000" d="M354.24,-190.76C369.22,-191.47 386.15,-195.24 396.5,-207 415.76,-228.9 385.67,-315.73 404.5,-338 405.26,-338.9 406.07,-339.75 406.92,-340.55"/>
<polygon fill="#000000" fill-opacity="0.200000" stroke="#000000" stroke-width="2" stroke-opacity="0.200000" points="405.58,-342.18 411.67,-344 408.05,-338.78 405.58,-342.18"/>
</g>
<!-- src/components/RewardSystem/LevelSystem.tsx -->
<g id="node16" class="node">
<title>src/components/RewardSystem/LevelSystem.tsx</title>
<g id="a_node16"><a xlink:href="src/components/RewardSystem/LevelSystem.tsx" xlink:title="LevelSystem.tsx">
<path fill="#bbfeff" stroke="black" d="M228.71,-175.25C228.71,-175.25 159.04,-175.25 159.04,-175.25 155.96,-175.25 152.88,-172.17 152.88,-169.08 152.88,-169.08 152.88,-162.92 152.88,-162.92 152.88,-159.83 155.96,-156.75 159.04,-156.75 159.04,-156.75 228.71,-156.75 228.71,-156.75 231.79,-156.75 234.88,-159.83 234.88,-162.92 234.88,-162.92 234.88,-169.08 234.88,-169.08 234.88,-172.17 231.79,-175.25 228.71,-175.25"/>
<text text-anchor="start" x="160.88" y="-162.7" font-family="Helvetica,sans-Serif" font-size="9.00">LevelSystem.tsx</text>
</a>
</g>
</g>
<!-- src/components/RewardSystem/LevelSystem.tsx&#45;&gt;src/contexts/GameContext.tsx -->
<g id="edge18" class="edge">
<title>src/components/RewardSystem/LevelSystem.tsx&#45;&gt;src/contexts/GameContext.tsx</title>
<path fill="none" stroke="#000000" stroke-width="2" stroke-opacity="0.200000" d="M217.45,-175.62C230.35,-182.39 245.48,-192.8 253.38,-207 263.86,-225.87 248.32,-386.16 264,-401 285.38,-421.24 367.3,-404.78 396.5,-401 397.24,-400.9 407.34,-398.27 419.55,-395.05"/>
<polygon fill="#000000" fill-opacity="0.200000" stroke="#000000" stroke-width="2" stroke-opacity="0.200000" points="420.07,-397.08 425.33,-393.52 419,-393.02 420.07,-397.08"/>
</g>
<!-- src/components/RewardSystem/LevelSystem.tsx&#45;&gt;src/lib/levelSystem.ts -->
<g id="edge20" class="edge">
<title>src/components/RewardSystem/LevelSystem.tsx&#45;&gt;src/lib/levelSystem.ts</title>
<path fill="none" stroke="#000000" stroke-width="2" stroke-opacity="0.200000" d="M235.3,-160.88C242.01,-158.47 248.39,-154.99 253.38,-150 266.07,-137.29 249.72,-121.91 264,-111 329.14,-61.23 558.91,-75.66 632.88,-111 657.2,-122.62 674.8,-149.52 684.36,-167.48"/>
<polygon fill="#000000" fill-opacity="0.200000" stroke="#000000" stroke-width="2" stroke-opacity="0.200000" points="682.46,-168.37 687.04,-172.78 686.2,-166.47 682.46,-168.37"/>
</g>
<!-- src/components/RewardSystem/LevelSystem.tsx&#45;&gt;src/contexts/LanguageContext.tsx -->
<g id="edge19" class="edge">
<title>src/components/RewardSystem/LevelSystem.tsx&#45;&gt;src/contexts/LanguageContext.tsx</title>
<path fill="none" stroke="#000000" stroke-width="2" stroke-opacity="0.200000" d="M217.44,-175.63C230.33,-182.41 245.46,-192.81 253.38,-207 263.3,-224.79 249.19,-376.02 264,-390 285.42,-410.21 372.38,-406.89 396.5,-390 405.02,-384.03 396.82,-375.02 404.5,-368 405.22,-367.34 405.96,-366.71 406.73,-366.1"/>
<polygon fill="#000000" fill-opacity="0.200000" stroke="#000000" stroke-width="2" stroke-opacity="0.200000" points="407.7,-367.98 411.59,-362.95 405.41,-364.45 407.7,-367.98"/>
</g>
<!-- src/components/RewardSystem/PremiumRewards.tsx -->
<g id="node17" class="node">
<title>src/components/RewardSystem/PremiumRewards.tsx</title>
<g id="a_node17"><a xlink:href="src/components/RewardSystem/PremiumRewards.tsx" xlink:title="PremiumRewards.tsx">
<path fill="#bbfeff" stroke="black" d="M239.21,-144.25C239.21,-144.25 148.54,-144.25 148.54,-144.25 145.46,-144.25 142.38,-141.17 142.38,-138.08 142.38,-138.08 142.38,-131.92 142.38,-131.92 142.38,-128.83 145.46,-125.75 148.54,-125.75 148.54,-125.75 239.21,-125.75 239.21,-125.75 242.29,-125.75 245.38,-128.83 245.38,-131.92 245.38,-131.92 245.38,-138.08 245.38,-138.08 245.38,-141.17 242.29,-144.25 239.21,-144.25"/>
<text text-anchor="start" x="150.38" y="-131.7" font-family="Helvetica,sans-Serif" font-size="9.00">PremiumRewards.tsx</text>
</a>
</g>
</g>
<!-- src/components/RewardSystem/PremiumRewards.tsx&#45;&gt;src/contexts/GameContext.tsx -->
<g id="edge21" class="edge">
<title>src/components/RewardSystem/PremiumRewards.tsx&#45;&gt;src/contexts/GameContext.tsx</title>
<path fill="none" stroke="#000000" stroke-width="2" stroke-opacity="0.200000" d="M245.83,-136.6C303.84,-138.67 391.3,-142.65 396.5,-148 413.48,-165.46 389.3,-347.98 404.5,-367 407.35,-370.56 410.89,-373.39 414.81,-375.62"/>
<polygon fill="#000000" fill-opacity="0.200000" stroke="#000000" stroke-width="2" stroke-opacity="0.200000" points="413.68,-377.41 420.01,-377.97 415.41,-373.58 413.68,-377.41"/>
</g>
<!-- src/components/RewardSystem/PremiumRewards.tsx&#45;&gt;src/components/LootBox.tsx -->
<g id="edge24" class="edge">
<title>src/components/RewardSystem/PremiumRewards.tsx&#45;&gt;src/components/LootBox.tsx</title>
<path fill="none" stroke="#000000" stroke-width="2" stroke-opacity="0.200000" d="M236.3,-144.73C242.13,-146.56 247.97,-148.65 253.38,-151 270.26,-158.35 287.91,-169.39 300.98,-178.31"/>
<polygon fill="#000000" fill-opacity="0.200000" stroke="#000000" stroke-width="2" stroke-opacity="0.200000" points="299.49,-179.83 305.62,-181.54 301.89,-176.39 299.49,-179.83"/>
</g>
<!-- src/components/RewardSystem/PremiumRewards.tsx&#45;&gt;src/contexts/LanguageContext.tsx -->
<g id="edge22" class="edge">
<title>src/components/RewardSystem/PremiumRewards.tsx&#45;&gt;src/contexts/LanguageContext.tsx</title>
<path fill="none" stroke="#000000" stroke-width="2" stroke-opacity="0.200000" d="M245.85,-128.44C298.54,-122.94 375.93,-118.85 396.5,-139 412.31,-154.49 390.39,-320.96 404.5,-338 405.25,-338.91 406.05,-339.77 406.89,-340.57"/>
<polygon fill="#000000" fill-opacity="0.200000" stroke="#000000" stroke-width="2" stroke-opacity="0.200000" points="405.53,-342.18 411.61,-344.05 408.02,-338.8 405.53,-342.18"/>
</g>
<!-- src/lib/supabaseClient.ts -->
<g id="node18" class="node">
<title>src/lib/supabaseClient.ts</title>
<g id="a_node18"><a xlink:href="src/lib/supabaseClient.ts" xlink:title="supabaseClient.ts">
<path fill="#ddfeff" stroke="black" d="M732.21,-225.25C732.21,-225.25 655.04,-225.25 655.04,-225.25 651.96,-225.25 648.88,-222.17 648.88,-219.08 648.88,-219.08 648.88,-212.92 648.88,-212.92 648.88,-209.83 651.96,-206.75 655.04,-206.75 655.04,-206.75 732.21,-206.75 732.21,-206.75 735.29,-206.75 738.38,-209.83 738.38,-212.92 738.38,-212.92 738.38,-219.08 738.38,-219.08 738.38,-222.17 735.29,-225.25 732.21,-225.25"/>
<text text-anchor="start" x="656.88" y="-212.7" font-family="Helvetica,sans-Serif" font-size="9.00">supabaseClient.ts</text>
</a>
</g>
</g>
<!-- src/components/RewardSystem/PremiumRewards.tsx&#45;&gt;src/lib/supabaseClient.ts -->
<g id="edge23" class="edge">
<title>src/components/RewardSystem/PremiumRewards.tsx&#45;&gt;src/lib/supabaseClient.ts</title>
<path fill="none" stroke="#000000" stroke-width="2" stroke-opacity="0.200000" d="M235.97,-125.27C245.15,-123.5 254.86,-121.92 264,-121 322.6,-115.13 338.33,-111.83 396.5,-121 509.25,-138.77 532.04,-165.59 640.88,-200 644.66,-201.2 648.6,-202.43 652.55,-203.66"/>
<polygon fill="#000000" fill-opacity="0.200000" stroke="#000000" stroke-width="2" stroke-opacity="0.200000" points="651.89,-205.66 658.24,-205.44 653.14,-201.65 651.89,-205.66"/>
</g>
<!-- src/components/RewardSystem/XPSystem.tsx -->
<g id="node19" class="node">
<title>src/components/RewardSystem/XPSystem.tsx</title>
<g id="a_node19"><a xlink:href="src/components/RewardSystem/XPSystem.tsx" xlink:title="XPSystem.tsx">
<path fill="#bbfeff" stroke="black" d="M223.46,-113.25C223.46,-113.25 164.29,-113.25 164.29,-113.25 161.21,-113.25 158.12,-110.17 158.12,-107.08 158.12,-107.08 158.12,-100.92 158.12,-100.92 158.12,-97.83 161.21,-94.75 164.29,-94.75 164.29,-94.75 223.46,-94.75 223.46,-94.75 226.54,-94.75 229.62,-97.83 229.62,-100.92 229.62,-100.92 229.62,-107.08 229.62,-107.08 229.62,-110.17 226.54,-113.25 223.46,-113.25"/>
<text text-anchor="start" x="166.12" y="-100.7" font-family="Helvetica,sans-Serif" font-size="9.00">XPSystem.tsx</text>
</a>
</g>
</g>
<!-- src/components/RewardSystem/XPSystem.tsx&#45;&gt;src/contexts/GameContext.tsx -->
<g id="edge25" class="edge">
<title>src/components/RewardSystem/XPSystem.tsx&#45;&gt;src/contexts/GameContext.tsx</title>
<path fill="none" stroke="#000000" stroke-width="2" stroke-opacity="0.200000" d="M229.88,-97.29C275.73,-90.76 355.14,-87.66 396.5,-134 413.75,-153.33 388.35,-346.74 404.5,-367 407.34,-370.57 410.88,-373.39 414.81,-375.62"/>
<polygon fill="#000000" fill-opacity="0.200000" stroke="#000000" stroke-width="2" stroke-opacity="0.200000" points="413.67,-377.41 420,-377.98 415.4,-373.59 413.67,-377.41"/>
</g>
<!-- src/components/RewardSystem/XPSystem.tsx&#45;&gt;src/lib/levelSystem.ts -->
<g id="edge27" class="edge">
<title>src/components/RewardSystem/XPSystem.tsx&#45;&gt;src/lib/levelSystem.ts</title>
<path fill="none" stroke="#000000" stroke-width="2" stroke-opacity="0.200000" d="M229.83,-97.38C321.41,-80.81 565.87,-41.72 632.88,-83 663.57,-101.91 680.28,-142.9 687.74,-166.76"/>
<polygon fill="#000000" fill-opacity="0.200000" stroke="#000000" stroke-width="2" stroke-opacity="0.200000" points="685.67,-167.2 689.38,-172.36 689.7,-166.01 685.67,-167.2"/>
</g>
<!-- src/components/RewardSystem/XPSystem.tsx&#45;&gt;src/components/LootBox.tsx -->
<g id="edge28" class="edge">
<title>src/components/RewardSystem/XPSystem.tsx&#45;&gt;src/components/LootBox.tsx</title>
<path fill="none" stroke="#000000" stroke-width="2" stroke-opacity="0.200000" d="M229.9,-110.19C237.96,-112.52 246.26,-115.69 253.38,-120 277.25,-134.46 297.99,-159.68 310.06,-176.36"/>
<polygon fill="#000000" fill-opacity="0.200000" stroke="#000000" stroke-width="2" stroke-opacity="0.200000" points="308.07,-177.17 313.24,-180.87 311.5,-174.76 308.07,-177.17"/>
</g>
<!-- src/components/RewardSystem/XPSystem.tsx&#45;&gt;src/contexts/LanguageContext.tsx -->
<g id="edge26" class="edge">
<title>src/components/RewardSystem/XPSystem.tsx&#45;&gt;src/contexts/LanguageContext.tsx</title>
<path fill="none" stroke="#000000" stroke-width="2" stroke-opacity="0.200000" d="M230.01,-98.74C237.91,-96.87 246.1,-94.35 253.38,-91 258.74,-88.52 258.39,-84.87 264,-83 319.85,-64.33 354.21,-42.02 396.5,-83 416.86,-102.73 386.52,-316.09 404.5,-338 405.25,-338.91 406.04,-339.77 406.88,-340.58"/>
<polygon fill="#000000" fill-opacity="0.200000" stroke="#000000" stroke-width="2" stroke-opacity="0.200000" points="405.51,-342.18 411.58,-344.07 408.01,-338.81 405.51,-342.18"/>
</g>
<!-- src/components/RewardSystem/index.ts -->
<g id="node20" class="node">
<title>src/components/RewardSystem/index.ts</title>
<g id="a_node20"><a xlink:href="src/components/RewardSystem/index.ts" xlink:title="index.ts">
<path fill="#ddfeff" stroke="black" d="M97.21,-144.25C97.21,-144.25 55.54,-144.25 55.54,-144.25 52.46,-144.25 49.38,-141.17 49.38,-138.08 49.38,-138.08 49.38,-131.92 49.38,-131.92 49.38,-128.83 52.46,-125.75 55.54,-125.75 55.54,-125.75 97.21,-125.75 97.21,-125.75 100.29,-125.75 103.38,-128.83 103.38,-131.92 103.38,-131.92 103.38,-138.08 103.38,-138.08 103.38,-141.17 100.29,-144.25 97.21,-144.25"/>
<text text-anchor="start" x="60.62" y="-131.7" font-family="Helvetica,sans-Serif" font-size="9.00">index.ts</text>
</a>
</g>
</g>
<!-- src/components/RewardSystem/index.ts&#45;&gt;src/components/RewardSystem/LevelSystem.tsx -->
<g id="edge29" class="edge">
<title>src/components/RewardSystem/index.ts&#45;&gt;src/components/RewardSystem/LevelSystem.tsx</title>
<path fill="none" stroke="#000000" stroke-width="2" stroke-opacity="0.200000" d="M103.87,-142.11C117.63,-145.8 134.76,-150.4 150.32,-154.58"/>
<polygon fill="#000000" fill-opacity="0.200000" stroke="#000000" stroke-width="2" stroke-opacity="0.200000" points="155.36,-158.11 150.11,-154.52 156.45,-154.05 155.36,-158.11"/>
</g>
<!-- src/components/RewardSystem/index.ts&#45;&gt;src/components/RewardSystem/PremiumRewards.tsx -->
<g id="edge30" class="edge">
<title>src/components/RewardSystem/index.ts&#45;&gt;src/components/RewardSystem/PremiumRewards.tsx</title>
<path fill="none" stroke="#000000" stroke-width="2" stroke-opacity="0.200000" d="M103.87,-135C113.16,-135 123.99,-135 134.84,-135"/>
<polygon fill="#000000" fill-opacity="0.200000" stroke="#000000" stroke-width="2" stroke-opacity="0.200000" points="140.95,-137.1 134.95,-135 140.95,-132.9 140.95,-137.1"/>
</g>
<!-- src/components/RewardSystem/index.ts&#45;&gt;src/components/RewardSystem/XPSystem.tsx -->
<g id="edge31" class="edge">
<title>src/components/RewardSystem/index.ts&#45;&gt;src/components/RewardSystem/XPSystem.tsx</title>
<path fill="none" stroke="#000000" stroke-width="2" stroke-opacity="0.200000" d="M103.87,-127.89C117.86,-124.13 135.34,-119.44 151.11,-115.21"/>
<polygon fill="#000000" fill-opacity="0.200000" stroke="#000000" stroke-width="2" stroke-opacity="0.200000" points="157.32,-115.72 150.98,-115.24 156.23,-111.66 157.32,-115.72"/>
</g>
<!-- src/components/UserProgress.tsx -->
<g id="node21" class="node">
<title>src/components/UserProgress.tsx</title>
<g id="a_node21"><a xlink:href="src/components/UserProgress.tsx" xlink:title="UserProgress.tsx">
<path fill="#bbfeff" stroke="black" d="M113.08,-413.25C113.08,-413.25 39.67,-413.25 39.67,-413.25 36.58,-413.25 33.5,-410.17 33.5,-407.08 33.5,-407.08 33.5,-400.92 33.5,-400.92 33.5,-397.83 36.58,-394.75 39.67,-394.75 39.67,-394.75 113.08,-394.75 113.08,-394.75 116.17,-394.75 119.25,-397.83 119.25,-400.92 119.25,-400.92 119.25,-407.08 119.25,-407.08 119.25,-410.17 116.17,-413.25 113.08,-413.25"/>
<text text-anchor="start" x="41.5" y="-400.7" font-family="Helvetica,sans-Serif" font-size="9.00">UserProgress.tsx</text>
</a>
</g>
</g>
<!-- src/components/UserProgress.tsx&#45;&gt;src/contexts/GameContext.tsx -->
<g id="edge32" class="edge">
<title>src/components/UserProgress.tsx&#45;&gt;src/contexts/GameContext.tsx</title>
<path fill="none" stroke="#000000" stroke-width="2" stroke-opacity="0.200000" d="M119.47,-413.08C195.88,-428.53 353.51,-455.38 396.5,-424 405.92,-417.12 396.04,-407.04 404.5,-399 407.45,-396.19 410.84,-393.86 414.47,-391.94"/>
<polygon fill="#000000" fill-opacity="0.200000" stroke="#000000" stroke-width="2" stroke-opacity="0.200000" points="415.3,-393.86 419.96,-389.53 413.62,-390.02 415.3,-393.86"/>
</g>
<!-- src/components/UserProgress.tsx&#45;&gt;src/lib/levelSystem.ts -->
<g id="edge33" class="edge">
<title>src/components/UserProgress.tsx&#45;&gt;src/lib/levelSystem.ts</title>
<path fill="none" stroke="#000000" stroke-width="2" stroke-opacity="0.200000" d="M119.55,-397.68C123.07,-395.71 126.24,-393.2 128.75,-390 149.75,-363.25 115.93,-110.9 136.75,-84 188.96,-16.53 235.93,-31 321.25,-31 321.25,-31 321.25,-31 466.88,-31 541.93,-31 573.2,-16.48 632.88,-62 667.32,-88.27 683.02,-139.59 689.19,-166.9"/>
<polygon fill="#000000" fill-opacity="0.200000" stroke="#000000" stroke-width="2" stroke-opacity="0.200000" points="687.09,-167.07 690.37,-172.51 691.2,-166.21 687.09,-167.07"/>
</g>
<!-- src/components/profile/ProfileCard.tsx -->
<g id="node22" class="node">
<title>src/components/profile/ProfileCard.tsx</title>
<g id="a_node22"><a xlink:href="src/components/profile/ProfileCard.tsx" xlink:title="ProfileCard.tsx">
<path fill="#bbfeff" stroke="black" d="M108.21,-52.25C108.21,-52.25 44.54,-52.25 44.54,-52.25 41.46,-52.25 38.38,-49.17 38.38,-46.08 38.38,-46.08 38.38,-39.92 38.38,-39.92 38.38,-36.83 41.46,-33.75 44.54,-33.75 44.54,-33.75 108.21,-33.75 108.21,-33.75 111.29,-33.75 114.38,-36.83 114.38,-39.92 114.38,-39.92 114.38,-46.08 114.38,-46.08 114.38,-49.17 111.29,-52.25 108.21,-52.25"/>
<text text-anchor="start" x="46.38" y="-39.7" font-family="Helvetica,sans-Serif" font-size="9.00">ProfileCard.tsx</text>
</a>
</g>
</g>
<!-- src/components/profile/ProfileCard.tsx&#45;&gt;src/lib/levelSystem.ts -->
<g id="edge34" class="edge">
<title>src/components/profile/ProfileCard.tsx&#45;&gt;src/lib/levelSystem.ts</title>
<path fill="none" stroke="#000000" stroke-width="2" stroke-opacity="0.200000" d="M99.48,-33.32C110.46,-29 124.06,-24.35 136.75,-22 217.4,-7.03 239.22,-17 321.25,-17 321.25,-17 321.25,-17 466.88,-17 540.79,-17 573.36,16.83 632.88,-27 678.23,-60.39 689.16,-132.6 691.79,-166.6"/>
<polygon fill="#000000" fill-opacity="0.200000" stroke="#000000" stroke-width="2" stroke-opacity="0.200000" points="689.69,-166.6 692.16,-172.45 693.88,-166.33 689.69,-166.6"/>
</g>
<!-- src/contexts/__tests__/battlelogic.test.ts -->
<g id="node26" class="node">
<title>src/contexts/__tests__/battlelogic.test.ts</title>
<g id="a_node26"><a xlink:href="src/contexts/__tests__/battlelogic.test.ts" xlink:title="battlelogic.test.ts">
<path fill="#ddfeff" stroke="black" d="M501.46,-308.25C501.46,-308.25 430.29,-308.25 430.29,-308.25 427.21,-308.25 424.12,-305.17 424.12,-302.08 424.12,-302.08 424.12,-295.92 424.12,-295.92 424.12,-292.83 427.21,-289.75 430.29,-289.75 430.29,-289.75 501.46,-289.75 501.46,-289.75 504.54,-289.75 507.62,-292.83 507.62,-295.92 507.62,-295.92 507.62,-302.08 507.62,-302.08 507.62,-305.17 504.54,-308.25 501.46,-308.25"/>
<text text-anchor="start" x="432.12" y="-295.7" font-family="Helvetica,sans-Serif" font-size="9.00">battlelogic.test.ts</text>
</a>
</g>
</g>
<!-- src/contexts/__tests__/battlelogic.test.ts&#45;&gt;src/config/battleConfig.ts -->
<g id="edge35" class="edge">
<title>src/contexts/__tests__/battlelogic.test.ts&#45;&gt;src/config/battleConfig.ts</title>
<path fill="none" stroke="#000000" stroke-width="2" stroke-opacity="0.200000" d="M507.9,-307.99C512.93,-309.25 517.97,-310.6 522.75,-312 627.96,-342.76 655.82,-354.24 746.38,-416 758.44,-424.23 771.24,-434.49 781.15,-442.81"/>
<polygon fill="#000000" fill-opacity="0.200000" stroke="#000000" stroke-width="2" stroke-opacity="0.200000" points="779.56,-444.22 785.5,-446.5 782.28,-441.02 779.56,-444.22"/>
</g>
<!-- src/contexts/game/battle.ts -->
<g id="node27" class="node">
<title>src/contexts/game/battle.ts</title>
<g id="a_node27"><a xlink:href="src/contexts/game/battle.ts" xlink:title="battle.ts">
<path fill="#ddfeff" stroke="black" d="M599.83,-411.25C599.83,-411.25 558.17,-411.25 558.17,-411.25 555.08,-411.25 552,-408.17 552,-405.08 552,-405.08 552,-398.92 552,-398.92 552,-395.83 555.08,-392.75 558.17,-392.75 558.17,-392.75 599.83,-392.75 599.83,-392.75 602.92,-392.75 606,-395.83 606,-398.92 606,-398.92 606,-405.08 606,-405.08 606,-408.17 602.92,-411.25 599.83,-411.25"/>
<text text-anchor="start" x="563.25" y="-398.7" font-family="Helvetica,sans-Serif" font-size="9.00">battle.ts</text>
</a>
</g>
</g>
<!-- src/contexts/__tests__/battlelogic.test.ts&#45;&gt;src/contexts/game/battle.ts -->
<g id="edge36" class="edge">
<title>src/contexts/__tests__/battlelogic.test.ts&#45;&gt;src/contexts/game/battle.ts</title>
<path fill="none" stroke="#000000" stroke-width="2" stroke-opacity="0.200000" d="M508.01,-302.33C513.61,-304.44 518.79,-307.53 522.75,-312 544.69,-336.76 510.05,-360.19 530.75,-386 534.08,-390.15 538.54,-393.24 543.39,-395.52"/>
<polygon fill="#000000" fill-opacity="0.200000" stroke="#000000" stroke-width="2" stroke-opacity="0.200000" points="542.61,-397.47 548.96,-397.6 544.08,-393.54 542.61,-397.47"/>
</g>
<!-- src/contexts/game/battle.ts&#45;&gt;src/config/battleConfig.ts -->
<g id="edge37" class="edge">
<title>src/contexts/game/battle.ts&#45;&gt;src/config/battleConfig.ts</title>
<path fill="none" stroke="#000000" stroke-width="2" stroke-opacity="0.200000" d="M606.37,-408.75C642.78,-418.08 708.99,-435.04 753.39,-446.41"/>
<polygon fill="#000000" fill-opacity="0.200000" stroke="#000000" stroke-width="2" stroke-opacity="0.200000" points="752.69,-448.4 759.03,-447.86 753.74,-444.33 752.69,-448.4"/>
</g>
<!-- src/types/battle.ts -->
<g id="node28" class="node">
<title>src/types/battle.ts</title>
<g id="a_node28"><a xlink:href="src/types/battle.ts" xlink:title="battle.ts">
<path fill="#ddfeff" stroke="black" d="M714.46,-689.25C714.46,-689.25 672.79,-689.25 672.79,-689.25 669.71,-689.25 666.62,-686.17 666.62,-683.08 666.62,-683.08 666.62,-676.92 666.62,-676.92 666.62,-673.83 669.71,-670.75 672.79,-670.75 672.79,-670.75 714.46,-670.75 714.46,-670.75 717.54,-670.75 720.62,-673.83 720.62,-676.92 720.62,-676.92 720.62,-683.08 720.62,-683.08 720.62,-686.17 717.54,-689.25 714.46,-689.25"/>
<text text-anchor="start" x="677.88" y="-676.7" font-family="Helvetica,sans-Serif" font-size="9.00">battle.ts</text>
</a>
</g>
</g>
<!-- src/contexts/game/battle.ts&#45;&gt;src/types/battle.ts -->
<g id="edge38" class="edge">
<title>src/contexts/game/battle.ts&#45;&gt;src/types/battle.ts</title>
<path fill="none" stroke="#000000" stroke-width="2" stroke-opacity="0.200000" d="M586.22,-411.55C596.85,-428.18 618.74,-463.76 632.88,-496 658.65,-554.79 679.24,-628.36 688.03,-661.87"/>
<polygon fill="#000000" fill-opacity="0.200000" stroke="#000000" stroke-width="2" stroke-opacity="0.200000" points="685.98,-662.36 689.52,-667.64 690.05,-661.3 685.98,-662.36"/>
</g>
<!-- src/contexts/game/utils.ts -->
<g id="node29" class="node">
<title>src/contexts/game/utils.ts</title>
<g id="a_node29"><a xlink:href="src/contexts/game/utils.ts" xlink:title="utils.ts">
<path fill="#ddfeff" stroke="black" d="M599.83,-380.25C599.83,-380.25 558.17,-380.25 558.17,-380.25 555.08,-380.25 552,-377.17 552,-374.08 552,-374.08 552,-367.92 552,-367.92 552,-364.83 555.08,-361.75 558.17,-361.75 558.17,-361.75 599.83,-361.75 599.83,-361.75 602.92,-361.75 606,-364.83 606,-367.92 606,-367.92 606,-374.08 606,-374.08 606,-377.17 602.92,-380.25 599.83,-380.25"/>
<text text-anchor="start" x="566.25" y="-367.7" font-family="Helvetica,sans-Serif" font-size="9.00">utils.ts</text>
</a>
</g>
</g>
<!-- src/contexts/game/utils.ts&#45;&gt;src/lib/levelSystem.ts -->
<g id="edge39" class="edge">
<title>src/contexts/game/utils.ts&#45;&gt;src/lib/levelSystem.ts</title>
<path fill="none" stroke="#000000" stroke-width="2" stroke-opacity="0.200000" d="M580.55,-361.33C582.72,-332.56 593.08,-246.73 640.88,-201 643.02,-198.95 645.41,-197.17 647.97,-195.61"/>
<polygon fill="#000000" fill-opacity="0.200000" stroke="#000000" stroke-width="2" stroke-opacity="0.200000" points="648.89,-197.49 653.32,-192.94 647.02,-193.74 648.89,-197.49"/>
</g>
<!-- src/hooks/useAchievements.ts -->
<g id="node30" class="node">
<title>src/hooks/useAchievements.ts</title>
<g id="a_node30"><a xlink:href="src/hooks/useAchievements.ts" xlink:title="useAchievements.ts">
<path fill="#ddfeff" stroke="black" d="M508.58,-606.25C508.58,-606.25 423.17,-606.25 423.17,-606.25 420.08,-606.25 417,-603.17 417,-600.08 417,-600.08 417,-593.92 417,-593.92 417,-590.83 420.08,-587.75 423.17,-587.75 423.17,-587.75 508.58,-587.75 508.58,-587.75 511.67,-587.75 514.75,-590.83 514.75,-593.92 514.75,-593.92 514.75,-600.08 514.75,-600.08 514.75,-603.17 511.67,-606.25 508.58,-606.25"/>
<text text-anchor="start" x="425" y="-593.7" font-family="Helvetica,sans-Serif" font-size="9.00">useAchievements.ts</text>
</a>
</g>
</g>
<!-- src/hooks/useAchievements.ts&#45;&gt;src/contexts/GameContext.tsx -->
<g id="edge40" class="edge">
<title>src/hooks/useAchievements.ts&#45;&gt;src/contexts/GameContext.tsx</title>
<path fill="none" stroke="#000000" stroke-width="2" stroke-opacity="0.200000" d="M416.66,-591.89C409.09,-588.45 402.96,-583.14 400.5,-575 397.76,-565.96 397.76,-414.04 400.5,-405 402.72,-397.67 407.91,-392.63 414.45,-389.19"/>
<polygon fill="#000000" fill-opacity="0.200000" stroke="#000000" stroke-width="2" stroke-opacity="0.200000" points="415.09,-391.2 419.85,-386.99 413.5,-387.31 415.09,-391.2"/>
</g>
<!-- src/hooks/useBattle.ts -->
<g id="node31" class="node">
<title>src/hooks/useBattle.ts</title>
<g id="a_node31"><a xlink:href="src/hooks/useBattle.ts" xlink:title="useBattle.ts">
<path fill="#ddfeff" stroke="black" d="M347.71,-628.25C347.71,-628.25 296.79,-628.25 296.79,-628.25 293.71,-628.25 290.62,-625.17 290.62,-622.08 290.62,-622.08 290.62,-615.92 290.62,-615.92 290.62,-612.83 293.71,-609.75 296.79,-609.75 296.79,-609.75 347.71,-609.75 347.71,-609.75 350.79,-609.75 353.88,-612.83 353.88,-615.92 353.88,-615.92 353.88,-622.08 353.88,-622.08 353.88,-625.17 350.79,-628.25 347.71,-628.25"/>
<text text-anchor="start" x="298.62" y="-615.7" font-family="Helvetica,sans-Serif" font-size="9.00">useBattle.ts</text>
</a>
</g>
</g>
<!-- src/hooks/useBattle.ts&#45;&gt;src/contexts/GameContext.tsx -->
<g id="edge43" class="edge">
<title>src/hooks/useBattle.ts&#45;&gt;src/contexts/GameContext.tsx</title>
<path fill="none" stroke="#000000" stroke-width="2" stroke-opacity="0.200000" d="M354.06,-620.44C369.19,-619.38 386.3,-615.17 396.5,-603 411.07,-585.61 390.32,-416.7 404.5,-399 407.35,-395.44 410.89,-392.62 414.82,-390.39"/>
<polygon fill="#000000" fill-opacity="0.200000" stroke="#000000" stroke-width="2" stroke-opacity="0.200000" points="415.42,-392.43 420.02,-388.04 413.69,-388.6 415.42,-392.43"/>
</g>
<!-- src/hooks/useBattle.ts&#45;&gt;src/contexts/LanguageContext.tsx -->
<g id="edge44" class="edge">
<title>src/hooks/useBattle.ts&#45;&gt;src/contexts/LanguageContext.tsx</title>
<path fill="none" stroke="#000000" stroke-width="2" stroke-opacity="0.200000" d="M354.09,-620.46C369.22,-619.4 386.33,-615.2 396.5,-603 413.23,-582.93 388.22,-388.43 404.5,-368 405.24,-367.07 406.03,-366.19 406.86,-365.36"/>
<polygon fill="#000000" fill-opacity="0.200000" stroke="#000000" stroke-width="2" stroke-opacity="0.200000" points="408.1,-367.05 411.56,-361.72 405.53,-363.73 408.1,-367.05"/>
</g>
<!-- src/hooks/useBattle.ts&#45;&gt;src/config/battleConfig.ts -->
<g id="edge41" class="edge">
<title>src/hooks/useBattle.ts&#45;&gt;src/config/battleConfig.ts</title>
<path fill="none" stroke="#000000" stroke-width="2" stroke-opacity="0.200000" d="M354.16,-625.76C422.39,-640.08 583.73,-670.35 632.88,-648 712.9,-611.62 769.37,-515.4 789.99,-475.61"/>
<polygon fill="#000000" fill-opacity="0.200000" stroke="#000000" stroke-width="2" stroke-opacity="0.200000" points="791.85,-476.6 792.69,-470.3 788.1,-474.7 791.85,-476.6"/>
</g>
<!-- src/hooks/useBattle.ts&#45;&gt;src/contexts/AuthContext.tsx -->
<g id="edge42" class="edge">
<title>src/hooks/useBattle.ts&#45;&gt;src/contexts/AuthContext.tsx</title>
<path fill="none" stroke="#000000" stroke-width="2" stroke-opacity="0.200000" d="M354.03,-620.06C368.96,-618.86 385.9,-614.65 396.5,-603 406.44,-592.07 399.42,-550.87 404.5,-537 415.12,-507.96 436.45,-478.86 450.7,-461.39"/>
<polygon fill="#000000" fill-opacity="0.200000" stroke="#000000" stroke-width="2" stroke-opacity="0.200000" points="452.15,-462.92 454.38,-456.97 448.93,-460.23 452.15,-462.92"/>
</g>
<!-- src/hooks/useBattle.ts&#45;&gt;src/contexts/NotificationContext.tsx -->
<g id="edge45" class="edge">
<title>src/hooks/useBattle.ts&#45;&gt;src/contexts/NotificationContext.tsx</title>
<path fill="none" stroke="#000000" stroke-width="2" stroke-opacity="0.200000" d="M354.03,-620.41C369.14,-619.34 386.26,-615.14 396.5,-603 408.91,-588.29 392.42,-444.98 404.5,-430 404.77,-429.66 405.05,-429.33 405.34,-429.01"/>
<polygon fill="#000000" fill-opacity="0.200000" stroke="#000000" stroke-width="2" stroke-opacity="0.200000" points="406.68,-430.63 409.82,-425.1 403.92,-427.46 406.68,-430.63"/>
</g>
<!-- src/hooks/useBattle.ts&#45;&gt;src/hooks/useAchievements.ts -->
<g id="edge49" class="edge">
<title>src/hooks/useBattle.ts&#45;&gt;src/hooks/useAchievements.ts</title>
<path fill="none" stroke="#000000" stroke-width="2" stroke-opacity="0.200000" d="M354.33,-614.17C370,-611.74 389.52,-608.71 407.77,-605.87"/>
<polygon fill="#000000" fill-opacity="0.200000" stroke="#000000" stroke-width="2" stroke-opacity="0.200000" points="408.01,-607.96 413.61,-604.96 407.36,-603.81 408.01,-607.96"/>
</g>
<!-- src/services/battleService.ts -->
<g id="node32" class="node">
<title>src/services/battleService.ts</title>
<g id="a_node32"><a xlink:href="src/services/battleService.ts" xlink:title="battleService.ts">
<path fill="#ddfeff" stroke="black" d="M498.83,-720.25C498.83,-720.25 432.92,-720.25 432.92,-720.25 429.83,-720.25 426.75,-717.17 426.75,-714.08 426.75,-714.08 426.75,-707.92 426.75,-707.92 426.75,-704.83 429.83,-701.75 432.92,-701.75 432.92,-701.75 498.83,-701.75 498.83,-701.75 501.92,-701.75 505,-704.83 505,-707.92 505,-707.92 505,-714.08 505,-714.08 505,-717.17 501.92,-720.25 498.83,-720.25"/>
<text text-anchor="start" x="434.75" y="-707.7" font-family="Helvetica,sans-Serif" font-size="9.00">battleService.ts</text>
</a>
</g>
</g>
<!-- src/hooks/useBattle.ts&#45;&gt;src/services/battleService.ts -->
<g id="edge46" class="edge">
<title>src/hooks/useBattle.ts&#45;&gt;src/services/battleService.ts</title>
<path fill="none" stroke="#000000" stroke-width="2" stroke-opacity="0.200000" d="M330.68,-628.52C343.8,-644.67 372.73,-677.41 404.5,-695 408.71,-697.33 413.27,-699.33 417.94,-701.05"/>
<polygon fill="#000000" fill-opacity="0.200000" stroke="#000000" stroke-width="2" stroke-opacity="0.200000" points="417.18,-703.01 423.54,-702.9 418.5,-699.02 417.18,-703.01"/>
</g>
<!-- src/hooks/useBattle.ts&#45;&gt;src/services/rewardService.ts -->
<g id="edge47" class="edge">
<title>src/hooks/useBattle.ts&#45;&gt;src/services/rewardService.ts</title>
<path fill="none" stroke="#000000" stroke-width="2" stroke-opacity="0.200000" d="M342.05,-628.67C358.37,-636.91 382.72,-648.83 404.5,-658 412.05,-661.18 420.24,-664.34 428.07,-667.24"/>
<polygon fill="#000000" fill-opacity="0.200000" stroke="#000000" stroke-width="2" stroke-opacity="0.200000" points="427.19,-669.16 433.55,-669.24 428.63,-665.21 427.19,-669.16"/>
</g>
<!-- src/utils/battleUtils.ts -->
<g id="node34" class="node">
<title>src/utils/battleUtils.ts</title>
<g id="a_node34"><a xlink:href="src/utils/battleUtils.ts" xlink:title="battleUtils.ts">
<path fill="#ddfeff" stroke="black" d="M605.58,-556.25C605.58,-556.25 552.42,-556.25 552.42,-556.25 549.33,-556.25 546.25,-553.17 546.25,-550.08 546.25,-550.08 546.25,-543.92 546.25,-543.92 546.25,-540.83 549.33,-537.75 552.42,-537.75 552.42,-537.75 605.58,-537.75 605.58,-537.75 608.67,-537.75 611.75,-540.83 611.75,-543.92 611.75,-543.92 611.75,-550.08 611.75,-550.08 611.75,-553.17 608.67,-556.25 605.58,-556.25"/>
<text text-anchor="start" x="554.25" y="-543.7" font-family="Helvetica,sans-Serif" font-size="9.00">battleUtils.ts</text>
</a>
</g>
</g>
<!-- src/hooks/useBattle.ts&#45;&gt;src/utils/battleUtils.ts -->
<g id="edge48" class="edge">
<title>src/hooks/useBattle.ts&#45;&gt;src/utils/battleUtils.ts</title>
<path fill="none" stroke="#000000" stroke-width="2" stroke-opacity="0.200000" d="M354.27,-628.7C397.65,-640.16 476.32,-652.88 522.75,-612 539.31,-597.42 516.48,-579.83 530.75,-563 532.89,-560.47 535.45,-558.34 538.25,-556.55"/>
<polygon fill="#000000" fill-opacity="0.200000" stroke="#000000" stroke-width="2" stroke-opacity="0.200000" points="539.02,-558.51 543.41,-553.92 537.11,-554.77 539.02,-558.51"/>
</g>
<!-- src/hooks/useBattleSound.ts -->
<g id="node35" class="node">
<title>src/hooks/useBattleSound.ts</title>
<g id="a_node35"><a xlink:href="src/hooks/useBattleSound.ts" xlink:title="useBattleSound.ts">
<path fill="#ddfeff" stroke="black" d="M504.83,-575.25C504.83,-575.25 426.92,-575.25 426.92,-575.25 423.83,-575.25 420.75,-572.17 420.75,-569.08 420.75,-569.08 420.75,-562.92 420.75,-562.92 420.75,-559.83 423.83,-556.75 426.92,-556.75 426.92,-556.75 504.83,-556.75 504.83,-556.75 507.92,-556.75 511,-559.83 511,-562.92 511,-562.92 511,-569.08 511,-569.08 511,-572.17 507.92,-575.25 504.83,-575.25"/>
<text text-anchor="start" x="428.75" y="-562.7" font-family="Helvetica,sans-Serif" font-size="9.00">useBattleSound.ts</text>
</a>
</g>
</g>
<!-- src/hooks/useBattle.ts&#45;&gt;src/hooks/useBattleSound.ts -->
<g id="edge50" class="edge">
<title>src/hooks/useBattle.ts&#45;&gt;src/hooks/useBattleSound.ts</title>
<path fill="none" stroke="#000000" stroke-width="2" stroke-opacity="0.200000" d="M354.01,-618.8C368.39,-617.21 384.86,-613.02 396.5,-603 404.07,-596.48 397.08,-588.68 404.5,-582 406.94,-579.8 409.65,-577.9 412.53,-576.26"/>
<polygon fill="#000000" fill-opacity="0.200000" stroke="#000000" stroke-width="2" stroke-opacity="0.200000" points="413.22,-578.25 417.74,-573.78 411.42,-574.46 413.22,-578.25"/>
</g>
<!-- src/services/battleService.ts&#45;&gt;src/lib/supabaseClient.ts -->
<g id="edge61" class="edge">
<title>src/services/battleService.ts&#45;&gt;src/lib/supabaseClient.ts</title>
<path fill="none" stroke="#000000" stroke-width="2" stroke-opacity="0.200000" d="M505.36,-705.02C511.7,-702.69 517.81,-699.46 522.75,-695 529.85,-688.58 523.58,-681.34 530.75,-675 565.91,-643.89 601.75,-683.14 632.88,-648 688.37,-585.35 692.58,-308.74 692.69,-234.43"/>
<polygon fill="#000000" fill-opacity="0.200000" stroke="#000000" stroke-width="2" stroke-opacity="0.200000" points="694.79,-234.71 692.69,-228.71 690.59,-234.71 694.79,-234.71"/>
</g>
<!-- src/services/battleService.ts&#45;&gt;src/config/battleConfig.ts -->
<g id="edge60" class="edge">
<title>src/services/battleService.ts&#45;&gt;src/config/battleConfig.ts</title>
<path fill="none" stroke="#000000" stroke-width="2" stroke-opacity="0.200000" d="M499.86,-720.68C534.59,-730.33 591.03,-744.48 640.88,-750 687.48,-755.16 710.42,-780.09 746.38,-750 788.56,-714.69 796.73,-534.95 798.27,-476.44"/>
<polygon fill="#000000" fill-opacity="0.200000" stroke="#000000" stroke-width="2" stroke-opacity="0.200000" points="800.37,-476.63 798.41,-470.58 796.17,-476.53 800.37,-476.63"/>
</g>
<!-- src/services/battleService.ts&#45;&gt;src/types/battle.ts -->
<g id="edge63" class="edge">
<title>src/services/battleService.ts&#45;&gt;src/types/battle.ts</title>
<path fill="none" stroke="#000000" stroke-width="2" stroke-opacity="0.200000" d="M505.46,-717.87C540.45,-722.24 592.57,-723.98 632.88,-705 637.72,-702.72 636.38,-698.9 640.88,-696 645.98,-692.72 651.79,-690.07 657.64,-687.95"/>
<polygon fill="#000000" fill-opacity="0.200000" stroke="#000000" stroke-width="2" stroke-opacity="0.200000" points="658.2,-689.98 663.26,-686.14 656.91,-685.98 658.2,-689.98"/>
</g>
<!-- src/services/progressService.ts -->
<g id="node37" class="node">
<title>src/services/progressService.ts</title>
<g id="a_node37"><a xlink:href="src/services/progressService.ts" xlink:title="progressService.ts">
<path fill="#ddfeff" stroke="black" d="M618.71,-699.25C618.71,-699.25 539.29,-699.25 539.29,-699.25 536.21,-699.25 533.12,-696.17 533.12,-693.08 533.12,-693.08 533.12,-686.92 533.12,-686.92 533.12,-683.83 536.21,-680.75 539.29,-680.75 539.29,-680.75 618.71,-680.75 618.71,-680.75 621.79,-680.75 624.88,-683.83 624.88,-686.92 624.88,-686.92 624.88,-693.08 624.88,-693.08 624.88,-696.17 621.79,-699.25 618.71,-699.25"/>
<text text-anchor="start" x="541.12" y="-686.7" font-family="Helvetica,sans-Serif" font-size="9.00">progressService.ts</text>
</a>
</g>
</g>
<!-- src/services/battleService.ts&#45;&gt;src/services/progressService.ts -->
<g id="edge62" class="edge">
<title>src/services/battleService.ts&#45;&gt;src/services/progressService.ts</title>
<path fill="none" stroke="#000000" stroke-width="2" stroke-opacity="0.200000" d="M505.43,-703.71C511.46,-702.57 517.79,-701.38 524.09,-700.19"/>
<polygon fill="#000000" fill-opacity="0.200000" stroke="#000000" stroke-width="2" stroke-opacity="0.200000" points="524.16,-702.31 529.66,-699.13 523.38,-698.19 524.16,-702.31"/>
</g>
<!-- src/utils/circuitBreaker.ts -->
<g id="node38" class="node">
<title>src/utils/circuitBreaker.ts</title>
<g id="a_node38"><a xlink:href="src/utils/circuitBreaker.ts" xlink:title="circuitBreaker.ts">
<path fill="#ddfeff" stroke="black" d="M613.08,-587.25C613.08,-587.25 544.92,-587.25 544.92,-587.25 541.83,-587.25 538.75,-584.17 538.75,-581.08 538.75,-581.08 538.75,-574.92 538.75,-574.92 538.75,-571.83 541.83,-568.75 544.92,-568.75 544.92,-568.75 613.08,-568.75 613.08,-568.75 616.17,-568.75 619.25,-571.83 619.25,-574.92 619.25,-574.92 619.25,-581.08 619.25,-581.08 619.25,-584.17 616.17,-587.25 613.08,-587.25"/>
<text text-anchor="start" x="546.75" y="-574.7" font-family="Helvetica,sans-Serif" font-size="9.00">circuitBreaker.ts</text>
</a>
</g>
</g>
<!-- src/services/battleService.ts&#45;&gt;src/utils/circuitBreaker.ts -->
<g id="edge64" class="edge">
<title>src/services/battleService.ts&#45;&gt;src/utils/circuitBreaker.ts</title>
<path fill="none" stroke="#000000" stroke-width="2" stroke-opacity="0.200000" d="M505.42,-706.59C512.07,-704.14 518.28,-700.47 522.75,-695 537,-677.57 516.92,-611.76 530.75,-594 531.02,-593.66 531.29,-593.32 531.57,-593"/>
<polygon fill="#000000" fill-opacity="0.200000" stroke="#000000" stroke-width="2" stroke-opacity="0.200000" points="532.93,-594.6 536.1,-589.09 530.19,-591.42 532.93,-594.6"/>
</g>
<!-- src/utils/logger.ts -->
<g id="node39" class="node">
<title>src/utils/logger.ts</title>
<g id="a_node39"><a xlink:href="src/utils/logger.ts" xlink:title="logger.ts">
<path fill="#ddfeff" stroke="black" d="M599.83,-618.25C599.83,-618.25 558.17,-618.25 558.17,-618.25 555.08,-618.25 552,-615.17 552,-612.08 552,-612.08 552,-605.92 552,-605.92 552,-602.83 555.08,-599.75 558.17,-599.75 558.17,-599.75 599.83,-599.75 599.83,-599.75 602.92,-599.75 606,-602.83 606,-605.92 606,-605.92 606,-612.08 606,-612.08 606,-615.17 602.92,-618.25 599.83,-618.25"/>
<text text-anchor="start" x="561.75" y="-605.7" font-family="Helvetica,sans-Serif" font-size="9.00">logger.ts</text>
</a>
</g>
</g>
<!-- src/services/battleService.ts&#45;&gt;src/utils/logger.ts -->
<g id="edge65" class="edge">
<title>src/services/battleService.ts&#45;&gt;src/utils/logger.ts</title>
<path fill="none" stroke="#000000" stroke-width="2" stroke-opacity="0.200000" d="M505.38,-705.85C511.88,-703.45 518.03,-699.98 522.75,-695 533.72,-683.42 523.3,-674.11 530.75,-660 537.9,-646.47 549.55,-633.84 559.49,-624.53"/>
<polygon fill="#000000" fill-opacity="0.200000" stroke="#000000" stroke-width="2" stroke-opacity="0.200000" points="560.73,-626.25 563.78,-620.67 557.92,-623.12 560.73,-626.25"/>
</g>
<!-- src/utils/battleUtils.ts&#45;&gt;src/config/battleConfig.ts -->
<g id="edge67" class="edge">
<title>src/utils/battleUtils.ts&#45;&gt;src/config/battleConfig.ts</title>
<path fill="none" stroke="#000000" stroke-width="2" stroke-opacity="0.200000" d="M612.08,-537.97C618.99,-535.84 626.22,-533.46 632.88,-531 682.49,-512.64 738.48,-486.89 771.04,-471.38"/>
<polygon fill="#000000" fill-opacity="0.200000" stroke="#000000" stroke-width="2" stroke-opacity="0.200000" points="771.55,-473.46 776.06,-468.98 769.74,-469.67 771.55,-473.46"/>
</g>
<!-- src/scripts/seedQuestions.ts -->
<g id="node36" class="node">
<title>src/scripts/seedQuestions.ts</title>
<g id="a_node36"><a xlink:href="src/scripts/seedQuestions.ts" xlink:title="seedQuestions.ts">
<path fill="#ddfeff" stroke="black" d="M359.33,-720.25C359.33,-720.25 285.17,-720.25 285.17,-720.25 282.08,-720.25 279,-717.17 279,-714.08 279,-714.08 279,-707.92 279,-707.92 279,-704.83 282.08,-701.75 285.17,-701.75 285.17,-701.75 359.33,-701.75 359.33,-701.75 362.42,-701.75 365.5,-704.83 365.5,-707.92 365.5,-707.92 365.5,-714.08 365.5,-714.08 365.5,-717.17 362.42,-720.25 359.33,-720.25"/>
<text text-anchor="start" x="287" y="-707.7" font-family="Helvetica,sans-Serif" font-size="9.00">seedQuestions.ts</text>
</a>
</g>
</g>
<!-- src/scripts/seedQuestions.ts&#45;&gt;src/services/battleService.ts -->
<g id="edge59" class="edge">
<title>src/scripts/seedQuestions.ts&#45;&gt;src/services/battleService.ts</title>
<path fill="none" stroke="#000000" stroke-width="2" stroke-opacity="0.200000" d="M365.74,-711C382.12,-711 400.91,-711 417.7,-711"/>
<polygon fill="#000000" fill-opacity="0.200000" stroke="#000000" stroke-width="2" stroke-opacity="0.200000" points="417.25,-713.1 423.25,-711 417.25,-708.9 417.25,-713.1"/>
</g>
<!-- src/services/statsService.ts -->
<g id="node40" class="node">
<title>src/services/statsService.ts</title>
<g id="a_node40"><a xlink:href="src/services/statsService.ts" xlink:title="statsService.ts">
<path fill="#ddfeff" stroke="black" d="M496.96,-751.25C496.96,-751.25 434.79,-751.25 434.79,-751.25 431.71,-751.25 428.62,-748.17 428.62,-745.08 428.62,-745.08 428.62,-738.92 428.62,-738.92 428.62,-735.83 431.71,-732.75 434.79,-732.75 434.79,-732.75 496.96,-732.75 496.96,-732.75 500.04,-732.75 503.12,-735.83 503.12,-738.92 503.12,-738.92 503.12,-745.08 503.12,-745.08 503.12,-748.17 500.04,-751.25 496.96,-751.25"/>
<text text-anchor="start" x="436.62" y="-738.7" font-family="Helvetica,sans-Serif" font-size="9.00">statsService.ts</text>
</a>
</g>
</g>
<!-- src/services/statsService.ts&#45;&gt;src/lib/supabaseClient.ts -->
<g id="edge66" class="edge">
<title>src/services/statsService.ts&#45;&gt;src/lib/supabaseClient.ts</title>
<path fill="none" stroke="#000000" stroke-width="2" stroke-opacity="0.200000" d="M503.53,-745.01C541.73,-745.94 600.45,-740.76 632.88,-705 636.93,-700.53 680.31,-323.52 690.5,-234.63"/>
<polygon fill="#000000" fill-opacity="0.200000" stroke="#000000" stroke-width="2" stroke-opacity="0.200000" points="692.58,-234.88 691.18,-228.68 688.41,-234.4 692.58,-234.88"/>
</g>
<!-- src/types/user.ts -->
<g id="node41" class="node">
<title>src/types/user.ts</title>
<g id="a_node41"><a xlink:href="src/types/user.ts" xlink:title="user.ts">
<path fill="#ccffcc" stroke="black" d="M714.46,-720.25C714.46,-720.25 672.79,-720.25 672.79,-720.25 669.71,-720.25 666.62,-717.17 666.62,-714.08 666.62,-714.08 666.62,-707.92 666.62,-707.92 666.62,-704.83 669.71,-701.75 672.79,-701.75 672.79,-701.75 714.46,-701.75 714.46,-701.75 717.54,-701.75 720.62,-704.83 720.62,-707.92 720.62,-707.92 720.62,-714.08 720.62,-714.08 720.62,-717.17 717.54,-720.25 714.46,-720.25"/>
<text text-anchor="start" x="680.5" y="-707.7" font-family="Helvetica,sans-Serif" font-size="9.00">user.ts</text>
</a>
</g>
</g>
<!-- src/utils/gameUtils.ts -->
<g id="node42" class="node">
<title>src/utils/gameUtils.ts</title>
<g id="a_node42"><a xlink:href="src/utils/gameUtils.ts" xlink:title="gameUtils.ts">
<path fill="#ddfeff" stroke="black" d="M605.96,-525.25C605.96,-525.25 552.04,-525.25 552.04,-525.25 548.96,-525.25 545.88,-522.17 545.88,-519.08 545.88,-519.08 545.88,-512.92 545.88,-512.92 545.88,-509.83 548.96,-506.75 552.04,-506.75 552.04,-506.75 605.96,-506.75 605.96,-506.75 609.04,-506.75 612.12,-509.83 612.12,-512.92 612.12,-512.92 612.12,-519.08 612.12,-519.08 612.12,-522.17 609.04,-525.25 605.96,-525.25"/>
<text text-anchor="start" x="553.88" y="-512.7" font-family="Helvetica,sans-Serif" font-size="9.00">gameUtils.ts</text>
</a>
</g>
</g>
<!-- src/utils/gameUtils.ts&#45;&gt;src/lib/levelSystem.ts -->
<g id="edge68" class="edge">
<title>src/utils/gameUtils.ts&#45;&gt;src/lib/levelSystem.ts</title>
<path fill="none" stroke="#000000" stroke-width="2" stroke-opacity="0.200000" d="M612.58,-509.1C620.48,-505.84 628.03,-501.05 632.88,-494 651.32,-467.16 621.19,-226.94 640.88,-201 642.9,-198.33 645.36,-196.1 648.1,-194.23"/>
<polygon fill="#000000" fill-opacity="0.200000" stroke="#000000" stroke-width="2" stroke-opacity="0.200000" points="648.9,-196.18 653.21,-191.5 646.93,-192.47 648.9,-196.18"/>
</g>
</g>
</svg>
