<?xml version="1.0" encoding="UTF-8" standalone="no"?>
<!DOCTYPE svg PUBLIC "-//W3C//DTD SVG 1.1//EN"
 "http://www.w3.org/Graphics/SVG/1.1/DTD/svg11.dtd">
<!-- Generated by graphviz version 12.2.1 (20241206.2353)
 -->
<!-- Title: dependency&#45;cruiser output Pages: 1 -->
<svg width="867pt" height="806pt"
 viewBox="0.00 0.00 866.50 806.20" xmlns="http://www.w3.org/2000/svg" xmlns:xlink="http://www.w3.org/1999/xlink">
<g id="graph0" class="graph" transform="scale(1 1) rotate(0) translate(4 802.2)">
<title>dependency&#45;cruiser output</title>
<polygon fill="white" stroke="none" points="-4,4 -4,-802.2 862.5,-802.2 862.5,4 -4,4"/>
<g id="clust1" class="cluster">
<title>cluster_src</title>
<path fill="#ffffff" stroke="black" stroke-width="2" d="M20,-9.2C20,-9.2 838.5,-9.2 838.5,-9.2 844.5,-9.2 850.5,-15.2 850.5,-21.2 850.5,-21.2 850.5,-778.2 850.5,-778.2 850.5,-784.2 844.5,-790.2 838.5,-790.2 838.5,-790.2 20,-790.2 20,-790.2 14,-790.2 8,-784.2 8,-778.2 8,-778.2 8,-21.2 8,-21.2 8,-15.2 14,-9.2 20,-9.2"/>
<text text-anchor="middle" x="429.25" y="-777.65" font-family="Helvetica,sans-Serif" font-weight="bold" font-size="9.00">src</text>
</g>
<g id="clust2" class="cluster">
<title>cluster_src/components</title>
<path fill="#ffffff" stroke="black" stroke-width="2" d="M28,-266.2C28,-266.2 384.5,-266.2 384.5,-266.2 390.5,-266.2 396.5,-272.2 396.5,-278.2 396.5,-278.2 396.5,-732.2 396.5,-732.2 396.5,-738.2 390.5,-744.2 384.5,-744.2 384.5,-744.2 28,-744.2 28,-744.2 22,-744.2 16,-738.2 16,-732.2 16,-732.2 16,-278.2 16,-278.2 16,-272.2 22,-266.2 28,-266.2"/>
<text text-anchor="middle" x="206.25" y="-731.65" font-family="Helvetica,sans-Serif" font-weight="bold" font-size="9.00">components</text>
</g>
<g id="clust3" class="cluster">
<title>cluster_src/components/Battle</title>
<path fill="#ffffff" stroke="black" stroke-width="2" d="M53.38,-448.2C53.38,-448.2 376.5,-448.2 376.5,-448.2 382.5,-448.2 388.5,-454.2 388.5,-460.2 388.5,-460.2 388.5,-613.2 388.5,-613.2 388.5,-619.2 382.5,-625.2 376.5,-625.2 376.5,-625.2 53.38,-625.2 53.38,-625.2 47.38,-625.2 41.38,-619.2 41.38,-613.2 41.38,-613.2 41.38,-460.2 41.38,-460.2 41.38,-454.2 47.38,-448.2 53.38,-448.2"/>
<text text-anchor="middle" x="214.94" y="-612.65" font-family="Helvetica,sans-Serif" font-weight="bold" font-size="9.00">Battle</text>
</g>
<g id="clust4" class="cluster">
<title>cluster_src/components/LevelSystem</title>
<path fill="#ffffff" stroke="black" stroke-width="2" d="M36,-361.2C36,-361.2 116.75,-361.2 116.75,-361.2 122.75,-361.2 128.75,-367.2 128.75,-373.2 128.75,-373.2 128.75,-402.2 128.75,-402.2 128.75,-408.2 122.75,-414.2 116.75,-414.2 116.75,-414.2 36,-414.2 36,-414.2 30,-414.2 24,-408.2 24,-402.2 24,-402.2 24,-373.2 24,-373.2 24,-367.2 30,-361.2 36,-361.2"/>
<text text-anchor="middle" x="76.38" y="-401.65" font-family="Helvetica,sans-Serif" font-weight="bold" font-size="9.00">LevelSystem</text>
</g>
<g id="clust5" class="cluster">
<title>cluster_src/components/RewardSystem</title>
<path fill="#ffffff" stroke="black" stroke-width="2" d="M53.38,-633.2C53.38,-633.2 230.88,-633.2 230.88,-633.2 236.88,-633.2 242.88,-639.2 242.88,-645.2 242.88,-645.2 242.88,-705.2 242.88,-705.2 242.88,-711.2 236.88,-717.2 230.88,-717.2 230.88,-717.2 53.38,-717.2 53.38,-717.2 47.38,-717.2 41.38,-711.2 41.38,-705.2 41.38,-705.2 41.38,-645.2 41.38,-645.2 41.38,-639.2 47.38,-633.2 53.38,-633.2"/>
<text text-anchor="middle" x="142.12" y="-704.65" font-family="Helvetica,sans-Serif" font-weight="bold" font-size="9.00">RewardSystem</text>
</g>
<g id="clust6" class="cluster">
<title>cluster_src/components/profile</title>
<path fill="#ffffff" stroke="black" stroke-width="2" d="M42.38,-300.2C42.38,-300.2 110.38,-300.2 110.38,-300.2 116.38,-300.2 122.38,-306.2 122.38,-312.2 122.38,-312.2 122.38,-341.2 122.38,-341.2 122.38,-347.2 116.38,-353.2 110.38,-353.2 110.38,-353.2 42.38,-353.2 42.38,-353.2 36.38,-353.2 30.38,-347.2 30.38,-341.2 30.38,-341.2 30.38,-312.2 30.38,-312.2 30.38,-306.2 36.38,-300.2 42.38,-300.2"/>
<text text-anchor="middle" x="76.38" y="-340.65" font-family="Helvetica,sans-Serif" font-weight="bold" font-size="9.00">profile</text>
</g>
<g id="clust7" class="cluster">
<title>cluster_src/config</title>
<path fill="#ffffff" stroke="black" stroke-width="2" d="M764,-301.2C764,-301.2 830.5,-301.2 830.5,-301.2 836.5,-301.2 842.5,-307.2 842.5,-313.2 842.5,-313.2 842.5,-342.2 842.5,-342.2 842.5,-348.2 836.5,-354.2 830.5,-354.2 830.5,-354.2 764,-354.2 764,-354.2 758,-354.2 752,-348.2 752,-342.2 752,-342.2 752,-313.2 752,-313.2 752,-307.2 758,-301.2 764,-301.2"/>
<text text-anchor="middle" x="797.25" y="-341.65" font-family="Helvetica,sans-Serif" font-weight="bold" font-size="9.00">config</text>
</g>
<g id="clust8" class="cluster">
<title>cluster_src/contexts</title>
<path fill="#ffffff" stroke="black" stroke-width="2" d="M416.5,-364.2C416.5,-364.2 615.88,-364.2 615.88,-364.2 621.88,-364.2 627.88,-370.2 627.88,-376.2 627.88,-376.2 627.88,-559.2 627.88,-559.2 627.88,-565.2 621.88,-571.2 615.88,-571.2 615.88,-571.2 416.5,-571.2 416.5,-571.2 410.5,-571.2 404.5,-565.2 404.5,-559.2 404.5,-559.2 404.5,-376.2 404.5,-376.2 404.5,-370.2 410.5,-364.2 416.5,-364.2"/>
<text text-anchor="middle" x="516.19" y="-558.65" font-family="Helvetica,sans-Serif" font-weight="bold" font-size="9.00">contexts</text>
</g>
<g id="clust9" class="cluster">
<title>cluster_src/contexts/__tests__</title>
<path fill="#ffffff" stroke="black" stroke-width="2" d="M428.12,-372.2C428.12,-372.2 503.62,-372.2 503.62,-372.2 509.62,-372.2 515.62,-378.2 515.62,-384.2 515.62,-384.2 515.62,-413.2 515.62,-413.2 515.62,-419.2 509.62,-425.2 503.62,-425.2 503.62,-425.2 428.12,-425.2 428.12,-425.2 422.12,-425.2 416.12,-419.2 416.12,-413.2 416.12,-413.2 416.12,-384.2 416.12,-384.2 416.12,-378.2 422.12,-372.2 428.12,-372.2"/>
<text text-anchor="middle" x="465.88" y="-412.65" font-family="Helvetica,sans-Serif" font-weight="bold" font-size="9.00">__tests__</text>
</g>
<g id="clust10" class="cluster">
<title>cluster_src/contexts/game</title>
<path fill="#ffffff" stroke="black" stroke-width="2" d="M561.88,-372.2C561.88,-372.2 607.88,-372.2 607.88,-372.2 613.88,-372.2 619.88,-378.2 619.88,-384.2 619.88,-384.2 619.88,-444.2 619.88,-444.2 619.88,-450.2 613.88,-456.2 607.88,-456.2 607.88,-456.2 561.88,-456.2 561.88,-456.2 555.88,-456.2 549.88,-450.2 549.88,-444.2 549.88,-444.2 549.88,-384.2 549.88,-384.2 549.88,-378.2 555.88,-372.2 561.88,-372.2"/>
<text text-anchor="middle" x="584.88" y="-443.65" font-family="Helvetica,sans-Serif" font-weight="bold" font-size="9.00">game</text>
</g>
<g id="clust11" class="cluster">
<title>cluster_src/hooks</title>
<path fill="#ffffff" stroke="black" stroke-width="2" d="M280,-143.2C280,-143.2 510.75,-143.2 510.75,-143.2 516.75,-143.2 522.75,-149.2 522.75,-155.2 522.75,-155.2 522.75,-246.2 522.75,-246.2 522.75,-252.2 516.75,-258.2 510.75,-258.2 510.75,-258.2 280,-258.2 280,-258.2 274,-258.2 268,-252.2 268,-246.2 268,-246.2 268,-155.2 268,-155.2 268,-149.2 274,-143.2 280,-143.2"/>
<text text-anchor="middle" x="395.38" y="-245.65" font-family="Helvetica,sans-Serif" font-weight="bold" font-size="9.00">hooks</text>
</g>
<g id="clust12" class="cluster">
<title>cluster_src/lib</title>
<path fill="#ffffff" stroke="black" stroke-width="2" d="M665.5,-248.2C665.5,-248.2 732,-248.2 732,-248.2 738,-248.2 744,-254.2 744,-260.2 744,-260.2 744,-320.2 744,-320.2 744,-326.2 738,-332.2 732,-332.2 732,-332.2 665.5,-332.2 665.5,-332.2 659.5,-332.2 653.5,-326.2 653.5,-320.2 653.5,-320.2 653.5,-260.2 653.5,-260.2 653.5,-254.2 659.5,-248.2 665.5,-248.2"/>
<text text-anchor="middle" x="698.75" y="-319.65" font-family="Helvetica,sans-Serif" font-weight="bold" font-size="9.00">lib</text>
</g>
<g id="clust13" class="cluster">
<title>cluster_src/scripts</title>
<path fill="#ffffff" stroke="black" stroke-width="2" d="M283,-82.2C283,-82.2 361.5,-82.2 361.5,-82.2 367.5,-82.2 373.5,-88.2 373.5,-94.2 373.5,-94.2 373.5,-123.2 373.5,-123.2 373.5,-129.2 367.5,-135.2 361.5,-135.2 361.5,-135.2 283,-135.2 283,-135.2 277,-135.2 271,-129.2 271,-123.2 271,-123.2 271,-94.2 271,-94.2 271,-88.2 277,-82.2 283,-82.2"/>
<text text-anchor="middle" x="322.25" y="-122.65" font-family="Helvetica,sans-Serif" font-weight="bold" font-size="9.00">scripts</text>
</g>
<g id="clust14" class="cluster">
<title>cluster_src/services</title>
<path fill="#ffffff" stroke="black" stroke-width="2" d="M430.75,-51.2C430.75,-51.2 633.5,-51.2 633.5,-51.2 639.5,-51.2 645.5,-57.2 645.5,-63.2 645.5,-63.2 645.5,-123.2 645.5,-123.2 645.5,-129.2 639.5,-135.2 633.5,-135.2 633.5,-135.2 430.75,-135.2 430.75,-135.2 424.75,-135.2 418.75,-129.2 418.75,-123.2 418.75,-123.2 418.75,-63.2 418.75,-63.2 418.75,-57.2 424.75,-51.2 430.75,-51.2"/>
<text text-anchor="middle" x="532.12" y="-122.65" font-family="Helvetica,sans-Serif" font-weight="bold" font-size="9.00">services</text>
</g>
<g id="clust15" class="cluster">
<title>cluster_src/types</title>
<path fill="#ffffff" stroke="black" stroke-width="2" d="M675.75,-137.2C675.75,-137.2 721.75,-137.2 721.75,-137.2 727.75,-137.2 733.75,-143.2 733.75,-149.2 733.75,-149.2 733.75,-209.2 733.75,-209.2 733.75,-215.2 727.75,-221.2 721.75,-221.2 721.75,-221.2 675.75,-221.2 675.75,-221.2 669.75,-221.2 663.75,-215.2 663.75,-209.2 663.75,-209.2 663.75,-149.2 663.75,-149.2 663.75,-143.2 669.75,-137.2 675.75,-137.2"/>
<text text-anchor="middle" x="698.75" y="-208.65" font-family="Helvetica,sans-Serif" font-weight="bold" font-size="9.00">types</text>
</g>
<g id="clust16" class="cluster">
<title>cluster_src/utils</title>
<path fill="#ffffff" stroke="black" stroke-width="2" d="M548.62,-158.2C548.62,-158.2 621.12,-158.2 621.12,-158.2 627.12,-158.2 633.12,-164.2 633.12,-170.2 633.12,-170.2 633.12,-292.2 633.12,-292.2 633.12,-298.2 627.12,-304.2 621.12,-304.2 621.12,-304.2 548.62,-304.2 548.62,-304.2 542.62,-304.2 536.62,-298.2 536.62,-292.2 536.62,-292.2 536.62,-170.2 536.62,-170.2 536.62,-164.2 542.62,-158.2 548.62,-158.2"/>
<text text-anchor="middle" x="584.88" y="-291.65" font-family="Helvetica,sans-Serif" font-weight="bold" font-size="9.00">utils</text>
</g>
<!-- src/components/AppContent.tsx -->
<g id="node1" class="node">
<title>src/components/AppContent.tsx</title>
<g id="a_node1"><a xlink:href="src/components/AppContent.tsx" xlink:title="AppContent.tsx">
<path fill="#bbfeff" stroke="black" d="M109.33,-440.45C109.33,-440.45 43.42,-440.45 43.42,-440.45 40.33,-440.45 37.25,-437.37 37.25,-434.28 37.25,-434.28 37.25,-428.12 37.25,-428.12 37.25,-425.03 40.33,-421.95 43.42,-421.95 43.42,-421.95 109.33,-421.95 109.33,-421.95 112.42,-421.95 115.5,-425.03 115.5,-428.12 115.5,-428.12 115.5,-434.28 115.5,-434.28 115.5,-437.37 112.42,-440.45 109.33,-440.45"/>
<text text-anchor="start" x="45.25" y="-427.9" font-family="Helvetica,sans-Serif" font-size="9.00">AppContent.tsx</text>
</a>
</g>
</g>
<!-- src/contexts/GameContext.tsx -->
<g id="node2" class="node">
<title>src/contexts/GameContext.tsx</title>
<g id="a_node2"><a xlink:href="src/contexts/GameContext.tsx" xlink:title="GameContext.tsx">
<path fill="#bbfeff" stroke="black" d="M502.58,-513.45C502.58,-513.45 429.17,-513.45 429.17,-513.45 426.08,-513.45 423,-510.37 423,-507.28 423,-507.28 423,-501.12 423,-501.12 423,-498.03 426.08,-494.95 429.17,-494.95 429.17,-494.95 502.58,-494.95 502.58,-494.95 505.67,-494.95 508.75,-498.03 508.75,-501.12 508.75,-501.12 508.75,-507.28 508.75,-507.28 508.75,-510.37 505.67,-513.45 502.58,-513.45"/>
<text text-anchor="start" x="431" y="-500.9" font-family="Helvetica,sans-Serif" font-size="9.00">GameContext.tsx</text>
</a>
</g>
</g>
<!-- src/components/AppContent.tsx&#45;&gt;src/contexts/GameContext.tsx -->
<g id="edge1" class="edge">
<title>src/components/AppContent.tsx&#45;&gt;src/contexts/GameContext.tsx</title>
<path fill="none" stroke="#000000" stroke-width="2" stroke-opacity="0.200000" d="M115.85,-427.19C191.47,-420.2 355.63,-409.69 396.5,-445.2 411.17,-457.95 391.28,-473.95 404.5,-488.2 407.39,-491.31 410.81,-493.85 414.53,-495.91"/>
<polygon fill="#000000" fill-opacity="0.200000" stroke="#000000" stroke-width="2" stroke-opacity="0.200000" points="413.42,-497.72 419.75,-498.27 415.15,-493.89 413.42,-497.72"/>
</g>
<!-- src/components/Battle/BattleMode.tsx -->
<g id="node3" class="node">
<title>src/components/Battle/BattleMode.tsx</title>
<g id="a_node3"><a xlink:href="src/components/Battle/BattleMode.tsx" xlink:title="BattleMode.tsx">
<path fill="#bbfeff" stroke="black" d="M225.71,-474.45C225.71,-474.45 162.04,-474.45 162.04,-474.45 158.96,-474.45 155.88,-471.37 155.88,-468.28 155.88,-468.28 155.88,-462.12 155.88,-462.12 155.88,-459.03 158.96,-455.95 162.04,-455.95 162.04,-455.95 225.71,-455.95 225.71,-455.95 228.79,-455.95 231.88,-459.03 231.88,-462.12 231.88,-462.12 231.88,-468.28 231.88,-468.28 231.88,-471.37 228.79,-474.45 225.71,-474.45"/>
<text text-anchor="start" x="163.88" y="-461.9" font-family="Helvetica,sans-Serif" font-size="9.00">BattleMode.tsx</text>
</a>
</g>
</g>
<!-- src/components/AppContent.tsx&#45;&gt;src/components/Battle/BattleMode.tsx -->
<g id="edge2" class="edge">
<title>src/components/AppContent.tsx&#45;&gt;src/components/Battle/BattleMode.tsx</title>
<path fill="none" stroke="#000000" stroke-width="2" stroke-opacity="0.200000" d="M115.99,-439.66C120.41,-441.22 124.76,-443.06 128.75,-445.2 132.91,-447.43 132.54,-450.05 136.75,-452.2 140.01,-453.87 143.48,-455.32 147.03,-456.59"/>
<polygon fill="#000000" fill-opacity="0.200000" stroke="#000000" stroke-width="2" stroke-opacity="0.200000" points="146.19,-458.53 152.54,-458.33 147.45,-454.52 146.19,-458.53"/>
</g>
<!-- src/components/Battle/BattleResults.tsx -->
<g id="node4" class="node">
<title>src/components/Battle/BattleResults.tsx</title>
<g id="a_node4"><a xlink:href="src/components/Battle/BattleResults.tsx" xlink:title="BattleResults.tsx">
<path fill="#bbfeff" stroke="black" d="M229.46,-567.45C229.46,-567.45 158.29,-567.45 158.29,-567.45 155.21,-567.45 152.12,-564.37 152.12,-561.28 152.12,-561.28 152.12,-555.12 152.12,-555.12 152.12,-552.03 155.21,-548.95 158.29,-548.95 158.29,-548.95 229.46,-548.95 229.46,-548.95 232.54,-548.95 235.62,-552.03 235.62,-555.12 235.62,-555.12 235.62,-561.28 235.62,-561.28 235.62,-564.37 232.54,-567.45 229.46,-567.45"/>
<text text-anchor="start" x="160.12" y="-554.9" font-family="Helvetica,sans-Serif" font-size="9.00">BattleResults.tsx</text>
</a>
</g>
</g>
<!-- src/components/Battle/BattleResults.tsx&#45;&gt;src/contexts/GameContext.tsx -->
<g id="edge3" class="edge">
<title>src/components/Battle/BattleResults.tsx&#45;&gt;src/contexts/GameContext.tsx</title>
<path fill="none" stroke="#000000" stroke-width="2" stroke-opacity="0.200000" d="M236.07,-550.73C241.45,-548.57 246.6,-545.79 251,-542.2 260.7,-534.28 253.51,-524.04 264,-517.2 276.23,-509.22 358.17,-506.12 413.54,-504.93"/>
<polygon fill="#000000" fill-opacity="0.200000" stroke="#000000" stroke-width="2" stroke-opacity="0.200000" points="413.54,-507.03 419.5,-504.81 413.46,-502.83 413.54,-507.03"/>
</g>
<!-- src/lib/levelSystem.ts -->
<g id="node5" class="node">
<title>src/lib/levelSystem.ts</title>
<g id="a_node5"><a xlink:href="src/lib/levelSystem.ts" xlink:title="levelSystem.ts">
<path fill="#ddfeff" stroke="black" d="M729.83,-305.45C729.83,-305.45 667.67,-305.45 667.67,-305.45 664.58,-305.45 661.5,-302.37 661.5,-299.28 661.5,-299.28 661.5,-293.12 661.5,-293.12 661.5,-290.03 664.58,-286.95 667.67,-286.95 667.67,-286.95 729.83,-286.95 729.83,-286.95 732.92,-286.95 736,-290.03 736,-293.12 736,-293.12 736,-299.28 736,-299.28 736,-302.37 732.92,-305.45 729.83,-305.45"/>
<text text-anchor="start" x="669.5" y="-292.9" font-family="Helvetica,sans-Serif" font-size="9.00">levelSystem.ts</text>
</a>
</g>
</g>
<!-- src/components/Battle/BattleResults.tsx&#45;&gt;src/lib/levelSystem.ts -->
<g id="edge4" class="edge">
<title>src/components/Battle/BattleResults.tsx&#45;&gt;src/lib/levelSystem.ts</title>
<path fill="none" stroke="#000000" stroke-width="2" stroke-opacity="0.200000" d="M235.98,-563.72C241.71,-566.12 246.99,-569.49 251,-574.2 266.96,-592.94 245.6,-667.85 264,-684.2 308.02,-723.32 341.35,-704.85 396.5,-684.2 536.18,-631.88 565.75,-585.25 645.5,-459.2 675.45,-411.86 689.62,-345.86 695.01,-314.35"/>
<polygon fill="#000000" fill-opacity="0.200000" stroke="#000000" stroke-width="2" stroke-opacity="0.200000" points="697.04,-314.98 695.93,-308.72 692.89,-314.31 697.04,-314.98"/>
</g>
<!-- src/config/battleConfig.ts -->
<g id="node21" class="node">
<title>src/config/battleConfig.ts</title>
<g id="a_node21"><a xlink:href="src/config/battleConfig.ts" xlink:title="battleConfig.ts">
<path fill="#ddfeff" stroke="black" d="M828.33,-327.45C828.33,-327.45 766.17,-327.45 766.17,-327.45 763.08,-327.45 760,-324.37 760,-321.28 760,-321.28 760,-315.12 760,-315.12 760,-312.03 763.08,-308.95 766.17,-308.95 766.17,-308.95 828.33,-308.95 828.33,-308.95 831.42,-308.95 834.5,-312.03 834.5,-315.12 834.5,-315.12 834.5,-321.28 834.5,-321.28 834.5,-324.37 831.42,-327.45 828.33,-327.45"/>
<text text-anchor="start" x="768" y="-314.9" font-family="Helvetica,sans-Serif" font-size="9.00">battleConfig.ts</text>
</a>
</g>
</g>
<!-- src/lib/levelSystem.ts&#45;&gt;src/config/battleConfig.ts -->
<g id="edge53" class="edge">
<title>src/lib/levelSystem.ts&#45;&gt;src/config/battleConfig.ts</title>
<path fill="none" stroke="#000000" stroke-width="2" stroke-opacity="0.200000" d="M736.23,-304.52C741.04,-305.61 746.01,-306.74 750.93,-307.87"/>
<polygon fill="#000000" fill-opacity="0.200000" stroke="#000000" stroke-width="2" stroke-opacity="0.200000" points="750.45,-309.91 756.76,-309.2 751.38,-305.82 750.45,-309.91"/>
</g>
<!-- src/components/Battle/BattleStateTransition.css -->
<g id="node6" class="node">
<title>src/components/Battle/BattleStateTransition.css</title>
<g id="a_node6"><a xlink:href="src/components/Battle/BattleStateTransition.css" xlink:title="BattleStateTransition.css">
<path fill="#ffffcc" stroke="black" d="M374.33,-541.45C374.33,-541.45 270.17,-541.45 270.17,-541.45 267.08,-541.45 264,-538.37 264,-535.28 264,-535.28 264,-529.12 264,-529.12 264,-526.03 267.08,-522.95 270.17,-522.95 270.17,-522.95 374.33,-522.95 374.33,-522.95 377.42,-522.95 380.5,-526.03 380.5,-529.12 380.5,-529.12 380.5,-535.28 380.5,-535.28 380.5,-538.37 377.42,-541.45 374.33,-541.45"/>
<text text-anchor="start" x="272" y="-528.9" font-family="Helvetica,sans-Serif" font-size="9.00">BattleStateTransition.css</text>
</a>
</g>
</g>
<!-- src/components/Battle/BattleStateTransition.tsx -->
<g id="node7" class="node">
<title>src/components/Battle/BattleStateTransition.tsx</title>
<g id="a_node7"><a xlink:href="src/components/Battle/BattleStateTransition.tsx" xlink:title="BattleStateTransition.tsx">
<path fill="#bbfeff" stroke="black" d="M244.83,-505.45C244.83,-505.45 142.92,-505.45 142.92,-505.45 139.83,-505.45 136.75,-502.37 136.75,-499.28 136.75,-499.28 136.75,-493.12 136.75,-493.12 136.75,-490.03 139.83,-486.95 142.92,-486.95 142.92,-486.95 244.83,-486.95 244.83,-486.95 247.92,-486.95 251,-490.03 251,-493.12 251,-493.12 251,-499.28 251,-499.28 251,-502.37 247.92,-505.45 244.83,-505.45"/>
<text text-anchor="start" x="144.75" y="-492.9" font-family="Helvetica,sans-Serif" font-size="9.00">BattleStateTransition.tsx</text>
</a>
</g>
</g>
<!-- src/components/Battle/BattleStateTransition.tsx&#45;&gt;src/contexts/GameContext.tsx -->
<g id="edge5" class="edge">
<title>src/components/Battle/BattleStateTransition.tsx&#45;&gt;src/contexts/GameContext.tsx</title>
<path fill="none" stroke="#000000" stroke-width="2" stroke-opacity="0.200000" d="M251.48,-497.88C299.46,-499.3 367.67,-501.32 413.96,-502.69"/>
<polygon fill="#000000" fill-opacity="0.200000" stroke="#000000" stroke-width="2" stroke-opacity="0.200000" points="413.83,-504.79 419.89,-502.87 413.95,-500.59 413.83,-504.79"/>
</g>
<!-- src/components/Battle/BattleStateTransition.tsx&#45;&gt;src/components/Battle/BattleStateTransition.css -->
<g id="edge7" class="edge">
<title>src/components/Battle/BattleStateTransition.tsx&#45;&gt;src/components/Battle/BattleStateTransition.css</title>
<path fill="none" stroke="#000000" stroke-width="2" stroke-opacity="0.200000" d="M229.07,-505.94C244.39,-510.3 262.6,-515.49 278.78,-520.1"/>
<polygon fill="#000000" fill-opacity="0.200000" stroke="#000000" stroke-width="2" stroke-opacity="0.200000" points="277.77,-522 284.11,-521.62 278.92,-517.96 277.77,-522"/>
</g>
<!-- src/hooks/useBattleStreak.ts -->
<g id="node8" class="node">
<title>src/hooks/useBattleStreak.ts</title>
<g id="a_node8"><a xlink:href="src/hooks/useBattleStreak.ts" xlink:title="useBattleStreak.ts">
<path fill="#ddfeff" stroke="black" d="M360.83,-200.45C360.83,-200.45 283.67,-200.45 283.67,-200.45 280.58,-200.45 277.5,-197.37 277.5,-194.28 277.5,-194.28 277.5,-188.12 277.5,-188.12 277.5,-185.03 280.58,-181.95 283.67,-181.95 283.67,-181.95 360.83,-181.95 360.83,-181.95 363.92,-181.95 367,-185.03 367,-188.12 367,-188.12 367,-194.28 367,-194.28 367,-197.37 363.92,-200.45 360.83,-200.45"/>
<text text-anchor="start" x="285.5" y="-187.9" font-family="Helvetica,sans-Serif" font-size="9.00">useBattleStreak.ts</text>
</a>
</g>
</g>
<!-- src/components/Battle/BattleStateTransition.tsx&#45;&gt;src/hooks/useBattleStreak.ts -->
<g id="edge6" class="edge">
<title>src/components/Battle/BattleStateTransition.tsx&#45;&gt;src/hooks/useBattleStreak.ts</title>
<path fill="none" stroke="#000000" stroke-width="2" stroke-opacity="0.200000" d="M243.96,-486.72C246.6,-484.9 248.99,-482.74 251,-480.2 288.73,-432.61 226.14,-254.69 264,-207.2 265.63,-205.16 267.49,-203.36 269.53,-201.78"/>
<polygon fill="#000000" fill-opacity="0.200000" stroke="#000000" stroke-width="2" stroke-opacity="0.200000" points="270.43,-203.7 274.47,-198.79 268.25,-200.11 270.43,-203.7"/>
</g>
<!-- src/hooks/useBattleStreak.ts&#45;&gt;src/contexts/GameContext.tsx -->
<g id="edge47" class="edge">
<title>src/hooks/useBattleStreak.ts&#45;&gt;src/contexts/GameContext.tsx</title>
<path fill="none" stroke="#000000" stroke-width="2" stroke-opacity="0.200000" d="M367.42,-191.51C378.5,-193.84 389.27,-198.48 396.5,-207.2 416.43,-231.25 385.1,-463.72 404.5,-488.2 407.33,-491.77 410.86,-494.6 414.78,-496.84"/>
<polygon fill="#000000" fill-opacity="0.200000" stroke="#000000" stroke-width="2" stroke-opacity="0.200000" points="413.64,-498.63 419.98,-499.2 415.38,-494.8 413.64,-498.63"/>
</g>
<!-- src/contexts/AuthContext.tsx -->
<g id="node22" class="node">
<title>src/contexts/AuthContext.tsx</title>
<g id="a_node22"><a xlink:href="src/contexts/AuthContext.tsx" xlink:title="AuthContext.tsx">
<path fill="#bbfeff" stroke="black" d="M499.58,-451.45C499.58,-451.45 432.17,-451.45 432.17,-451.45 429.08,-451.45 426,-448.37 426,-445.28 426,-445.28 426,-439.12 426,-439.12 426,-436.03 429.08,-432.95 432.17,-432.95 432.17,-432.95 499.58,-432.95 499.58,-432.95 502.67,-432.95 505.75,-436.03 505.75,-439.12 505.75,-439.12 505.75,-445.28 505.75,-445.28 505.75,-448.37 502.67,-451.45 499.58,-451.45"/>
<text text-anchor="start" x="434" y="-438.9" font-family="Helvetica,sans-Serif" font-size="9.00">AuthContext.tsx</text>
</a>
</g>
</g>
<!-- src/hooks/useBattleStreak.ts&#45;&gt;src/contexts/AuthContext.tsx -->
<g id="edge46" class="edge">
<title>src/hooks/useBattleStreak.ts&#45;&gt;src/contexts/AuthContext.tsx</title>
<path fill="none" stroke="#000000" stroke-width="2" stroke-opacity="0.200000" d="M367.38,-191.55C378.45,-193.88 389.24,-198.51 396.5,-207.2 412.25,-226.06 388.87,-409.24 404.5,-428.2 407.92,-432.35 412.31,-435.41 417.15,-437.65"/>
<polygon fill="#000000" fill-opacity="0.200000" stroke="#000000" stroke-width="2" stroke-opacity="0.200000" points="416.44,-439.63 422.79,-439.68 417.86,-435.67 416.44,-439.63"/>
</g>
<!-- src/lib/supabase.ts -->
<g id="node33" class="node">
<title>src/lib/supabase.ts</title>
<g id="a_node33"><a xlink:href="src/lib/supabase.ts" xlink:title="supabase.ts">
<path fill="#ddfeff" stroke="black" d="M725.33,-274.45C725.33,-274.45 672.17,-274.45 672.17,-274.45 669.08,-274.45 666,-271.37 666,-268.28 666,-268.28 666,-262.12 666,-262.12 666,-259.03 669.08,-255.95 672.17,-255.95 672.17,-255.95 725.33,-255.95 725.33,-255.95 728.42,-255.95 731.5,-259.03 731.5,-262.12 731.5,-262.12 731.5,-268.28 731.5,-268.28 731.5,-271.37 728.42,-274.45 725.33,-274.45"/>
<text text-anchor="start" x="674" y="-261.9" font-family="Helvetica,sans-Serif" font-size="9.00">supabase.ts</text>
</a>
</g>
</g>
<!-- src/hooks/useBattleStreak.ts&#45;&gt;src/lib/supabase.ts -->
<g id="edge48" class="edge">
<title>src/hooks/useBattleStreak.ts&#45;&gt;src/lib/supabase.ts</title>
<path fill="none" stroke="#000000" stroke-width="2" stroke-opacity="0.200000" d="M367.31,-192.93C377.99,-195.33 388.59,-199.65 396.5,-207.2 406.48,-216.73 395.98,-226.34 404.5,-237.2 444.45,-288.14 469.53,-291.14 532.25,-307.2 581.01,-319.68 605.01,-337.1 645.5,-307.2 655.23,-300.02 645.16,-289.95 653.5,-281.2 654.87,-279.76 656.39,-278.45 658,-277.25"/>
<polygon fill="#000000" fill-opacity="0.200000" stroke="#000000" stroke-width="2" stroke-opacity="0.200000" points="658.91,-279.15 663,-274.28 656.77,-275.54 658.91,-279.15"/>
</g>
<!-- src/components/Battle/QuestionDisplay.tsx -->
<g id="node9" class="node">
<title>src/components/Battle/QuestionDisplay.tsx</title>
<g id="a_node9"><a xlink:href="src/components/Battle/QuestionDisplay.tsx" xlink:title="QuestionDisplay.tsx">
<path fill="#bbfeff" stroke="black" d="M235.83,-536.45C235.83,-536.45 151.92,-536.45 151.92,-536.45 148.83,-536.45 145.75,-533.37 145.75,-530.28 145.75,-530.28 145.75,-524.12 145.75,-524.12 145.75,-521.03 148.83,-517.95 151.92,-517.95 151.92,-517.95 235.83,-517.95 235.83,-517.95 238.92,-517.95 242,-521.03 242,-524.12 242,-524.12 242,-530.28 242,-530.28 242,-533.37 238.92,-536.45 235.83,-536.45"/>
<text text-anchor="start" x="153.75" y="-523.9" font-family="Helvetica,sans-Serif" font-size="9.00">QuestionDisplay.tsx</text>
</a>
</g>
</g>
<!-- src/contexts/LanguageContext.tsx -->
<g id="node10" class="node">
<title>src/contexts/LanguageContext.tsx</title>
<g id="a_node10"><a xlink:href="src/contexts/LanguageContext.tsx" xlink:title="LanguageContext.tsx">
<path fill="#bbfeff" stroke="black" d="M511.21,-544.45C511.21,-544.45 420.54,-544.45 420.54,-544.45 417.46,-544.45 414.38,-541.37 414.38,-538.28 414.38,-538.28 414.38,-532.12 414.38,-532.12 414.38,-529.03 417.46,-525.95 420.54,-525.95 420.54,-525.95 511.21,-525.95 511.21,-525.95 514.29,-525.95 517.38,-529.03 517.38,-532.12 517.38,-532.12 517.38,-538.28 517.38,-538.28 517.38,-541.37 514.29,-544.45 511.21,-544.45"/>
<text text-anchor="start" x="422.38" y="-531.9" font-family="Helvetica,sans-Serif" font-size="9.00">LanguageContext.tsx</text>
</a>
</g>
</g>
<!-- src/components/Battle/QuestionDisplay.tsx&#45;&gt;src/contexts/LanguageContext.tsx -->
<g id="edge8" class="edge">
<title>src/components/Battle/QuestionDisplay.tsx&#45;&gt;src/contexts/LanguageContext.tsx</title>
<path fill="none" stroke="#000000" stroke-width="2" stroke-opacity="0.200000" d="M242.28,-535.82C245.56,-537.82 248.53,-540.25 251,-543.2 269.62,-565.47 242.47,-653.72 264,-673.2 285.83,-692.96 371.48,-688.72 396.5,-673.2 439.33,-646.62 456.16,-584.36 462.05,-553.38"/>
<polygon fill="#000000" fill-opacity="0.200000" stroke="#000000" stroke-width="2" stroke-opacity="0.200000" points="464.06,-554.1 463.03,-547.82 459.92,-553.37 464.06,-554.1"/>
</g>
<!-- src/components/Battle/ScoreDisplay.tsx -->
<g id="node11" class="node">
<title>src/components/Battle/ScoreDisplay.tsx</title>
<g id="a_node11"><a xlink:href="src/components/Battle/ScoreDisplay.tsx" xlink:title="ScoreDisplay.tsx">
<path fill="#bbfeff" stroke="black" d="M229.46,-598.45C229.46,-598.45 158.29,-598.45 158.29,-598.45 155.21,-598.45 152.12,-595.37 152.12,-592.28 152.12,-592.28 152.12,-586.12 152.12,-586.12 152.12,-583.03 155.21,-579.95 158.29,-579.95 158.29,-579.95 229.46,-579.95 229.46,-579.95 232.54,-579.95 235.62,-583.03 235.62,-586.12 235.62,-586.12 235.62,-592.28 235.62,-592.28 235.62,-595.37 232.54,-598.45 229.46,-598.45"/>
<text text-anchor="start" x="160.12" y="-585.9" font-family="Helvetica,sans-Serif" font-size="9.00">ScoreDisplay.tsx</text>
</a>
</g>
</g>
<!-- src/components/Battle/index.ts -->
<g id="node12" class="node">
<title>src/components/Battle/index.ts</title>
<g id="a_node12"><a xlink:href="src/components/Battle/index.ts" xlink:title="index.ts">
<path fill="#ddfeff" stroke="black" d="M97.21,-536.45C97.21,-536.45 55.54,-536.45 55.54,-536.45 52.46,-536.45 49.38,-533.37 49.38,-530.28 49.38,-530.28 49.38,-524.12 49.38,-524.12 49.38,-521.03 52.46,-517.95 55.54,-517.95 55.54,-517.95 97.21,-517.95 97.21,-517.95 100.29,-517.95 103.38,-521.03 103.38,-524.12 103.38,-524.12 103.38,-530.28 103.38,-530.28 103.38,-533.37 100.29,-536.45 97.21,-536.45"/>
<text text-anchor="start" x="60.62" y="-523.9" font-family="Helvetica,sans-Serif" font-size="9.00">index.ts</text>
</a>
</g>
</g>
<!-- src/components/Battle/index.ts&#45;&gt;src/components/Battle/BattleMode.tsx -->
<g id="edge9" class="edge">
<title>src/components/Battle/index.ts&#45;&gt;src/components/Battle/BattleMode.tsx</title>
<path fill="none" stroke="#000000" stroke-width="2" stroke-opacity="0.200000" d="M103.61,-525.99C112.65,-524.29 122.15,-520.87 128.75,-514.2 139.37,-503.47 126.29,-492.08 136.75,-481.2 140.23,-477.58 144.45,-474.77 149.02,-472.58"/>
<polygon fill="#000000" fill-opacity="0.200000" stroke="#000000" stroke-width="2" stroke-opacity="0.200000" points="155.28,-472.28 148.93,-472.61 153.68,-468.4 155.28,-472.28"/>
</g>
<!-- src/components/Battle/index.ts&#45;&gt;src/components/Battle/BattleResults.tsx -->
<g id="edge10" class="edge">
<title>src/components/Battle/index.ts&#45;&gt;src/components/Battle/BattleResults.tsx</title>
<path fill="none" stroke="#000000" stroke-width="2" stroke-opacity="0.200000" d="M103.87,-534.31C117.63,-538 134.76,-542.6 150.32,-546.78"/>
<polygon fill="#000000" fill-opacity="0.200000" stroke="#000000" stroke-width="2" stroke-opacity="0.200000" points="155.36,-550.31 150.11,-546.72 156.45,-546.25 155.36,-550.31"/>
</g>
<!-- src/components/Battle/index.ts&#45;&gt;src/components/Battle/BattleStateTransition.tsx -->
<g id="edge11" class="edge">
<title>src/components/Battle/index.ts&#45;&gt;src/components/Battle/BattleStateTransition.tsx</title>
<path fill="none" stroke="#000000" stroke-width="2" stroke-opacity="0.200000" d="M103.81,-520.65C111.83,-518.62 120.66,-516.36 128.75,-514.2 136.43,-512.15 144.61,-509.9 152.47,-507.71"/>
<polygon fill="#000000" fill-opacity="0.200000" stroke="#000000" stroke-width="2" stroke-opacity="0.200000" points="158.58,-508.18 152.23,-507.78 157.45,-504.14 158.58,-508.18"/>
</g>
<!-- src/components/Battle/index.ts&#45;&gt;src/components/Battle/QuestionDisplay.tsx -->
<g id="edge12" class="edge">
<title>src/components/Battle/index.ts&#45;&gt;src/components/Battle/QuestionDisplay.tsx</title>
<path fill="none" stroke="#000000" stroke-width="2" stroke-opacity="0.200000" d="M103.87,-527.2C114.23,-527.2 126.5,-527.2 138.57,-527.2"/>
<polygon fill="#000000" fill-opacity="0.200000" stroke="#000000" stroke-width="2" stroke-opacity="0.200000" points="144.64,-529.3 138.64,-527.2 144.64,-525.1 144.64,-529.3"/>
</g>
<!-- src/components/Battle/index.ts&#45;&gt;src/components/Battle/ScoreDisplay.tsx -->
<g id="edge13" class="edge">
<title>src/components/Battle/index.ts&#45;&gt;src/components/Battle/ScoreDisplay.tsx</title>
<path fill="none" stroke="#000000" stroke-width="2" stroke-opacity="0.200000" d="M87.07,-536.63C98.2,-546.99 117.44,-563.43 136.75,-573.2 139.59,-574.64 142.59,-575.97 145.65,-577.19"/>
<polygon fill="#000000" fill-opacity="0.200000" stroke="#000000" stroke-width="2" stroke-opacity="0.200000" points="150.34,-581.17 145.45,-577.11 151.8,-577.23 150.34,-581.17"/>
</g>
<!-- src/components/LevelSystem/LevelProgress.tsx -->
<g id="node13" class="node">
<title>src/components/LevelSystem/LevelProgress.tsx</title>
<g id="a_node13"><a xlink:href="src/components/LevelSystem/LevelProgress.tsx" xlink:title="LevelProgress.tsx">
<path fill="#bbfeff" stroke="black" d="M114.58,-387.45C114.58,-387.45 38.17,-387.45 38.17,-387.45 35.08,-387.45 32,-384.37 32,-381.28 32,-381.28 32,-375.12 32,-375.12 32,-372.03 35.08,-368.95 38.17,-368.95 38.17,-368.95 114.58,-368.95 114.58,-368.95 117.67,-368.95 120.75,-372.03 120.75,-375.12 120.75,-375.12 120.75,-381.28 120.75,-381.28 120.75,-384.37 117.67,-387.45 114.58,-387.45"/>
<text text-anchor="start" x="40" y="-374.9" font-family="Helvetica,sans-Serif" font-size="9.00">LevelProgress.tsx</text>
</a>
</g>
</g>
<!-- src/components/LevelSystem/LevelProgress.tsx&#45;&gt;src/contexts/GameContext.tsx -->
<g id="edge14" class="edge">
<title>src/components/LevelSystem/LevelProgress.tsx&#45;&gt;src/contexts/GameContext.tsx</title>
<path fill="none" stroke="#000000" stroke-width="2" stroke-opacity="0.200000" d="M121.08,-381.49C208.48,-388.06 396.5,-402.2 396.5,-402.2 410.19,-415.65 392.1,-473.55 404.5,-488.2 407.33,-491.54 410.77,-494.23 414.55,-496.38"/>
<polygon fill="#000000" fill-opacity="0.200000" stroke="#000000" stroke-width="2" stroke-opacity="0.200000" points="413.64,-498.27 419.97,-498.84 415.37,-494.45 413.64,-498.27"/>
</g>
<!-- src/hooks/useLevelSystem.ts -->
<g id="node14" class="node">
<title>src/hooks/useLevelSystem.ts</title>
<g id="a_node14"><a xlink:href="src/hooks/useLevelSystem.ts" xlink:title="useLevelSystem.ts">
<path fill="#ddfeff" stroke="black" d="M362.33,-231.45C362.33,-231.45 282.17,-231.45 282.17,-231.45 279.08,-231.45 276,-228.37 276,-225.28 276,-225.28 276,-219.12 276,-219.12 276,-216.03 279.08,-212.95 282.17,-212.95 282.17,-212.95 362.33,-212.95 362.33,-212.95 365.42,-212.95 368.5,-216.03 368.5,-219.12 368.5,-219.12 368.5,-225.28 368.5,-225.28 368.5,-228.37 365.42,-231.45 362.33,-231.45"/>
<text text-anchor="start" x="284" y="-218.9" font-family="Helvetica,sans-Serif" font-size="9.00">useLevelSystem.ts</text>
</a>
</g>
</g>
<!-- src/components/LevelSystem/LevelProgress.tsx&#45;&gt;src/hooks/useLevelSystem.ts -->
<g id="edge15" class="edge">
<title>src/components/LevelSystem/LevelProgress.tsx&#45;&gt;src/hooks/useLevelSystem.ts</title>
<path fill="none" stroke="#000000" stroke-width="2" stroke-opacity="0.200000" d="M102.95,-368.45C111.34,-364.94 120.6,-360.72 128.75,-356.2 195.96,-318.93 268.69,-263.78 302.28,-237.38"/>
<polygon fill="#000000" fill-opacity="0.200000" stroke="#000000" stroke-width="2" stroke-opacity="0.200000" points="303.43,-239.14 306.83,-233.77 300.83,-235.85 303.43,-239.14"/>
</g>
<!-- src/hooks/useLevelSystem.ts&#45;&gt;src/contexts/GameContext.tsx -->
<g id="edge49" class="edge">
<title>src/hooks/useLevelSystem.ts&#45;&gt;src/contexts/GameContext.tsx</title>
<path fill="none" stroke="#000000" stroke-width="2" stroke-opacity="0.200000" d="M355.21,-231.82C370.45,-238.17 387.31,-248.15 396.5,-263.2 409.53,-284.55 388.89,-468.65 404.5,-488.2 407.34,-491.76 410.88,-494.59 414.81,-496.82"/>
<polygon fill="#000000" fill-opacity="0.200000" stroke="#000000" stroke-width="2" stroke-opacity="0.200000" points="413.68,-498.61 420.01,-499.17 415.41,-494.78 413.68,-498.61"/>
</g>
<!-- src/hooks/useLevelSystem.ts&#45;&gt;src/lib/levelSystem.ts -->
<g id="edge52" class="edge">
<title>src/hooks/useLevelSystem.ts&#45;&gt;src/lib/levelSystem.ts</title>
<path fill="none" stroke="#000000" stroke-width="2" stroke-opacity="0.200000" d="M346.86,-231.91C362.19,-239.01 381.95,-249.74 396.5,-263.2 401.21,-267.55 399.43,-271.28 404.5,-275.2 452.04,-311.89 473.02,-309.29 532.25,-319.2 581.89,-327.51 596.24,-329.56 645.5,-319.2 654.81,-317.24 664.49,-313.52 672.94,-309.63"/>
<polygon fill="#000000" fill-opacity="0.200000" stroke="#000000" stroke-width="2" stroke-opacity="0.200000" points="673.74,-311.58 678.21,-307.06 671.9,-307.8 673.74,-311.58"/>
</g>
<!-- src/hooks/useLevelSystem.ts&#45;&gt;src/contexts/LanguageContext.tsx -->
<g id="edge50" class="edge">
<title>src/hooks/useLevelSystem.ts&#45;&gt;src/contexts/LanguageContext.tsx</title>
<path fill="none" stroke="#000000" stroke-width="2" stroke-opacity="0.200000" d="M327.21,-231.78C339.64,-262.32 378.19,-360.35 396.5,-445.2 399.99,-461.37 393.72,-506.65 404.5,-519.2 405.26,-520.08 406.05,-520.91 406.89,-521.7"/>
<polygon fill="#000000" fill-opacity="0.200000" stroke="#000000" stroke-width="2" stroke-opacity="0.200000" points="405.44,-523.24 411.51,-525.14 407.95,-519.88 405.44,-523.24"/>
</g>
<!-- src/contexts/NotificationContext.tsx -->
<g id="node23" class="node">
<title>src/contexts/NotificationContext.tsx</title>
<g id="a_node23"><a xlink:href="src/contexts/NotificationContext.tsx" xlink:title="NotificationContext.tsx">
<path fill="#bbfeff" stroke="black" d="M513.08,-482.45C513.08,-482.45 418.67,-482.45 418.67,-482.45 415.58,-482.45 412.5,-479.37 412.5,-476.28 412.5,-476.28 412.5,-470.12 412.5,-470.12 412.5,-467.03 415.58,-463.95 418.67,-463.95 418.67,-463.95 513.08,-463.95 513.08,-463.95 516.17,-463.95 519.25,-467.03 519.25,-470.12 519.25,-470.12 519.25,-476.28 519.25,-476.28 519.25,-479.37 516.17,-482.45 513.08,-482.45"/>
<text text-anchor="start" x="420.5" y="-469.9" font-family="Helvetica,sans-Serif" font-size="9.00">NotificationContext.tsx</text>
</a>
</g>
</g>
<!-- src/hooks/useLevelSystem.ts&#45;&gt;src/contexts/NotificationContext.tsx -->
<g id="edge51" class="edge">
<title>src/hooks/useLevelSystem.ts&#45;&gt;src/contexts/NotificationContext.tsx</title>
<path fill="none" stroke="#000000" stroke-width="2" stroke-opacity="0.200000" d="M355.18,-231.84C370.4,-238.19 387.27,-248.17 396.5,-263.2 407.79,-281.58 390.99,-440.38 404.5,-457.2 404.77,-457.54 405.05,-457.87 405.33,-458.19"/>
<polygon fill="#000000" fill-opacity="0.200000" stroke="#000000" stroke-width="2" stroke-opacity="0.200000" points="403.91,-459.74 409.81,-462.11 406.67,-456.58 403.91,-459.74"/>
</g>
<!-- src/components/LootBox.tsx -->
<g id="node15" class="node">
<title>src/components/LootBox.tsx</title>
<g id="a_node15"><a xlink:href="src/components/LootBox.tsx" xlink:title="LootBox.tsx">
<path fill="#bbfeff" stroke="black" d="M347.71,-651.45C347.71,-651.45 296.79,-651.45 296.79,-651.45 293.71,-651.45 290.62,-648.37 290.62,-645.28 290.62,-645.28 290.62,-639.12 290.62,-639.12 290.62,-636.03 293.71,-632.95 296.79,-632.95 296.79,-632.95 347.71,-632.95 347.71,-632.95 350.79,-632.95 353.88,-636.03 353.88,-639.12 353.88,-639.12 353.88,-645.28 353.88,-645.28 353.88,-648.37 350.79,-651.45 347.71,-651.45"/>
<text text-anchor="start" x="298.62" y="-638.9" font-family="Helvetica,sans-Serif" font-size="9.00">LootBox.tsx</text>
</a>
</g>
</g>
<!-- src/components/LootBox.tsx&#45;&gt;src/contexts/GameContext.tsx -->
<g id="edge16" class="edge">
<title>src/components/LootBox.tsx&#45;&gt;src/contexts/GameContext.tsx</title>
<path fill="none" stroke="#000000" stroke-width="2" stroke-opacity="0.200000" d="M354.18,-644.38C369.14,-643.66 386.08,-639.89 396.5,-628.2 412.51,-610.23 389.13,-538.72 404.5,-520.2 407.3,-516.83 410.71,-514.13 414.48,-511.96"/>
<polygon fill="#000000" fill-opacity="0.200000" stroke="#000000" stroke-width="2" stroke-opacity="0.200000" points="415.3,-513.9 419.88,-509.49 413.55,-510.08 415.3,-513.9"/>
</g>
<!-- src/components/LootBox.tsx&#45;&gt;src/contexts/LanguageContext.tsx -->
<g id="edge17" class="edge">
<title>src/components/LootBox.tsx&#45;&gt;src/contexts/LanguageContext.tsx</title>
<path fill="none" stroke="#000000" stroke-width="2" stroke-opacity="0.200000" d="M354.34,-641.32C368.13,-639.71 384.02,-636.07 396.5,-628.2 425.7,-609.78 446.56,-574.04 457.09,-552.63"/>
<polygon fill="#000000" fill-opacity="0.200000" stroke="#000000" stroke-width="2" stroke-opacity="0.200000" points="458.88,-553.74 459.55,-547.41 455.09,-551.94 458.88,-553.74"/>
</g>
<!-- src/components/RewardSystem/LevelSystem.tsx -->
<g id="node16" class="node">
<title>src/components/RewardSystem/LevelSystem.tsx</title>
<g id="a_node16"><a xlink:href="src/components/RewardSystem/LevelSystem.tsx" xlink:title="LevelSystem.tsx">
<path fill="#bbfeff" stroke="black" d="M228.71,-690.45C228.71,-690.45 159.04,-690.45 159.04,-690.45 155.96,-690.45 152.88,-687.37 152.88,-684.28 152.88,-684.28 152.88,-678.12 152.88,-678.12 152.88,-675.03 155.96,-671.95 159.04,-671.95 159.04,-671.95 228.71,-671.95 228.71,-671.95 231.79,-671.95 234.88,-675.03 234.88,-678.12 234.88,-678.12 234.88,-684.28 234.88,-684.28 234.88,-687.37 231.79,-690.45 228.71,-690.45"/>
<text text-anchor="start" x="160.88" y="-677.9" font-family="Helvetica,sans-Serif" font-size="9.00">LevelSystem.tsx</text>
</a>
</g>
</g>
<!-- src/components/RewardSystem/LevelSystem.tsx&#45;&gt;src/contexts/GameContext.tsx -->
<g id="edge18" class="edge">
<title>src/components/RewardSystem/LevelSystem.tsx&#45;&gt;src/contexts/GameContext.tsx</title>
<path fill="none" stroke="#000000" stroke-width="2" stroke-opacity="0.200000" d="M227.37,-690.86C272.21,-701.97 352.49,-713.46 396.5,-669.2 408.19,-657.44 394.04,-533.06 404.5,-520.2 407.26,-516.8 410.65,-514.08 414.41,-511.9"/>
<polygon fill="#000000" fill-opacity="0.200000" stroke="#000000" stroke-width="2" stroke-opacity="0.200000" points="415.22,-513.84 419.79,-509.42 413.47,-510.02 415.22,-513.84"/>
</g>
<!-- src/components/RewardSystem/LevelSystem.tsx&#45;&gt;src/lib/levelSystem.ts -->
<g id="edge20" class="edge">
<title>src/components/RewardSystem/LevelSystem.tsx&#45;&gt;src/lib/levelSystem.ts</title>
<path fill="none" stroke="#000000" stroke-width="2" stroke-opacity="0.200000" d="M206.18,-690.79C219.15,-701.12 241.55,-716.91 264,-723.2 320.71,-739.08 338.06,-730.49 396.5,-723.2 519.77,-707.82 581.38,-702.61 645.5,-596.2 674.58,-547.94 691.46,-372.04 696.29,-314.53"/>
<polygon fill="#000000" fill-opacity="0.200000" stroke="#000000" stroke-width="2" stroke-opacity="0.200000" points="698.37,-314.95 696.76,-308.8 694.18,-314.61 698.37,-314.95"/>
</g>
<!-- src/components/RewardSystem/LevelSystem.tsx&#45;&gt;src/contexts/LanguageContext.tsx -->
<g id="edge19" class="edge">
<title>src/components/RewardSystem/LevelSystem.tsx&#45;&gt;src/contexts/LanguageContext.tsx</title>
<path fill="none" stroke="#000000" stroke-width="2" stroke-opacity="0.200000" d="M212.05,-690.92C249.24,-710.55 338.53,-749.79 396.5,-710.2 449.42,-674.06 461.38,-590.34 464.09,-553.34"/>
<polygon fill="#000000" fill-opacity="0.200000" stroke="#000000" stroke-width="2" stroke-opacity="0.200000" points="466.17,-553.74 464.43,-547.63 461.97,-553.49 466.17,-553.74"/>
</g>
<!-- src/components/RewardSystem/XPSystem.tsx -->
<g id="node17" class="node">
<title>src/components/RewardSystem/XPSystem.tsx</title>
<g id="a_node17"><a xlink:href="src/components/RewardSystem/XPSystem.tsx" xlink:title="XPSystem.tsx">
<path fill="#bbfeff" stroke="black" d="M223.46,-659.45C223.46,-659.45 164.29,-659.45 164.29,-659.45 161.21,-659.45 158.12,-656.37 158.12,-653.28 158.12,-653.28 158.12,-647.12 158.12,-647.12 158.12,-644.03 161.21,-640.95 164.29,-640.95 164.29,-640.95 223.46,-640.95 223.46,-640.95 226.54,-640.95 229.62,-644.03 229.62,-647.12 229.62,-647.12 229.62,-653.28 229.62,-653.28 229.62,-656.37 226.54,-659.45 223.46,-659.45"/>
<text text-anchor="start" x="166.12" y="-646.9" font-family="Helvetica,sans-Serif" font-size="9.00">XPSystem.tsx</text>
</a>
</g>
</g>
<!-- src/components/RewardSystem/XPSystem.tsx&#45;&gt;src/contexts/GameContext.tsx -->
<g id="edge21" class="edge">
<title>src/components/RewardSystem/XPSystem.tsx&#45;&gt;src/contexts/GameContext.tsx</title>
<path fill="none" stroke="#000000" stroke-width="2" stroke-opacity="0.200000" d="M229.86,-657.51C281.19,-667.31 373.31,-681.09 396.5,-659.2 407.75,-648.58 394.72,-532.18 404.5,-520.2 407.27,-516.81 410.67,-514.09 414.42,-511.91"/>
<polygon fill="#000000" fill-opacity="0.200000" stroke="#000000" stroke-width="2" stroke-opacity="0.200000" points="415.24,-513.85 419.81,-509.44 413.48,-510.03 415.24,-513.85"/>
</g>
<!-- src/components/RewardSystem/XPSystem.tsx&#45;&gt;src/lib/levelSystem.ts -->
<g id="edge23" class="edge">
<title>src/components/RewardSystem/XPSystem.tsx&#45;&gt;src/lib/levelSystem.ts</title>
<path fill="none" stroke="#000000" stroke-width="2" stroke-opacity="0.200000" d="M230.05,-654.95C237.65,-657.33 245.15,-660.89 251,-666.2 262.68,-676.79 250.97,-690.33 264,-699.2 360.49,-764.89 423.35,-715.4 522.75,-654.2 586.93,-614.68 608.61,-602.92 645.5,-537.2 687.59,-462.2 695.8,-356.5 697.38,-314.47"/>
<polygon fill="#000000" fill-opacity="0.200000" stroke="#000000" stroke-width="2" stroke-opacity="0.200000" points="699.47,-314.72 697.56,-308.66 695.28,-314.59 699.47,-314.72"/>
</g>
<!-- src/components/RewardSystem/XPSystem.tsx&#45;&gt;src/contexts/LanguageContext.tsx -->
<g id="edge22" class="edge">
<title>src/components/RewardSystem/XPSystem.tsx&#45;&gt;src/contexts/LanguageContext.tsx</title>
<path fill="none" stroke="#000000" stroke-width="2" stroke-opacity="0.200000" d="M230.04,-656.34C237.38,-658.66 244.78,-661.84 251,-666.2 259.08,-671.86 255.21,-679.71 264,-684.2 316.43,-711.01 346.93,-715.99 396.5,-684.2 442.29,-654.83 457.82,-586.26 462.75,-553.39"/>
<polygon fill="#000000" fill-opacity="0.200000" stroke="#000000" stroke-width="2" stroke-opacity="0.200000" points="464.79,-554 463.51,-547.78 460.62,-553.44 464.79,-554"/>
</g>
<!-- src/components/RewardSystem/XPSystem.tsx&#45;&gt;src/components/LootBox.tsx -->
<g id="edge24" class="edge">
<title>src/components/RewardSystem/XPSystem.tsx&#45;&gt;src/components/LootBox.tsx</title>
<path fill="none" stroke="#000000" stroke-width="2" stroke-opacity="0.200000" d="M230.08,-647.97C246.1,-646.96 265.13,-645.75 281.65,-644.71"/>
<polygon fill="#000000" fill-opacity="0.200000" stroke="#000000" stroke-width="2" stroke-opacity="0.200000" points="281.66,-646.81 287.51,-644.34 281.39,-642.62 281.66,-646.81"/>
</g>
<!-- src/components/RewardSystem/index.ts -->
<g id="node18" class="node">
<title>src/components/RewardSystem/index.ts</title>
<g id="a_node18"><a xlink:href="src/components/RewardSystem/index.ts" xlink:title="index.ts">
<path fill="#ddfeff" stroke="black" d="M97.21,-674.45C97.21,-674.45 55.54,-674.45 55.54,-674.45 52.46,-674.45 49.38,-671.37 49.38,-668.28 49.38,-668.28 49.38,-662.12 49.38,-662.12 49.38,-659.03 52.46,-655.95 55.54,-655.95 55.54,-655.95 97.21,-655.95 97.21,-655.95 100.29,-655.95 103.38,-659.03 103.38,-662.12 103.38,-662.12 103.38,-668.28 103.38,-668.28 103.38,-671.37 100.29,-674.45 97.21,-674.45"/>
<text text-anchor="start" x="60.62" y="-661.9" font-family="Helvetica,sans-Serif" font-size="9.00">index.ts</text>
</a>
</g>
</g>
<!-- src/components/RewardSystem/index.ts&#45;&gt;src/components/RewardSystem/LevelSystem.tsx -->
<g id="edge25" class="edge">
<title>src/components/RewardSystem/index.ts&#45;&gt;src/components/RewardSystem/LevelSystem.tsx</title>
<path fill="none" stroke="#000000" stroke-width="2" stroke-opacity="0.200000" d="M103.87,-668.87C116.24,-670.58 131.33,-672.67 145.56,-674.64"/>
<polygon fill="#000000" fill-opacity="0.200000" stroke="#000000" stroke-width="2" stroke-opacity="0.200000" points="151.17,-677.54 145.52,-674.64 151.75,-673.38 151.17,-677.54"/>
</g>
<!-- src/components/RewardSystem/index.ts&#45;&gt;src/components/RewardSystem/XPSystem.tsx -->
<g id="edge26" class="edge">
<title>src/components/RewardSystem/index.ts&#45;&gt;src/components/RewardSystem/XPSystem.tsx</title>
<path fill="none" stroke="#000000" stroke-width="2" stroke-opacity="0.200000" d="M103.87,-661.76C117.73,-659.96 135.03,-657.71 150.68,-655.68"/>
<polygon fill="#000000" fill-opacity="0.200000" stroke="#000000" stroke-width="2" stroke-opacity="0.200000" points="157.02,-656.97 150.8,-655.66 156.48,-652.81 157.02,-656.97"/>
</g>
<!-- src/components/UserProgress.tsx -->
<g id="node19" class="node">
<title>src/components/UserProgress.tsx</title>
<g id="a_node19"><a xlink:href="src/components/UserProgress.tsx" xlink:title="UserProgress.tsx">
<path fill="#bbfeff" stroke="black" d="M113.08,-292.45C113.08,-292.45 39.67,-292.45 39.67,-292.45 36.58,-292.45 33.5,-289.37 33.5,-286.28 33.5,-286.28 33.5,-280.12 33.5,-280.12 33.5,-277.03 36.58,-273.95 39.67,-273.95 39.67,-273.95 113.08,-273.95 113.08,-273.95 116.17,-273.95 119.25,-277.03 119.25,-280.12 119.25,-280.12 119.25,-286.28 119.25,-286.28 119.25,-289.37 116.17,-292.45 113.08,-292.45"/>
<text text-anchor="start" x="41.5" y="-279.9" font-family="Helvetica,sans-Serif" font-size="9.00">UserProgress.tsx</text>
</a>
</g>
</g>
<!-- src/components/UserProgress.tsx&#45;&gt;src/contexts/GameContext.tsx -->
<g id="edge27" class="edge">
<title>src/components/UserProgress.tsx&#45;&gt;src/contexts/GameContext.tsx</title>
<path fill="none" stroke="#000000" stroke-width="2" stroke-opacity="0.200000" d="M119.55,-283.35C189.75,-286.11 329.46,-302.86 396.5,-389.2 410.04,-406.63 390.35,-471.26 404.5,-488.2 407.31,-491.56 410.73,-494.26 414.51,-496.42"/>
<polygon fill="#000000" fill-opacity="0.200000" stroke="#000000" stroke-width="2" stroke-opacity="0.200000" points="413.58,-498.3 419.91,-498.88 415.33,-494.48 413.58,-498.3"/>
</g>
<!-- src/components/UserProgress.tsx&#45;&gt;src/lib/levelSystem.ts -->
<g id="edge28" class="edge">
<title>src/components/UserProgress.tsx&#45;&gt;src/lib/levelSystem.ts</title>
<path fill="none" stroke="#000000" stroke-width="2" stroke-opacity="0.200000" d="M78.12,-273.49C81.61,-230.85 97.84,-60.85 136.75,-28.2 199.66,24.58 239.13,-18.2 321.25,-18.2 321.25,-18.2 321.25,-18.2 466.88,-18.2 546.39,-18.2 589.96,28.7 645.5,-28.2 665.07,-48.25 637.05,-257.53 653.5,-280.2 653.83,-280.65 654.17,-281.1 654.53,-281.52"/>
<polygon fill="#000000" fill-opacity="0.200000" stroke="#000000" stroke-width="2" stroke-opacity="0.200000" points="653.13,-283.09 659.03,-285.45 655.89,-279.92 653.13,-283.09"/>
</g>
<!-- src/components/profile/ProfileCard.tsx -->
<g id="node20" class="node">
<title>src/components/profile/ProfileCard.tsx</title>
<g id="a_node20"><a xlink:href="src/components/profile/ProfileCard.tsx" xlink:title="ProfileCard.tsx">
<path fill="#bbfeff" stroke="black" d="M108.21,-326.45C108.21,-326.45 44.54,-326.45 44.54,-326.45 41.46,-326.45 38.38,-323.37 38.38,-320.28 38.38,-320.28 38.38,-314.12 38.38,-314.12 38.38,-311.03 41.46,-307.95 44.54,-307.95 44.54,-307.95 108.21,-307.95 108.21,-307.95 111.29,-307.95 114.38,-311.03 114.38,-314.12 114.38,-314.12 114.38,-320.28 114.38,-320.28 114.38,-323.37 111.29,-326.45 108.21,-326.45"/>
<text text-anchor="start" x="46.38" y="-313.9" font-family="Helvetica,sans-Serif" font-size="9.00">ProfileCard.tsx</text>
</a>
</g>
</g>
<!-- src/components/profile/ProfileCard.tsx&#45;&gt;src/lib/levelSystem.ts -->
<g id="edge29" class="edge">
<title>src/components/profile/ProfileCard.tsx&#45;&gt;src/lib/levelSystem.ts</title>
<path fill="none" stroke="#000000" stroke-width="2" stroke-opacity="0.200000" d="M114.7,-312.83C119.91,-310.85 124.82,-308.08 128.75,-304.2 138.57,-294.5 131.13,-286.8 136.75,-274.2 178.89,-179.68 194.93,-156.26 264,-79.2 285.97,-54.69 288.33,-32.2 321.25,-32.2 321.25,-32.2 321.25,-32.2 466.88,-32.2 506.73,-32.2 618.1,-19.26 645.5,-48.2 663.23,-66.93 638.32,-259.34 653.5,-280.2 653.83,-280.65 654.18,-281.09 654.53,-281.52"/>
<polygon fill="#000000" fill-opacity="0.200000" stroke="#000000" stroke-width="2" stroke-opacity="0.200000" points="653.14,-283.09 659.04,-285.45 655.89,-279.92 653.14,-283.09"/>
</g>
<!-- src/contexts/__tests__/battlelogic.test.ts -->
<g id="node24" class="node">
<title>src/contexts/__tests__/battlelogic.test.ts</title>
<g id="a_node24"><a xlink:href="src/contexts/__tests__/battlelogic.test.ts" xlink:title="battlelogic.test.ts">
<path fill="#ddfeff" stroke="black" d="M501.46,-398.45C501.46,-398.45 430.29,-398.45 430.29,-398.45 427.21,-398.45 424.12,-395.37 424.12,-392.28 424.12,-392.28 424.12,-386.12 424.12,-386.12 424.12,-383.03 427.21,-379.95 430.29,-379.95 430.29,-379.95 501.46,-379.95 501.46,-379.95 504.54,-379.95 507.62,-383.03 507.62,-386.12 507.62,-386.12 507.62,-392.28 507.62,-392.28 507.62,-395.37 504.54,-398.45 501.46,-398.45"/>
<text text-anchor="start" x="432.12" y="-385.9" font-family="Helvetica,sans-Serif" font-size="9.00">battlelogic.test.ts</text>
</a>
</g>
</g>
<!-- src/contexts/__tests__/battlelogic.test.ts&#45;&gt;src/config/battleConfig.ts -->
<g id="edge30" class="edge">
<title>src/contexts/__tests__/battlelogic.test.ts&#45;&gt;src/config/battleConfig.ts</title>
<path fill="none" stroke="#000000" stroke-width="2" stroke-opacity="0.200000" d="M508.07,-392.83C513.59,-394.91 518.73,-397.91 522.75,-402.2 540.33,-420.93 512.65,-442.6 532.25,-459.2 570.66,-491.73 597.96,-475.74 645.5,-459.2 711.02,-436.4 763.66,-367.45 785.42,-335.19"/>
<polygon fill="#000000" fill-opacity="0.200000" stroke="#000000" stroke-width="2" stroke-opacity="0.200000" points="787.06,-336.52 788.61,-330.35 783.56,-334.2 787.06,-336.52"/>
</g>
<!-- src/contexts/game/battle.ts -->
<g id="node25" class="node">
<title>src/contexts/game/battle.ts</title>
<g id="a_node25"><a xlink:href="src/contexts/game/battle.ts" xlink:title="battle.ts">
<path fill="#ddfeff" stroke="black" d="M605.71,-429.45C605.71,-429.45 564.04,-429.45 564.04,-429.45 560.96,-429.45 557.88,-426.37 557.88,-423.28 557.88,-423.28 557.88,-417.12 557.88,-417.12 557.88,-414.03 560.96,-410.95 564.04,-410.95 564.04,-410.95 605.71,-410.95 605.71,-410.95 608.79,-410.95 611.88,-414.03 611.88,-417.12 611.88,-417.12 611.88,-423.28 611.88,-423.28 611.88,-426.37 608.79,-429.45 605.71,-429.45"/>
<text text-anchor="start" x="569.12" y="-416.9" font-family="Helvetica,sans-Serif" font-size="9.00">battle.ts</text>
</a>
</g>
</g>
<!-- src/contexts/__tests__/battlelogic.test.ts&#45;&gt;src/contexts/game/battle.ts -->
<g id="edge31" class="edge">
<title>src/contexts/__tests__/battlelogic.test.ts&#45;&gt;src/contexts/game/battle.ts</title>
<path fill="none" stroke="#000000" stroke-width="2" stroke-opacity="0.200000" d="M507.83,-398.44C512.87,-399.66 517.93,-400.93 522.75,-402.2 531.25,-404.44 540.35,-407.02 548.87,-409.51"/>
<polygon fill="#000000" fill-opacity="0.200000" stroke="#000000" stroke-width="2" stroke-opacity="0.200000" points="548.24,-411.52 554.59,-411.21 549.43,-407.49 548.24,-411.52"/>
</g>
<!-- src/contexts/game/battle.ts&#45;&gt;src/config/battleConfig.ts -->
<g id="edge32" class="edge">
<title>src/contexts/game/battle.ts&#45;&gt;src/config/battleConfig.ts</title>
<path fill="none" stroke="#000000" stroke-width="2" stroke-opacity="0.200000" d="M612.18,-414.68C622.74,-412.07 634.89,-408.56 645.5,-404.2 694.15,-384.18 746.56,-351.47 774.97,-332.69"/>
<polygon fill="#000000" fill-opacity="0.200000" stroke="#000000" stroke-width="2" stroke-opacity="0.200000" points="775.98,-334.54 779.8,-329.46 773.65,-331.04 775.98,-334.54"/>
</g>
<!-- src/types/battle.ts -->
<g id="node26" class="node">
<title>src/types/battle.ts</title>
<g id="a_node26"><a xlink:href="src/types/battle.ts" xlink:title="battle.ts">
<path fill="#ddfeff" stroke="black" d="M719.58,-163.45C719.58,-163.45 677.92,-163.45 677.92,-163.45 674.83,-163.45 671.75,-160.37 671.75,-157.28 671.75,-157.28 671.75,-151.12 671.75,-151.12 671.75,-148.03 674.83,-144.95 677.92,-144.95 677.92,-144.95 719.58,-144.95 719.58,-144.95 722.67,-144.95 725.75,-148.03 725.75,-151.12 725.75,-151.12 725.75,-157.28 725.75,-157.28 725.75,-160.37 722.67,-163.45 719.58,-163.45"/>
<text text-anchor="start" x="683" y="-150.9" font-family="Helvetica,sans-Serif" font-size="9.00">battle.ts</text>
</a>
</g>
</g>
<!-- src/contexts/game/battle.ts&#45;&gt;src/types/battle.ts -->
<g id="edge33" class="edge">
<title>src/contexts/game/battle.ts&#45;&gt;src/types/battle.ts</title>
<path fill="none" stroke="#000000" stroke-width="2" stroke-opacity="0.200000" d="M612.32,-419.9C624.35,-418.27 637.63,-414.1 645.5,-404.2 661.68,-383.83 638.19,-191.24 653.5,-170.2 656.07,-166.67 659.49,-163.92 663.3,-161.77"/>
<polygon fill="#000000" fill-opacity="0.200000" stroke="#000000" stroke-width="2" stroke-opacity="0.200000" points="664.1,-163.71 668.75,-159.38 662.41,-159.87 664.1,-163.71"/>
</g>
<!-- src/contexts/game/utils.ts -->
<g id="node27" class="node">
<title>src/contexts/game/utils.ts</title>
<g id="a_node27"><a xlink:href="src/contexts/game/utils.ts" xlink:title="utils.ts">
<path fill="#ddfeff" stroke="black" d="M605.71,-398.45C605.71,-398.45 564.04,-398.45 564.04,-398.45 560.96,-398.45 557.88,-395.37 557.88,-392.28 557.88,-392.28 557.88,-386.12 557.88,-386.12 557.88,-383.03 560.96,-379.95 564.04,-379.95 564.04,-379.95 605.71,-379.95 605.71,-379.95 608.79,-379.95 611.88,-383.03 611.88,-386.12 611.88,-386.12 611.88,-392.28 611.88,-392.28 611.88,-395.37 608.79,-398.45 605.71,-398.45"/>
<text text-anchor="start" x="572.12" y="-385.9" font-family="Helvetica,sans-Serif" font-size="9.00">utils.ts</text>
</a>
</g>
</g>
<!-- src/contexts/game/utils.ts&#45;&gt;src/lib/levelSystem.ts -->
<g id="edge34" class="edge">
<title>src/contexts/game/utils.ts&#45;&gt;src/lib/levelSystem.ts</title>
<path fill="none" stroke="#000000" stroke-width="2" stroke-opacity="0.200000" d="M610.72,-379.47C621.98,-374.4 635.07,-367.5 645.5,-359.2 662.04,-346.03 677.01,-326.89 686.64,-313.16"/>
<polygon fill="#000000" fill-opacity="0.200000" stroke="#000000" stroke-width="2" stroke-opacity="0.200000" points="688.31,-314.43 689.96,-308.29 684.84,-312.07 688.31,-314.43"/>
</g>
<!-- src/hooks/useAchievements.ts -->
<g id="node28" class="node">
<title>src/hooks/useAchievements.ts</title>
<g id="a_node28"><a xlink:href="src/hooks/useAchievements.ts" xlink:title="useAchievements.ts">
<path fill="#ddfeff" stroke="black" d="M508.58,-200.45C508.58,-200.45 423.17,-200.45 423.17,-200.45 420.08,-200.45 417,-197.37 417,-194.28 417,-194.28 417,-188.12 417,-188.12 417,-185.03 420.08,-181.95 423.17,-181.95 423.17,-181.95 508.58,-181.95 508.58,-181.95 511.67,-181.95 514.75,-185.03 514.75,-188.12 514.75,-188.12 514.75,-194.28 514.75,-194.28 514.75,-197.37 511.67,-200.45 508.58,-200.45"/>
<text text-anchor="start" x="425" y="-187.9" font-family="Helvetica,sans-Serif" font-size="9.00">useAchievements.ts</text>
</a>
</g>
</g>
<!-- src/hooks/useAchievements.ts&#45;&gt;src/contexts/GameContext.tsx -->
<g id="edge35" class="edge">
<title>src/hooks/useAchievements.ts&#45;&gt;src/contexts/GameContext.tsx</title>
<path fill="none" stroke="#000000" stroke-width="2" stroke-opacity="0.200000" d="M416.66,-196.31C409.09,-199.75 402.96,-205.06 400.5,-213.2 396.17,-227.5 396.17,-467.9 400.5,-482.2 402.72,-489.53 407.91,-494.57 414.45,-498.01"/>
<polygon fill="#000000" fill-opacity="0.200000" stroke="#000000" stroke-width="2" stroke-opacity="0.200000" points="413.5,-499.89 419.85,-500.21 415.09,-496 413.5,-499.89"/>
</g>
<!-- src/hooks/useBattle.ts -->
<g id="node29" class="node">
<title>src/hooks/useBattle.ts</title>
<g id="a_node29"><a xlink:href="src/hooks/useBattle.ts" xlink:title="useBattle.ts">
<path fill="#ddfeff" stroke="black" d="M347.71,-169.45C347.71,-169.45 296.79,-169.45 296.79,-169.45 293.71,-169.45 290.62,-166.37 290.62,-163.28 290.62,-163.28 290.62,-157.12 290.62,-157.12 290.62,-154.03 293.71,-150.95 296.79,-150.95 296.79,-150.95 347.71,-150.95 347.71,-150.95 350.79,-150.95 353.88,-154.03 353.88,-157.12 353.88,-157.12 353.88,-163.28 353.88,-163.28 353.88,-166.37 350.79,-169.45 347.71,-169.45"/>
<text text-anchor="start" x="298.62" y="-156.9" font-family="Helvetica,sans-Serif" font-size="9.00">useBattle.ts</text>
</a>
</g>
</g>
<!-- src/hooks/useBattle.ts&#45;&gt;src/contexts/GameContext.tsx -->
<g id="edge38" class="edge">
<title>src/hooks/useBattle.ts&#45;&gt;src/contexts/GameContext.tsx</title>
<path fill="none" stroke="#000000" stroke-width="2" stroke-opacity="0.200000" d="M354.13,-158.7C369.27,-159.75 386.38,-163.96 396.5,-176.2 418.59,-202.93 383,-460.99 404.5,-488.2 407.33,-491.78 410.85,-494.61 414.77,-496.85"/>
<polygon fill="#000000" fill-opacity="0.200000" stroke="#000000" stroke-width="2" stroke-opacity="0.200000" points="413.63,-498.64 419.96,-499.21 415.37,-494.81 413.63,-498.64"/>
</g>
<!-- src/hooks/useBattle.ts&#45;&gt;src/lib/levelSystem.ts -->
<g id="edge41" class="edge">
<title>src/hooks/useBattle.ts&#45;&gt;src/lib/levelSystem.ts</title>
<path fill="none" stroke="#000000" stroke-width="2" stroke-opacity="0.200000" d="M354.17,-161.63C408.73,-164.3 516.91,-170.31 522.75,-176.2 543.31,-196.92 510.88,-287.32 532.25,-307.2 568.95,-341.33 632.24,-323.97 669.01,-309.35"/>
<polygon fill="#000000" fill-opacity="0.200000" stroke="#000000" stroke-width="2" stroke-opacity="0.200000" points="669.77,-311.31 674.52,-307.08 668.17,-307.43 669.77,-311.31"/>
</g>
<!-- src/hooks/useBattle.ts&#45;&gt;src/contexts/LanguageContext.tsx -->
<g id="edge39" class="edge">
<title>src/hooks/useBattle.ts&#45;&gt;src/contexts/LanguageContext.tsx</title>
<path fill="none" stroke="#000000" stroke-width="2" stroke-opacity="0.200000" d="M354.14,-158.69C369.29,-159.74 386.4,-163.95 396.5,-176.2 408.63,-190.91 392.7,-504.23 404.5,-519.2 405.24,-520.13 406.02,-521.02 406.85,-521.85"/>
<polygon fill="#000000" fill-opacity="0.200000" stroke="#000000" stroke-width="2" stroke-opacity="0.200000" points="405.51,-523.47 411.53,-525.5 408.09,-520.16 405.51,-523.47"/>
</g>
<!-- src/hooks/useBattle.ts&#45;&gt;src/config/battleConfig.ts -->
<g id="edge36" class="edge">
<title>src/hooks/useBattle.ts&#45;&gt;src/config/battleConfig.ts</title>
<path fill="none" stroke="#000000" stroke-width="2" stroke-opacity="0.200000" d="M354.36,-159.21C369.18,-160.46 385.93,-164.7 396.5,-176.2 415,-196.33 389.98,-214.03 404.5,-237.2 440.58,-294.78 468.38,-298.01 532.25,-321.2 620.9,-353.39 650.85,-349.97 744,-335.2 750.41,-334.18 757.11,-332.5 763.48,-330.59"/>
<polygon fill="#000000" fill-opacity="0.200000" stroke="#000000" stroke-width="2" stroke-opacity="0.200000" points="763.98,-332.64 769.04,-328.8 762.69,-328.64 763.98,-332.64"/>
</g>
<!-- src/hooks/useBattle.ts&#45;&gt;src/contexts/AuthContext.tsx -->
<g id="edge37" class="edge">
<title>src/hooks/useBattle.ts&#45;&gt;src/contexts/AuthContext.tsx</title>
<path fill="none" stroke="#000000" stroke-width="2" stroke-opacity="0.200000" d="M354.1,-158.73C369.23,-159.78 386.35,-163.99 396.5,-176.2 414.41,-197.74 386.73,-406.55 404.5,-428.2 407.91,-432.36 412.29,-435.42 417.13,-437.67"/>
<polygon fill="#000000" fill-opacity="0.200000" stroke="#000000" stroke-width="2" stroke-opacity="0.200000" points="416.42,-439.64 422.77,-439.69 417.84,-435.69 416.42,-439.64"/>
</g>
<!-- src/hooks/useBattle.ts&#45;&gt;src/contexts/NotificationContext.tsx -->
<g id="edge40" class="edge">
<title>src/hooks/useBattle.ts&#45;&gt;src/contexts/NotificationContext.tsx</title>
<path fill="none" stroke="#000000" stroke-width="2" stroke-opacity="0.200000" d="M354.12,-158.71C369.25,-159.77 386.37,-163.97 396.5,-176.2 416.43,-200.25 385.1,-432.72 404.5,-457.2 404.77,-457.54 405.05,-457.87 405.33,-458.2"/>
<polygon fill="#000000" fill-opacity="0.200000" stroke="#000000" stroke-width="2" stroke-opacity="0.200000" points="403.89,-459.73 409.78,-462.13 406.67,-456.58 403.89,-459.73"/>
</g>
<!-- src/hooks/useBattle.ts&#45;&gt;src/hooks/useAchievements.ts -->
<g id="edge44" class="edge">
<title>src/hooks/useBattle.ts&#45;&gt;src/hooks/useAchievements.ts</title>
<path fill="none" stroke="#000000" stroke-width="2" stroke-opacity="0.200000" d="M354.26,-166.97C367.3,-169.81 382.64,-173.17 396.5,-176.2 401.52,-177.3 406.75,-178.44 411.97,-179.59"/>
<polygon fill="#000000" fill-opacity="0.200000" stroke="#000000" stroke-width="2" stroke-opacity="0.200000" points="411.47,-181.63 417.78,-180.86 412.37,-177.53 411.47,-181.63"/>
</g>
<!-- src/services/battleService.ts -->
<g id="node30" class="node">
<title>src/services/battleService.ts</title>
<g id="a_node30"><a xlink:href="src/services/battleService.ts" xlink:title="battleService.ts">
<path fill="#ddfeff" stroke="black" d="M498.83,-108.45C498.83,-108.45 432.92,-108.45 432.92,-108.45 429.83,-108.45 426.75,-105.37 426.75,-102.28 426.75,-102.28 426.75,-96.12 426.75,-96.12 426.75,-93.03 429.83,-89.95 432.92,-89.95 432.92,-89.95 498.83,-89.95 498.83,-89.95 501.92,-89.95 505,-93.03 505,-96.12 505,-96.12 505,-102.28 505,-102.28 505,-105.37 501.92,-108.45 498.83,-108.45"/>
<text text-anchor="start" x="434.75" y="-95.9" font-family="Helvetica,sans-Serif" font-size="9.00">battleService.ts</text>
</a>
</g>
</g>
<!-- src/hooks/useBattle.ts&#45;&gt;src/services/battleService.ts -->
<g id="edge42" class="edge">
<title>src/hooks/useBattle.ts&#45;&gt;src/services/battleService.ts</title>
<path fill="none" stroke="#000000" stroke-width="2" stroke-opacity="0.200000" d="M354.09,-152.61C367.38,-148.92 382.95,-144.01 396.5,-138.2 412.52,-131.33 429.55,-121.63 442.6,-113.62"/>
<polygon fill="#000000" fill-opacity="0.200000" stroke="#000000" stroke-width="2" stroke-opacity="0.200000" points="443.63,-115.45 447.61,-110.49 441.4,-111.89 443.63,-115.45"/>
</g>
<!-- src/utils/battleUtils.ts -->
<g id="node31" class="node">
<title>src/utils/battleUtils.ts</title>
<g id="a_node31"><a xlink:href="src/utils/battleUtils.ts" xlink:title="battleUtils.ts">
<path fill="#ddfeff" stroke="black" d="M611.46,-246.45C611.46,-246.45 558.29,-246.45 558.29,-246.45 555.21,-246.45 552.12,-243.37 552.12,-240.28 552.12,-240.28 552.12,-234.12 552.12,-234.12 552.12,-231.03 555.21,-227.95 558.29,-227.95 558.29,-227.95 611.46,-227.95 611.46,-227.95 614.54,-227.95 617.62,-231.03 617.62,-234.12 617.62,-234.12 617.62,-240.28 617.62,-240.28 617.62,-243.37 614.54,-246.45 611.46,-246.45"/>
<text text-anchor="start" x="560.12" y="-233.9" font-family="Helvetica,sans-Serif" font-size="9.00">battleUtils.ts</text>
</a>
</g>
</g>
<!-- src/hooks/useBattle.ts&#45;&gt;src/utils/battleUtils.ts -->
<g id="edge43" class="edge">
<title>src/hooks/useBattle.ts&#45;&gt;src/utils/battleUtils.ts</title>
<path fill="none" stroke="#000000" stroke-width="2" stroke-opacity="0.200000" d="M353.98,-156.43C403.61,-151.06 498.33,-144.04 522.75,-165.2 541.83,-181.73 515.62,-202.21 532.25,-221.2 535.42,-224.82 539.39,-227.63 543.71,-229.81"/>
<polygon fill="#000000" fill-opacity="0.200000" stroke="#000000" stroke-width="2" stroke-opacity="0.200000" points="542.62,-231.63 548.97,-231.95 544.2,-227.74 542.62,-231.63"/>
</g>
<!-- src/hooks/useBattleSound.ts -->
<g id="node32" class="node">
<title>src/hooks/useBattleSound.ts</title>
<g id="a_node32"><a xlink:href="src/hooks/useBattleSound.ts" xlink:title="useBattleSound.ts">
<path fill="#ddfeff" stroke="black" d="M504.83,-231.45C504.83,-231.45 426.92,-231.45 426.92,-231.45 423.83,-231.45 420.75,-228.37 420.75,-225.28 420.75,-225.28 420.75,-219.12 420.75,-219.12 420.75,-216.03 423.83,-212.95 426.92,-212.95 426.92,-212.95 504.83,-212.95 504.83,-212.95 507.92,-212.95 511,-216.03 511,-219.12 511,-219.12 511,-225.28 511,-225.28 511,-228.37 507.92,-231.45 504.83,-231.45"/>
<text text-anchor="start" x="428.75" y="-218.9" font-family="Helvetica,sans-Serif" font-size="9.00">useBattleSound.ts</text>
</a>
</g>
</g>
<!-- src/hooks/useBattle.ts&#45;&gt;src/hooks/useBattleSound.ts -->
<g id="edge45" class="edge">
<title>src/hooks/useBattle.ts&#45;&gt;src/hooks/useBattleSound.ts</title>
<path fill="none" stroke="#000000" stroke-width="2" stroke-opacity="0.200000" d="M354.11,-159.85C368.68,-161.29 385.3,-165.5 396.5,-176.2 406.48,-185.73 394.73,-196.45 404.5,-206.2 406.86,-208.56 409.53,-210.58 412.4,-212.32"/>
<polygon fill="#000000" fill-opacity="0.200000" stroke="#000000" stroke-width="2" stroke-opacity="0.200000" points="411.36,-214.15 417.67,-214.92 413.22,-210.38 411.36,-214.15"/>
</g>
<!-- src/services/battleService.ts&#45;&gt;src/lib/levelSystem.ts -->
<g id="edge56" class="edge">
<title>src/services/battleService.ts&#45;&gt;src/lib/levelSystem.ts</title>
<path fill="none" stroke="#000000" stroke-width="2" stroke-opacity="0.200000" d="M479.11,-108.82C491.69,-118.18 512.21,-132 532.25,-139.2 556.17,-147.79 628.23,-136.55 645.5,-155.2 664.42,-175.62 636.79,-257.94 653.5,-280.2 653.76,-280.54 654.02,-280.88 654.3,-281.21"/>
<polygon fill="#000000" fill-opacity="0.200000" stroke="#000000" stroke-width="2" stroke-opacity="0.200000" points="652.83,-282.72 658.73,-285.1 655.61,-279.56 652.83,-282.72"/>
</g>
<!-- src/services/battleService.ts&#45;&gt;src/config/battleConfig.ts -->
<g id="edge55" class="edge">
<title>src/services/battleService.ts&#45;&gt;src/config/battleConfig.ts</title>
<path fill="none" stroke="#000000" stroke-width="2" stroke-opacity="0.200000" d="M505.43,-108.93C514.2,-110.9 523.51,-112.79 532.25,-114.2 578.91,-121.72 707.67,-103.96 744,-134.2 769.76,-155.64 787.38,-257.63 793.68,-299.84"/>
<polygon fill="#000000" fill-opacity="0.200000" stroke="#000000" stroke-width="2" stroke-opacity="0.200000" points="791.6,-300.14 794.54,-305.78 795.76,-299.54 791.6,-300.14"/>
</g>
<!-- src/services/battleService.ts&#45;&gt;src/types/battle.ts -->
<g id="edge60" class="edge">
<title>src/services/battleService.ts&#45;&gt;src/types/battle.ts</title>
<path fill="none" stroke="#000000" stroke-width="2" stroke-opacity="0.200000" d="M476.44,-89.52C488.31,-78.27 509.76,-60.32 532.25,-53.2 580.24,-38.01 602.5,-27.03 645.5,-53.2 675.15,-71.24 688.71,-112.13 694.31,-135.98"/>
<polygon fill="#000000" fill-opacity="0.200000" stroke="#000000" stroke-width="2" stroke-opacity="0.200000" points="692.24,-136.37 695.55,-141.8 696.35,-135.49 692.24,-136.37"/>
</g>
<!-- src/services/battleService.ts&#45;&gt;src/lib/supabase.ts -->
<g id="edge57" class="edge">
<title>src/services/battleService.ts&#45;&gt;src/lib/supabase.ts</title>
<path fill="none" stroke="#000000" stroke-width="2" stroke-opacity="0.200000" d="M487.99,-108.87C500.61,-114.33 517.09,-120.9 532.25,-125.2 581.42,-139.16 610.72,-107.75 645.5,-145.2 657.51,-158.13 645.63,-208.41 653.5,-224.2 658.61,-234.45 667.43,-243.43 675.86,-250.35"/>
<polygon fill="#000000" fill-opacity="0.200000" stroke="#000000" stroke-width="2" stroke-opacity="0.200000" points="674.32,-251.81 680.36,-253.81 676.88,-248.49 674.32,-251.81"/>
</g>
<!-- src/services/battleRatingService.ts -->
<g id="node35" class="node">
<title>src/services/battleRatingService.ts</title>
<g id="a_node35"><a xlink:href="src/services/battleRatingService.ts" xlink:title="battleRatingService.ts">
<path fill="#ddfeff" stroke="black" d="M631.33,-77.45C631.33,-77.45 538.42,-77.45 538.42,-77.45 535.33,-77.45 532.25,-74.37 532.25,-71.28 532.25,-71.28 532.25,-65.12 532.25,-65.12 532.25,-62.03 535.33,-58.95 538.42,-58.95 538.42,-58.95 631.33,-58.95 631.33,-58.95 634.42,-58.95 637.5,-62.03 637.5,-65.12 637.5,-65.12 637.5,-71.28 637.5,-71.28 637.5,-74.37 634.42,-77.45 631.33,-77.45"/>
<text text-anchor="start" x="540.25" y="-64.9" font-family="Helvetica,sans-Serif" font-size="9.00">battleRatingService.ts</text>
</a>
</g>
</g>
<!-- src/services/battleService.ts&#45;&gt;src/services/battleRatingService.ts -->
<g id="edge58" class="edge">
<title>src/services/battleService.ts&#45;&gt;src/services/battleRatingService.ts</title>
<path fill="none" stroke="#000000" stroke-width="2" stroke-opacity="0.200000" d="M503.57,-89.48C514.68,-86.53 527.01,-83.27 538.61,-80.19"/>
<polygon fill="#000000" fill-opacity="0.200000" stroke="#000000" stroke-width="2" stroke-opacity="0.200000" points="539.12,-82.23 544.38,-78.66 538.04,-78.17 539.12,-82.23"/>
</g>
<!-- src/services/progressService.ts -->
<g id="node36" class="node">
<title>src/services/progressService.ts</title>
<g id="a_node36"><a xlink:href="src/services/progressService.ts" xlink:title="progressService.ts">
<path fill="#ddfeff" stroke="black" d="M624.58,-108.45C624.58,-108.45 545.17,-108.45 545.17,-108.45 542.08,-108.45 539,-105.37 539,-102.28 539,-102.28 539,-96.12 539,-96.12 539,-93.03 542.08,-89.95 545.17,-89.95 545.17,-89.95 624.58,-89.95 624.58,-89.95 627.67,-89.95 630.75,-93.03 630.75,-96.12 630.75,-96.12 630.75,-102.28 630.75,-102.28 630.75,-105.37 627.67,-108.45 624.58,-108.45"/>
<text text-anchor="start" x="547" y="-95.9" font-family="Helvetica,sans-Serif" font-size="9.00">progressService.ts</text>
</a>
</g>
</g>
<!-- src/services/battleService.ts&#45;&gt;src/services/progressService.ts -->
<g id="edge59" class="edge">
<title>src/services/battleService.ts&#45;&gt;src/services/progressService.ts</title>
<path fill="none" stroke="#000000" stroke-width="2" stroke-opacity="0.200000" d="M505.19,-99.2C513.02,-99.2 521.4,-99.2 529.66,-99.2"/>
<polygon fill="#000000" fill-opacity="0.200000" stroke="#000000" stroke-width="2" stroke-opacity="0.200000" points="529.53,-101.3 535.53,-99.2 529.53,-97.1 529.53,-101.3"/>
</g>
<!-- src/utils/circuitBreaker.ts -->
<g id="node37" class="node">
<title>src/utils/circuitBreaker.ts</title>
<g id="a_node37"><a xlink:href="src/utils/circuitBreaker.ts" xlink:title="circuitBreaker.ts">
<path fill="#ddfeff" stroke="black" d="M618.96,-215.45C618.96,-215.45 550.79,-215.45 550.79,-215.45 547.71,-215.45 544.62,-212.37 544.62,-209.28 544.62,-209.28 544.62,-203.12 544.62,-203.12 544.62,-200.03 547.71,-196.95 550.79,-196.95 550.79,-196.95 618.96,-196.95 618.96,-196.95 622.04,-196.95 625.12,-200.03 625.12,-203.12 625.12,-203.12 625.12,-209.28 625.12,-209.28 625.12,-212.37 622.04,-215.45 618.96,-215.45"/>
<text text-anchor="start" x="552.62" y="-202.9" font-family="Helvetica,sans-Serif" font-size="9.00">circuitBreaker.ts</text>
</a>
</g>
</g>
<!-- src/services/battleService.ts&#45;&gt;src/utils/circuitBreaker.ts -->
<g id="edge61" class="edge">
<title>src/services/battleService.ts&#45;&gt;src/utils/circuitBreaker.ts</title>
<path fill="none" stroke="#000000" stroke-width="2" stroke-opacity="0.200000" d="M486.71,-108.81C499.02,-115.81 514.08,-126.46 522.75,-140.2 534.82,-159.33 517.18,-173.33 532.25,-190.2 533.6,-191.71 535.08,-193.07 536.67,-194.31"/>
<polygon fill="#000000" fill-opacity="0.200000" stroke="#000000" stroke-width="2" stroke-opacity="0.200000" points="535.44,-196.02 541.64,-197.38 537.64,-192.44 535.44,-196.02"/>
</g>
<!-- src/utils/logger.ts -->
<g id="node38" class="node">
<title>src/utils/logger.ts</title>
<g id="a_node38"><a xlink:href="src/utils/logger.ts" xlink:title="logger.ts">
<path fill="#ddfeff" stroke="black" d="M605.71,-184.45C605.71,-184.45 564.04,-184.45 564.04,-184.45 560.96,-184.45 557.88,-181.37 557.88,-178.28 557.88,-178.28 557.88,-172.12 557.88,-172.12 557.88,-169.03 560.96,-165.95 564.04,-165.95 564.04,-165.95 605.71,-165.95 605.71,-165.95 608.79,-165.95 611.88,-169.03 611.88,-172.12 611.88,-172.12 611.88,-178.28 611.88,-178.28 611.88,-181.37 608.79,-184.45 605.71,-184.45"/>
<text text-anchor="start" x="567.62" y="-171.9" font-family="Helvetica,sans-Serif" font-size="9.00">logger.ts</text>
</a>
</g>
</g>
<!-- src/services/battleService.ts&#45;&gt;src/utils/logger.ts -->
<g id="edge62" class="edge">
<title>src/services/battleService.ts&#45;&gt;src/utils/logger.ts</title>
<path fill="none" stroke="#000000" stroke-width="2" stroke-opacity="0.200000" d="M482.57,-108.83C494.36,-116.5 510.51,-127.94 522.75,-140.2 527.81,-145.26 526.65,-148.75 532.25,-153.2 537.34,-157.24 543.28,-160.67 549.28,-163.53"/>
<polygon fill="#000000" fill-opacity="0.200000" stroke="#000000" stroke-width="2" stroke-opacity="0.200000" points="548.32,-165.4 554.66,-165.87 550,-161.55 548.32,-165.4"/>
</g>
<!-- src/utils/battleUtils.ts&#45;&gt;src/config/battleConfig.ts -->
<g id="edge63" class="edge">
<title>src/utils/battleUtils.ts&#45;&gt;src/config/battleConfig.ts</title>
<path fill="none" stroke="#000000" stroke-width="2" stroke-opacity="0.200000" d="M618.06,-231.05C651.65,-226.33 704.8,-223.78 744,-245.2 766.1,-257.27 781.11,-283.18 789.19,-300.66"/>
<polygon fill="#000000" fill-opacity="0.200000" stroke="#000000" stroke-width="2" stroke-opacity="0.200000" points="787.06,-301.02 791.38,-305.68 790.9,-299.34 787.06,-301.02"/>
</g>
<!-- src/scripts/seedQuestions.ts -->
<g id="node34" class="node">
<title>src/scripts/seedQuestions.ts</title>
<g id="a_node34"><a xlink:href="src/scripts/seedQuestions.ts" xlink:title="seedQuestions.ts">
<path fill="#ddfeff" stroke="black" d="M359.33,-108.45C359.33,-108.45 285.17,-108.45 285.17,-108.45 282.08,-108.45 279,-105.37 279,-102.28 279,-102.28 279,-96.12 279,-96.12 279,-93.03 282.08,-89.95 285.17,-89.95 285.17,-89.95 359.33,-89.95 359.33,-89.95 362.42,-89.95 365.5,-93.03 365.5,-96.12 365.5,-96.12 365.5,-102.28 365.5,-102.28 365.5,-105.37 362.42,-108.45 359.33,-108.45"/>
<text text-anchor="start" x="287" y="-95.9" font-family="Helvetica,sans-Serif" font-size="9.00">seedQuestions.ts</text>
</a>
</g>
</g>
<!-- src/scripts/seedQuestions.ts&#45;&gt;src/services/battleService.ts -->
<g id="edge54" class="edge">
<title>src/scripts/seedQuestions.ts&#45;&gt;src/services/battleService.ts</title>
<path fill="none" stroke="#000000" stroke-width="2" stroke-opacity="0.200000" d="M365.74,-99.2C382.12,-99.2 400.91,-99.2 417.7,-99.2"/>
<polygon fill="#000000" fill-opacity="0.200000" stroke="#000000" stroke-width="2" stroke-opacity="0.200000" points="417.25,-101.3 423.25,-99.2 417.25,-97.1 417.25,-101.3"/>
</g>
<!-- src/types/user.ts -->
<g id="node39" class="node">
<title>src/types/user.ts</title>
<g id="a_node39"><a xlink:href="src/types/user.ts" xlink:title="user.ts">
<path fill="#ccffcc" stroke="black" d="M719.58,-194.45C719.58,-194.45 677.92,-194.45 677.92,-194.45 674.83,-194.45 671.75,-191.37 671.75,-188.28 671.75,-188.28 671.75,-182.12 671.75,-182.12 671.75,-179.03 674.83,-175.95 677.92,-175.95 677.92,-175.95 719.58,-175.95 719.58,-175.95 722.67,-175.95 725.75,-179.03 725.75,-182.12 725.75,-182.12 725.75,-188.28 725.75,-188.28 725.75,-191.37 722.67,-194.45 719.58,-194.45"/>
<text text-anchor="start" x="685.62" y="-181.9" font-family="Helvetica,sans-Serif" font-size="9.00">user.ts</text>
</a>
</g>
</g>
<!-- src/utils/gameUtils.ts -->
<g id="node40" class="node">
<title>src/utils/gameUtils.ts</title>
<g id="a_node40"><a xlink:href="src/utils/gameUtils.ts" xlink:title="gameUtils.ts">
<path fill="#ddfeff" stroke="black" d="M611.83,-277.45C611.83,-277.45 557.92,-277.45 557.92,-277.45 554.83,-277.45 551.75,-274.37 551.75,-271.28 551.75,-271.28 551.75,-265.12 551.75,-265.12 551.75,-262.03 554.83,-258.95 557.92,-258.95 557.92,-258.95 611.83,-258.95 611.83,-258.95 614.92,-258.95 618,-262.03 618,-265.12 618,-265.12 618,-271.28 618,-271.28 618,-274.37 614.92,-277.45 611.83,-277.45"/>
<text text-anchor="start" x="559.75" y="-264.9" font-family="Helvetica,sans-Serif" font-size="9.00">gameUtils.ts</text>
</a>
</g>
</g>
<!-- src/utils/gameUtils.ts&#45;&gt;src/lib/levelSystem.ts -->
<g id="edge64" class="edge">
<title>src/utils/gameUtils.ts&#45;&gt;src/lib/levelSystem.ts</title>
<path fill="none" stroke="#000000" stroke-width="2" stroke-opacity="0.200000" d="M618.23,-276.3C628.93,-278.98 641.03,-282 652.51,-284.88"/>
<polygon fill="#000000" fill-opacity="0.200000" stroke="#000000" stroke-width="2" stroke-opacity="0.200000" points="651.87,-286.88 658.2,-286.3 652.89,-282.81 651.87,-286.88"/>
</g>
</g>
</svg>
